SplineFontDB: 3.2
FontName: Futuren0tFound
FullName: Future n0t Found Regular
FamilyName: Future n0t Found
Weight: Book
Copyright: This work is licensed under a Creative Commons Attribution 4.0 International License. | http://creativecommons.org/licenses/by/4.0/
Version: 1.1
ItalicAngle: 0
UnderlinePosition: -2
UnderlineWidth: 1
Ascent: 819
Descent: 205
InvalidEm: 0
sfntRevision: 0x00010000
LayerCount: 2
Layer: 0 1 "Back" 1
Layer: 1 1 "Fore" 0
XUID: [1021 730 72134132 28061]
StyleMap: 0x0040
FSType: 0
OS2Version: 4
OS2_WeightWidthSlopeOnly: 0
OS2_UseTypoMetrics: 0
CreationTime: 1443291566
ModificationTime: 1740831126
PfmFamily: 81
TTFWeight: 400
TTFWidth: 5
LineGap: 0
VLineGap: 0
Panose: 0 0 0 0 0 0 0 0 0 0
OS2TypoAscent: 858
OS2TypoAOffset: 0
OS2TypoDescent: -209
OS2TypoDOffset: 0
OS2TypoLinegap: 100
OS2WinAscent: 858
OS2WinAOffset: 0
OS2WinDescent: 209
OS2WinDOffset: 0
HheadAscent: 858
HheadAOffset: 0
HheadDescent: -209
HheadDOffset: 0
OS2SubXSize: 40
OS2SubYSize: 40
OS2SubXOff: 40
OS2SubYOff: 40
OS2SupXSize: 40
OS2SupYSize: 40
OS2SupXOff: 40
OS2SupYOff: 40
OS2StrikeYSize: 40
OS2StrikeYPos: 200
OS2CapHeight: 858
OS2XHeight: 858
OS2Vendor: 'Bird'
OS2CodePages: 203f00ff.dffd0000
OS2UnicodeRanges: 00000001.00000000.00000000.00000000
Lookup: 4 0 0 "'clig' Contextual Ligatures lookup 0" { "'clig' Contextual Ligatures lookup 0 subtable"  } [' RQD' ('DFLT' <'dflt' > ) 'clig' ('DFLT' <'dflt' > ) ]
Lookup: 258 0 0 "'kern' Horizontal Kerning lookup 0" { "'kern' Horizontal Kerning lookup 0 subtable"  } [' RQD' ('DFLT' <'dflt' > ) 'kern' ('DFLT' <'dflt' > ) ]
DEI: 91125
ShortTable: maxp 16
  1
  0
  239
  206
  5
  0
  0
  1
  0
  0
  0
  0
  0
  0
  0
  0
EndShort
LangName: 1033 "" "" "Regular" "Future n0t Found Regular:Ve" "" "Version 1.1" "" "" "" "" "Designed by Michael Moss | whitespirals.com | Created using Birdfont by Johan Mattsson | http://birdfont.org/ | 9/25/2015" "" "" "" "" "" "Future n0t Found" "Regular"
GaspTable: 1 65535 2 0
Encoding: UnicodeFull

StartChar: .notdef
Encoding: 1114112 -1 0
Width: 543
GlyphClass: 1
Flags: W
LayerCount: 2
Fore
SplineSet
51 102 m 1,0,1
 154 102 154 102 358 102 c 1,2,3
 358 273 358 273 358 615 c 1,4,5
 256 615 256 615 51 615 c 1,6,7
 51 572 51 572 51 486 c 0,8,9
 51 358 51 358 51 102 c 1,0,1
0 666 m 1,10,11
 137 666 137 666 410 666 c 1,12,13
 410 461 410 461 410 51 c 1,14,15
 341 51 341 51 204 51 c 0,16,17
 136 51 136 51 0 51 c 1,18,19
 0 256 0 256 0 666 c 1,10,11
EndSplineSet
Validated: 1
EndChar

StartChar: exclam
Encoding: 33 33 4
Width: 205
GlyphClass: 1
Flags: W
LayerCount: 2
Fore
SplineSet
48 717 m 1,0,1
 74 717 74 717 154 717 c 1,2,3
 154 573 154 573 154 139 c 1,4,5
 127 139 127 139 48 139 c 1,6,7
 48 230 48 230 48 501 c 0,8,9
 48 555 48 555 48 717 c 1,0,1
48 84 m 1,10,11
 74 84 74 84 154 84 c 1,12,13
 154 63 154 63 154 0 c 1,14,15
 134 0 134 0 75 0 c 0,16,17
 68 0 68 0 48 0 c 1,18,19
 48 21 48 21 48 84 c 1,10,11
EndSplineSet
Validated: 1
EndChar

StartChar: quotedbl
Encoding: 34 34 5
Width: 348
GlyphClass: 1
Flags: W
LayerCount: 2
Fore
SplineSet
42 451 m 1,0,1
 42 504 42 504 42 584 c 256,2,3
 42 664 42 664 42 717 c 1,4,5
 63 717 63 717 88 717 c 0,6,7
 112 717 112 717 133 717 c 1,8,9
 133 664 133 664 133 584 c 256,10,11
 133 504 133 504 133 451 c 1,12,13
 112 451 112 451 88 451 c 0,14,15
 63 451 63 451 42 451 c 1,0,1
219 450 m 1,16,17
 219 504 219 504 219 584 c 0,18,19
 219 663 219 663 219 717 c 1,20,21
 240 717 240 717 265 717 c 0,22,23
 289 717 289 717 310 717 c 1,24,25
 310 663 310 663 310 584 c 0,26,27
 310 504 310 504 310 450 c 1,28,29
 289 450 289 450 265 450 c 0,30,31
 240 450 240 450 219 450 c 1,16,17
EndSplineSet
Validated: 1
EndChar

StartChar: numbersign
Encoding: 35 35 6
Width: 696
GlyphClass: 1
Flags: W
LayerCount: 2
Fore
SplineSet
655 465 m 1,0,1
 608 465 608 465 515 465 c 1,2,3
 515 428 515 428 515 356 c 1,4,5
 562 356 562 356 655 356 c 1,6,7
 655 319 655 319 655 243 c 1,8,9
 608 243 608 243 515 243 c 1,10,11
 515 197 515 197 515 103 c 1,12,13
 477 103 477 103 402 103 c 1,14,15
 402 150 402 150 402 243 c 1,16,17
 366 243 366 243 294 243 c 1,18,19
 294 197 294 197 294 103 c 1,20,21
 256 103 256 103 181 103 c 1,22,23
 181 150 181 150 181 243 c 1,24,25
 134 243 134 243 41 243 c 1,26,27
 41 262 41 262 41 300 c 0,28,29
 41 319 41 319 41 356 c 1,30,31
 88 356 88 356 181 356 c 1,32,33
 181 392 181 392 181 465 c 1,34,35
 134 465 134 465 41 465 c 1,36,37
 41 502 41 502 41 577 c 1,38,39
 88 577 88 577 181 577 c 1,40,41
 181 624 181 624 181 717 c 1,42,43
 219 717 219 717 294 717 c 1,44,45
 294 671 294 671 294 577 c 1,46,47
 330 577 330 577 402 577 c 1,48,49
 402 624 402 624 402 717 c 1,50,51
 440 717 440 717 515 717 c 1,52,53
 515 671 515 671 515 577 c 1,54,55
 562 577 562 577 655 577 c 1,56,57
 655 540 655 540 655 465 c 1,0,1
402 356 m 1,58,59
 402 392 402 392 402 465 c 1,60,61
 366 465 366 465 294 465 c 1,62,63
 294 428 294 428 294 356 c 1,64,65
 330 356 330 356 402 356 c 1,58,59
EndSplineSet
Validated: 1
EndChar

StartChar: dollar
Encoding: 36 36 7
Width: 410
GlyphClass: 1
Flags: W
LayerCount: 2
Fore
SplineSet
123 392 m 1,0,1
 137 392 137 392 167 392 c 1,2,3
 167 448 167 448 167 560 c 1,4,5
 152 541 152 541 123 502 c 1,6,7
 123 465 123 465 123 392 c 1,0,1
286 323 m 1,8,9
 274 323 274 323 249 323 c 1,10,11
 249 275 249 275 249 180 c 1,12,13
 261 196 261 196 286 229 c 1,14,15
 286 260 286 260 286 323 c 1,8,9
366 575 m 1,16,17
 327 575 327 575 249 575 c 1,18,19
 249 514 249 514 249 392 c 1,20,21
 288 392 288 392 366 392 c 1,22,23
 366 331 366 331 366 209 c 1,24,25
 334 169 334 169 270 88 c 1,26,27
 263 88 263 88 249 88 c 1,28,29
 249 59 249 59 249 2 c 1,30,31
 228 2 228 2 187 2 c 0,32,33
 180 2 180 2 167 2 c 1,34,35
 167 30 167 30 167 88 c 1,36,37
 126 88 126 88 43 88 c 1,38,39
 43 111 43 111 43 156 c 1,40,41
 84 156 84 156 167 156 c 1,42,43
 167 212 167 212 167 323 c 1,44,45
 126 323 126 323 43 323 c 1,46,47
 43 390 43 390 43 522 c 1,48,49
 75 562 75 562 139 643 c 1,50,51
 148 643 148 643 167 643 c 1,52,53
 167 669 167 669 167 719 c 1,54,55
 194 719 194 719 249 719 c 1,56,57
 249 694 249 694 249 643 c 1,58,59
 288 643 288 643 366 643 c 1,60,61
 366 621 366 621 366 575 c 1,16,17
EndSplineSet
Validated: 1
EndChar

StartChar: percent
Encoding: 37 37 8
Width: 532
GlyphClass: 1
Flags: W
LayerCount: 2
Fore
SplineSet
485 716 m 1,0,-1
 485 713 l 2,1,2
 485 676 485 676 485 565 c 1,3,4
 376 424 376 424 49 0 c 1,5,6
 49 40 49 40 49 163 c 1,7,8
 158 301 158 301 485 716 c 1,0,-1
302 165 m 1,9,10
 302 125 302 125 302 44 c 1,11,12
 334 44 334 44 397 44 c 1,13,14
 409 60 409 60 433 90 c 1,15,16
 433 141 433 141 433 243 c 2,17,-1
 433 244 l 1,18,19
 410 244 410 244 366 244 c 2,20,-1
 365 244 l 1,21,22
 344 217 344 217 302 165 c 1,9,10
250 1 m 1,23,24
 250 58 250 58 250 173 c 1,25,26
 279 211 279 211 339 288 c 1,27,28
 388 288 388 288 485 288 c 1,29,30
 485 219 485 219 485 81 c 1,31,32
 464 54 464 54 422 1 c 1,33,34
 377 1 377 1 288 1 c 0,35,36
 275 1 275 1 250 1 c 1,23,24
101 595 m 1,37,38
 101 555 101 555 101 474 c 1,39,40
 133 474 133 474 196 474 c 1,41,42
 208 489 208 489 232 520 c 1,43,44
 232 571 232 571 232 673 c 2,45,-1
 232 674 l 1,46,47
 209 674 209 674 165 674 c 2,48,-1
 164 674 l 1,49,50
 143 647 143 647 101 595 c 1,37,38
49 431 m 1,51,52
 49 459 49 459 49 517 c 0,53,54
 49 545 49 545 49 603 c 1,55,56
 78 641 78 641 138 717 c 1,57,58
 187 717 187 717 284 717 c 1,59,60
 284 649 284 649 284 511 c 1,61,62
 263 484 263 484 221 431 c 1,63,64
 164 431 164 431 49 431 c 1,51,52
EndSplineSet
Validated: 1
EndChar

StartChar: ampersand
Encoding: 38 38 9
Width: 512
GlyphClass: 1
Flags: W
LayerCount: 2
Fore
SplineSet
172 411 m 1,0,1
 231 484 231 484 347 629 c 1,2,3
 283 629 283 629 153 629 c 1,4,5
 153 565 153 565 153 436 c 1,6,7
 159 428 159 428 172 411 c 1,0,1
307 89 m 1,8,9
 262 146 262 146 171 260 c 1,10,11
 165 253 165 253 153 237 c 1,12,13
 153 188 153 188 153 89 c 1,14,15
 204 89 204 89 307 89 c 1,8,9
465 336 m 1,16,17
 465 225 465 225 465 1 c 1,18,19
 360 1 360 1 151 1 c 0,20,21
 116 1 116 1 47 1 c 1,22,23
 47 43 47 43 47 128 c 0,24,25
 47 171 47 171 47 256 c 1,26,27
 68 283 68 283 111 336 c 1,28,29
 90 363 90 363 47 417 c 1,30,31
 47 517 47 517 47 717 c 1,32,33
 187 717 187 717 465 717 c 1,34,35
 465 688 465 688 465 629 c 1,36,37
 387 531 387 531 231 336 c 1,38,39
 274 281 274 281 359 172 c 1,40,41
 359 227 359 227 359 336 c 1,42,43
 395 336 395 336 465 336 c 1,16,17
EndSplineSet
Validated: 1
EndChar

StartChar: quotesingle
Encoding: 39 39 10
Width: 205
GlyphClass: 1
Flags: W
LayerCount: 2
Fore
SplineSet
65 451 m 1,0,1
 65 464 65 464 65 480 c 0,2,3
 65 525 65 525 65 584 c 0,4,5
 65 664 65 664 65 717 c 1,6,7
 87 717 87 717 111 717 c 0,8,9
 136 717 136 717 157 717 c 1,10,11
 157 664 157 664 157 584 c 256,12,13
 157 504 157 504 157 451 c 1,14,15
 136 451 136 451 111 451 c 0,16,17
 87 451 87 451 65 451 c 1,0,1
EndSplineSet
Validated: 1
EndChar

StartChar: parenleft
Encoding: 40 40 11
Width: 389
GlyphClass: 1
Flags: W
LayerCount: 2
Fore
SplineSet
49 509 m 0,0,1
 49 547 49 547 49 559 c 1,2,3
 144 678 144 678 175 718 c 1,4,5
 302 718 302 718 345 718 c 1,6,7
 345 651 345 651 345 629 c 1,8,9
 256 629 256 629 226 629 c 1,10,11
 172 557 172 557 154 534 c 1,12,13
 154 272 154 272 154 185 c 1,14,15
 208 114 208 114 226 90 c 1,16,17
 315 90 315 90 345 90 c 1,18,19
 345 23 345 23 345 1 c 1,20,21
 244 1 244 1 211 1 c 0,22,23
 184 1 184 1 175 1 c 1,24,25
 81 120 81 120 49 159 c 1,26,27
 49 422 49 422 49 509 c 0,0,1
EndSplineSet
Validated: 1
EndChar

StartChar: parenright
Encoding: 41 41 12
Width: 389
GlyphClass: 1
Flags: W
LayerCount: 2
Fore
SplineSet
342 160 m 1,0,1
 247 41 247 41 216 1 c 1,2,3
 115 1 115 1 82 1 c 0,4,5
 55 1 55 1 46 1 c 1,6,7
 46 68 46 68 46 90 c 1,8,9
 135 90 135 90 165 90 c 1,10,11
 219 161 219 161 237 185 c 1,12,13
 237 447 237 447 237 534 c 1,14,15
 183 605 183 605 165 629 c 1,16,17
 76 629 76 629 46 629 c 1,18,19
 46 696 46 696 46 718 c 1,20,21
 173 718 173 718 216 718 c 1,22,23
 310 599 310 599 342 560 c 1,24,25
 342 260 342 260 342 160 c 1,0,1
EndSplineSet
Validated: 1
EndChar

StartChar: asterisk
Encoding: 42 42 13
Width: 491
GlyphClass: 1
Flags: W
LayerCount: 2
Fore
SplineSet
333 494 m 1,0,1
 391 396 391 396 410 364 c 1,2,3
 334 319 334 319 309 304 c 1,4,5
 262 384 262 384 246 411 c 1,6,7
 199 331 199 331 183 304 c 1,8,9
 107 349 107 349 82 364 c 1,10,11
 140 461 140 461 159 494 c 1,12,13
 71 524 71 524 41 534 c 1,14,15
 70 617 70 617 79 645 c 1,16,17
 160 617 160 617 187 608 c 1,18,19
 187 690 187 690 187 718 c 1,20,21
 275 718 275 718 304 718 c 2,22,23
 304 718 304 718 305 718 c 1,24,25
 305 635 305 635 305 608 c 1,26,27
 386 636 386 636 413 645 c 1,28,29
 441 562 441 562 451 534 c 1,30,31
 362 504 362 504 333 494 c 1,0,1
EndSplineSet
Validated: 1
EndChar

StartChar: plus
Encoding: 43 43 14
Width: 471
GlyphClass: 1
Flags: W
LayerCount: 2
Fore
SplineSet
430 315 m 1,0,1
 324 315 324 315 289 315 c 1,2,3
 289 210 289 210 289 175 c 1,4,5
 206 175 206 175 179 175 c 1,6,7
 179 280 179 280 179 315 c 1,8,9
 73 315 73 315 38 315 c 1,10,11
 38 374 38 374 38 394 c 0,12,13
 38 413 38 413 38 420 c 1,14,15
 143 420 143 420 179 420 c 1,16,17
 179 526 179 526 179 561 c 1,18,19
 261 561 261 561 289 561 c 1,20,21
 289 455 289 455 289 420 c 1,22,23
 395 420 395 420 430 420 c 1,24,25
 430 342 430 342 430 315 c 1,0,1
EndSplineSet
Validated: 1
EndChar

StartChar: comma
Encoding: 44 44 15
Width: 266
GlyphClass: 1
Flags: W
LayerCount: 2
Fore
SplineSet
43 -148 m 1,0,1
 16 -148 16 -148 -65 -148 c 1,2,3
 -20 -86 -20 -86 117 102 c 1,4,5
 144 102 144 102 225 102 c 1,6,7
 179 39 179 39 43 -148 c 1,0,1
EndSplineSet
Validated: 1
EndChar

StartChar: hyphen
Encoding: 45 45 16
Width: 491
GlyphClass: 1
Flags: W
LayerCount: 2
Fore
SplineSet
449 415 m 1,0,1
 449 391 449 391 449 366 c 0,2,3
 449 342 449 342 449 318 c 1,4,5
 423 318 423 318 387 318 c 0,6,7
 352 318 352 318 313 318 c 0,8,9
 240 318 240 318 165 318 c 256,10,11
 90 318 90 318 40 318 c 1,12,13
 40 342 40 342 40 366 c 0,14,15
 40 391 40 391 40 415 c 1,16,17
 90 415 90 415 165 415 c 256,18,19
 240 415 240 415 313 415 c 0,20,21
 352 415 352 415 387 415 c 0,22,23
 423 415 423 415 449 415 c 1,0,1
EndSplineSet
Validated: 1
EndChar

StartChar: period
Encoding: 46 46 17
Width: 205
GlyphClass: 1
Flags: W
LayerCount: 2
Fore
SplineSet
48 84 m 1,0,1
 75 84 75 84 154 84 c 1,2,3
 154 63 154 63 154 0 c 1,4,5
 135 0 135 0 75 0 c 0,6,7
 69 0 69 0 48 0 c 1,8,9
 48 21 48 21 48 84 c 1,0,1
EndSplineSet
Validated: 1
EndChar

StartChar: slash
Encoding: 47 47 18
Width: 512
GlyphClass: 1
Flags: W
LayerCount: 2
Fore
SplineSet
477 717 m 1,0,1
 477 680 477 680 477 566 c 1,2,3
 367 425 367 425 40 0 c 1,4,5
 40 41 40 41 40 164 c 1,6,7
 149 302 149 302 477 717 c 1,0,1
EndSplineSet
Validated: 1
EndChar

StartChar: zero
Encoding: 48 48 19
Width: 573
GlyphClass: 1
Flags: W
LayerCount: 2
Fore
SplineSet
506 717 m 1,0,1
 506 578 506 578 506 159 c 1,2,3
 473 119 473 119 373 0 c 1,4,5
 315 0 315 0 143 0 c 0,6,7
 124 0 124 0 66 0 c 1,8,9
 66 77 66 77 66 307 c 0,10,11
 66 353 66 353 66 491 c 1,12,13
 113 548 113 548 256 717 c 1,14,15
 318 717 318 717 506 717 c 1,0,1
177 483 m 1,16,17
 177 438 177 438 177 304 c 1,18,19
 232 368 232 368 395 561 c 1,20,21
 395 581 395 581 395 640 c 1,22,23
 374 640 374 640 309 640 c 1,24,25
 276 600 276 600 177 483 c 1,16,17
395 185 m 1,26,27
 395 241 395 241 395 411 c 1,28,29
 341 347 341 347 177 156 c 1,30,31
 177 140 177 140 177 95 c 1,32,33
 213 95 213 95 320 95 c 1,34,35
 339 118 339 118 395 185 c 1,26,27
EndSplineSet
Validated: 1
EndChar

StartChar: one
Encoding: 49 49 20
Width: 553
GlyphClass: 1
Flags: W
LayerCount: 2
Fore
SplineSet
67 0 m 1,0,1
 67 21 67 21 67 84 c 1,2,3
 106 84 106 84 225 84 c 1,4,5
 225 208 225 208 225 578 c 1,6,7
 210 556 210 556 165 490 c 1,8,9
 140 490 140 490 67 490 c 1,10,11
 67 512 67 512 67 578 c 1,12,13
 79 578 79 578 115 578 c 1,14,15
 142 613 142 613 225 717 c 1,16,17
 251 717 251 717 331 717 c 1,18,19
 331 559 331 559 331 84 c 1,20,21
 369 84 369 84 485 84 c 1,22,23
 485 63 485 63 485 0 c 1,24,25
 407 0 407 0 171 0 c 0,26,27
 145 0 145 0 67 0 c 1,0,1
EndSplineSet
Validated: 1
EndChar

StartChar: two
Encoding: 50 50 21
Width: 553
GlyphClass: 1
Flags: W
LayerCount: 2
Fore
SplineSet
486 464 m 1,0,1
 413 369 413 369 192 84 c 1,2,3
 266 84 266 84 486 84 c 1,4,5
 486 63 486 63 486 0 c 1,6,7
 408 0 408 0 173 0 c 0,8,9
 146 0 146 0 68 0 c 1,10,11
 68 5 68 5 68 22 c 0,12,13
 68 38 68 38 68 85 c 1,14,15
 146 185 146 185 382 484 c 1,16,17
 382 521 382 521 382 633 c 1,18,19
 303 633 303 633 68 633 c 1,20,21
 68 654 68 654 68 717 c 1,22,23
 173 717 173 717 486 717 c 1,24,25
 486 654 486 654 486 464 c 1,0,1
EndSplineSet
Validated: 1
EndChar

StartChar: three
Encoding: 51 51 22
Width: 552
GlyphClass: 1
Flags: W
LayerCount: 2
Fore
SplineSet
486 717 m 1,0,1
 486 642 486 642 486 417 c 1,2,3
 470 397 470 397 422 336 c 1,4,5
 438 316 438 316 486 256 c 1,6,7
 486 192 486 192 486 0 c 1,8,9
 408 0 408 0 173 0 c 0,10,11
 146 0 146 0 68 0 c 1,12,13
 68 6 68 6 68 22 c 0,14,15
 68 39 68 39 68 88 c 1,16,17
 146 88 146 88 380 88 c 1,18,19
 380 126 380 126 380 237 c 1,20,21
 363 259 363 259 312 324 c 1,22,23
 251 324 251 324 68 324 c 1,24,25
 68 346 68 346 68 412 c 1,26,27
 142 412 142 412 362 412 c 1,28,29
 367 418 367 418 380 436 c 1,30,31
 380 484 380 484 380 629 c 1,32,33
 302 629 302 629 68 629 c 1,34,35
 68 651 68 651 68 717 c 1,36,37
 173 717 173 717 486 717 c 1,0,1
EndSplineSet
Validated: 1
EndChar

StartChar: four
Encoding: 52 52 23
Width: 552
GlyphClass: 1
Flags: W
LayerCount: 2
Fore
SplineSet
65 717 m 1,0,1
 85 717 85 717 86 717 c 256,2,3
 87 717 87 717 121 717 c 0,4,5
 129 717 129 717 141 717 c 0,6,7
 152 717 152 717 167 717 c 1,8,9
 167 707 167 707 167 670 c 0,10,11
 167 632 167 632 167 586 c 0,12,13
 167 530 167 530 167 478 c 256,14,15
 167 426 167 426 167 413 c 1,16,17
 189 413 189 413 225 413 c 0,18,19
 260 413 260 413 282 413 c 1,20,21
 282 462 282 462 282 468 c 0,22,23
 282 475 282 475 282 518 c 0,24,25
 282 529 282 529 282 544 c 256,26,27
 282 559 282 559 282 579 c 0,28,29
 282 604 282 604 282 638 c 256,30,31
 282 672 282 672 282 717 c 1,32,33
 319 717 319 717 333 717 c 0,34,35
 348 717 348 717 384 718 c 1,36,37
 384 681 384 681 384 625 c 256,38,39
 384 569 384 569 384 515 c 0,40,41
 384 486 384 486 384 460 c 256,42,43
 384 434 384 434 384 414 c 1,44,45
 404 414 404 414 436 414 c 256,46,47
 468 414 468 414 487 414 c 1,48,49
 487 397 487 397 487 369 c 0,50,51
 487 342 487 342 487 325 c 1,52,53
 468 325 468 325 436 325 c 256,54,55
 404 325 404 325 384 325 c 1,56,57
 384 286 384 286 384 226 c 256,58,59
 384 166 384 166 384 108 c 0,60,61
 384 77 384 77 384 49 c 256,62,63
 384 21 384 21 384 0 c 1,64,65
 365 0 365 0 333 0 c 256,66,67
 301 0 301 0 282 0 c 1,68,69
 282 21 282 21 282 49 c 256,70,71
 282 77 282 77 282 108 c 0,72,73
 282 166 282 166 282 226 c 256,74,75
 282 286 282 286 282 325 c 1,76,77
 241 325 241 325 173 325 c 0,78,79
 106 325 106 325 65 325 c 1,80,81
 65 333 65 333 65 343 c 0,82,83
 65 371 65 371 65 421 c 0,84,85
 65 488 65 488 65 563 c 0,86,87
 65 604 65 604 65 643 c 0,88,89
 65 683 65 683 65 717 c 1,0,1
EndSplineSet
Validated: 1
EndChar

StartChar: five
Encoding: 53 53 24
Width: 553
GlyphClass: 1
Flags: W
LayerCount: 2
Fore
SplineSet
173 629 m 1,0,1
 173 570 173 570 173 392 c 1,2,3
 251 392 251 392 486 392 c 1,4,5
 486 334 486 334 486 157 c 1,6,7
 455 118 455 118 362 0 c 1,8,9
 307 0 307 0 143 0 c 0,10,11
 125 0 125 0 70 0 c 1,12,13
 70 22 70 22 70 88 c 1,14,15
 130 88 130 88 312 88 c 1,16,17
 330 112 330 112 384 183 c 1,18,19
 384 213 384 213 384 304 c 1,20,21
 305 304 305 304 70 304 c 1,22,23
 70 369 70 369 70 563 c 0,24,25
 70 601 70 601 70 717 c 1,26,27
 174 717 174 717 486 717 c 1,28,29
 486 695 486 695 486 629 c 1,30,31
 408 629 408 629 173 629 c 1,0,1
EndSplineSet
Validated: 1
EndChar

StartChar: six
Encoding: 54 54 25
Width: 553
GlyphClass: 1
Flags: W
LayerCount: 2
Fore
SplineSet
173 304 m 1,0,1
 173 250 173 250 173 88 c 1,2,3
 207 88 207 88 312 88 c 1,4,5
 330 112 330 112 384 183 c 1,6,7
 384 213 384 213 384 304 c 1,8,9
 331 304 331 304 173 304 c 1,0,1
70 717 m 1,10,11
 174 717 174 717 486 717 c 1,12,13
 486 695 486 695 486 629 c 1,14,15
 408 629 408 629 173 629 c 1,16,17
 173 570 173 570 173 392 c 1,18,19
 251 392 251 392 486 392 c 1,20,21
 486 334 486 334 486 157 c 1,22,23
 455 118 455 118 362 0 c 1,24,25
 307 0 307 0 143 0 c 0,26,27
 125 0 125 0 70 0 c 1,28,29
 70 112 70 112 70 449 c 0,30,31
 70 516 70 516 70 717 c 1,10,11
EndSplineSet
Validated: 1
EndChar

StartChar: seven
Encoding: 55 55 26
Width: 553
GlyphClass: 1
Flags: W
LayerCount: 2
Fore
SplineSet
486 541 m 1,0,1
 408 439 408 439 173 133 c 1,2,3
 173 100 173 100 173 0 c 1,4,5
 154 0 154 0 94 0 c 0,6,7
 88 0 88 0 67 0 c 1,8,9
 67 26 67 26 67 102 c 0,10,11
 67 118 67 118 67 164 c 1,12,13
 146 263 146 263 381 561 c 1,14,15
 381 579 381 579 381 633 c 1,16,17
 303 633 303 633 67 633 c 1,18,19
 67 654 67 654 67 717 c 1,20,21
 172 717 172 717 486 717 c 1,22,23
 486 673 486 673 486 541 c 1,0,1
EndSplineSet
Validated: 1
EndChar

StartChar: eight
Encoding: 56 56 27
Width: 553
GlyphClass: 1
Flags: W
LayerCount: 2
Fore
SplineSet
379 88 m 1,0,1
 379 123 379 123 379 226 c 1,2,3
 361 248 361 248 307 312 c 1,4,5
 273 312 273 312 171 312 c 1,6,7
 171 256 171 256 171 88 c 1,8,9
 223 88 223 88 379 88 c 1,0,1
171 629 m 1,10,11
 171 595 171 595 171 492 c 1,12,13
 189 469 189 469 243 400 c 1,14,15
 277 400 277 400 379 400 c 1,16,17
 379 458 379 458 379 629 c 1,18,19
 327 629 327 629 171 629 c 1,10,11
485 244 m 1,20,21
 485 183 485 183 485 0 c 1,22,23
 406 0 406 0 170 0 c 0,24,25
 144 0 144 0 65 0 c 1,26,27
 65 63 65 63 65 250 c 0,28,29
 65 288 65 288 65 400 c 1,30,31
 80 400 80 400 123 400 c 1,32,33
 108 419 108 419 65 473 c 1,34,35
 65 534 65 534 65 717 c 1,36,37
 170 717 170 717 485 717 c 1,38,39
 485 616 485 616 485 312 c 1,40,41
 471 312 471 312 430 312 c 1,42,43
 444 295 444 295 485 244 c 1,20,21
EndSplineSet
Validated: 1
EndChar

StartChar: nine
Encoding: 57 57 28
Width: 553
GlyphClass: 1
Flags: W
LayerCount: 2
Fore
SplineSet
384 413 m 1,0,1
 384 467 384 467 384 629 c 1,2,3
 349 629 349 629 244 629 c 1,4,5
 226 606 226 606 172 536 c 1,6,7
 172 505 172 505 172 413 c 1,8,9
 225 413 225 413 384 413 c 1,0,1
384 0 m 1,10,11
 384 81 384 81 384 325 c 1,12,13
 305 325 305 325 70 325 c 1,14,15
 70 362 70 362 70 473 c 0,16,17
 70 495 70 495 70 561 c 1,18,19
 101 600 101 600 194 717 c 1,20,21
 267 717 267 717 486 717 c 1,22,23
 486 538 486 538 486 0 c 1,24,25
 467 0 467 0 409 0 c 0,26,27
 403 0 403 0 384 0 c 1,10,11
EndSplineSet
Validated: 1
EndChar

StartChar: colon
Encoding: 58 58 29
Width: 205
GlyphClass: 1
Flags: W
LayerCount: 2
Fore
SplineSet
162 145 m 1,0,1
 162 126 162 126 162 94 c 256,2,3
 162 62 162 62 162 43 c 1,4,5
 139 43 139 43 101 43 c 0,6,7
 62 43 62 43 39 43 c 1,8,9
 39 62 39 62 39 94 c 256,10,11
 39 126 39 126 39 145 c 1,12,13
 62 145 62 145 101 145 c 0,14,15
 139 145 139 145 162 145 c 1,0,1
39 408 m 1,16,17
 39 427 39 427 39 459 c 256,18,19
 39 491 39 491 39 510 c 1,20,21
 62 510 62 510 101 510 c 0,22,23
 139 510 139 510 162 510 c 1,24,25
 162 491 162 491 162 459 c 256,26,27
 162 427 162 427 162 408 c 1,28,29
 139 408 139 408 101 408 c 0,30,31
 62 408 62 408 39 408 c 1,16,17
EndSplineSet
Validated: 1
EndChar

StartChar: semicolon
Encoding: 59 59 30
Width: 348
GlyphClass: 1
Flags: W
LayerCount: 2
Fore
SplineSet
176 144 m 1,0,1
 260 144 260 144 302 144 c 1,2,3
 160 -50 160 -50 90 -147 c 1,4,5
 6 -147 6 -147 -36 -147 c 1,6,7
 105 47 105 47 176 144 c 1,0,1
179 408 m 1,8,9
 179 484 179 484 179 510 c 1,10,11
 272 510 272 510 302 510 c 1,12,13
 302 433 302 433 302 408 c 1,14,15
 210 408 210 408 179 408 c 1,8,9
EndSplineSet
Validated: 1
EndChar

StartChar: less
Encoding: 60 60 31
Width: 492
GlyphClass: 1
Flags: W
LayerCount: 2
Fore
SplineSet
299 717 m 1,0,1
 415 717 415 717 453 717 c 1,2,3
 258 448 258 448 193 358 c 1,4,5
 388 90 388 90 453 0 c 1,6,7
 337 0 337 0 298 0 c 1,8,9
 103 269 103 269 38 358 c 1,10,11
 234 627 234 627 299 717 c 1,0,1
EndSplineSet
Validated: 1
EndChar

StartChar: equal
Encoding: 61 61 32
Width: 471
GlyphClass: 1
Flags: W
LayerCount: 2
Fore
SplineSet
430 415 m 1,0,1
 333 415 333 415 41 415 c 1,2,3
 41 421 41 421 41 439 c 256,4,5
 41 457 41 457 41 510 c 1,6,7
 138 510 138 510 430 510 c 1,8,9
 430 486 430 486 430 415 c 1,0,1
430 195 m 1,10,11
 333 195 333 195 41 195 c 1,12,13
 41 201 41 201 41 219 c 0,14,15
 41 236 41 236 41 289 c 1,16,17
 138 289 138 289 430 289 c 1,18,19
 430 266 430 266 430 195 c 1,10,11
EndSplineSet
Validated: 1
EndChar

StartChar: greater
Encoding: 62 62 33
Width: 512
GlyphClass: 1
Flags: W
LayerCount: 2
Fore
SplineSet
471 358 m 1,0,1
 406 269 406 269 211 0 c 1,2,3
 172 0 172 0 56 0 c 1,4,5
 121 90 121 90 316 358 c 1,6,7
 251 448 251 448 56 717 c 1,8,9
 95 717 95 717 211 717 c 1,10,11
 276 627 276 627 471 358 c 1,0,1
EndSplineSet
Validated: 1
EndChar

StartChar: question
Encoding: 63 63 34
Width: 512
GlyphClass: 1
Flags: W
LayerCount: 2
Fore
SplineSet
465 717 m 1,0,1
 465 686 465 686 465 591 c 0,2,3
 465 580 465 580 465 549 c 1,4,5
 387 467 387 467 153 223 c 1,6,7
 153 202 153 202 153 139 c 1,8,9
 126 139 126 139 47 139 c 1,10,11
 47 160 47 160 47 223 c 1,12,13
 125 305 125 305 361 549 c 1,14,15
 361 570 361 570 361 633 c 1,16,17
 309 633 309 633 153 633 c 1,18,19
 153 612 153 612 153 549 c 1,20,21
 126 549 126 549 47 549 c 1,22,23
 47 591 47 591 47 717 c 1,24,25
 151 717 151 717 465 717 c 1,0,1
47 84 m 1,26,27
 73 84 73 84 153 84 c 1,28,29
 153 63 153 63 153 0 c 1,30,31
 133 0 133 0 73 0 c 0,32,33
 67 0 67 0 47 0 c 1,34,35
 47 21 47 21 47 84 c 1,26,27
EndSplineSet
Validated: 1
EndChar

StartChar: at
Encoding: 64 64 35
Width: 699
GlyphClass: 1
Flags: W
LayerCount: 2
Fore
SplineSet
344 200 m 1,0,1
 412 287 412 287 435 316 c 5,2,3
 307 316 307 316 264 316 c 1,4,5
 264 229 264 229 264 200 c 1,6,7
 324 200 324 200 344 200 c 1,0,1
577 188 m 1,8,9
 577 533 577 533 577 648 c 1,10,11
 238 648 238 648 126 648 c 1,12,13
 126 215 126 215 126 70 c 1,14,15
 530 70 530 70 665 70 c 1,16,17
 665 18 665 18 665 0 c 1,18,19
 312 0 312 0 194 0 c 0,20,21
 77 0 77 0 38 0 c 1,22,23
 38 404 38 404 38 538 c 0,24,25
 38 673 38 673 38 717 c 1,26,27
 508 717 508 717 665 717 c 1,28,29
 665 274 665 274 665 127 c 1,30,31
 492 127 492 127 435 127 c 1,32,33
 435 173 435 173 435 188 c 1,34,35
 398 142 398 142 386 127 c 1,36,37
 228 127 228 127 176 127 c 1,38,39
 176 320 176 320 176 384 c 1,40,41
 370 384 370 384 435 384 c 1,42,43
 435 486 435 486 435 520 c 1,44,45
 241 520 241 520 176 520 c 1,46,47
 176 572 176 572 176 589 c 1,48,49
 436 589 436 589 523 589 c 1,50,51
 523 289 523 289 523 188 c 1,52,53
 563 188 563 188 577 188 c 1,8,9
EndSplineSet
Validated: 1
EndChar

StartChar: A
Encoding: 65 65 36
Width: 553
GlyphClass: 1
Flags: W
LayerCount: 2
Fore
SplineSet
380 401 m 1,0,1
 380 458 380 458 380 629 c 1,2,3
 356 629 356 629 283 629 c 1,4,5
 256 595 256 595 173 490 c 1,6,7
 173 468 173 468 173 401 c 1,8,9
 225 401 225 401 380 401 c 1,0,1
232 717 m 1,10,11
 296 717 296 717 486 717 c 1,12,13
 486 538 486 538 486 0 c 1,14,15
 466 0 466 0 407 0 c 0,16,17
 400 0 400 0 380 0 c 1,18,19
 380 78 380 78 380 312 c 1,20,21
 328 312 328 312 173 312 c 1,22,23
 173 234 173 234 173 0 c 1,24,25
 147 0 147 0 67 0 c 1,26,27
 67 79 67 79 67 317 c 0,28,29
 67 364 67 364 67 507 c 1,30,31
 109 559 109 559 232 717 c 1,10,11
EndSplineSet
Validated: 1
EndChar

StartChar: B
Encoding: 66 66 37
Width: 553
GlyphClass: 1
Flags: W
LayerCount: 2
Fore
SplineSet
172 629 m 1,0,1
 172 573 172 573 172 404 c 1,2,3
 225 404 225 404 382 404 c 1,4,5
 382 438 382 438 382 542 c 1,6,7
 364 564 364 564 309 629 c 1,8,9
 275 629 275 629 172 629 c 1,0,1
382 228 m 1,10,11
 364 249 364 249 309 315 c 1,12,13
 275 315 275 315 172 315 c 1,14,15
 172 258 172 258 172 89 c 1,16,17
 225 89 225 89 382 89 c 1,18,19
 382 124 382 124 382 228 c 1,10,11
65 717 m 1,20,21
 138 717 138 717 354 717 c 1,22,23
 388 678 388 678 488 560 c 1,24,25
 488 499 488 499 488 315 c 1,26,27
 474 315 474 315 430 315 c 1,28,29
 445 297 445 297 488 246 c 1,30,31
 488 185 488 185 488 0 c 1,32,33
 409 0 409 0 171 0 c 0,34,35
 145 0 145 0 65 0 c 1,36,37
 65 112 65 112 65 449 c 0,38,39
 65 516 65 516 65 717 c 1,20,21
EndSplineSet
Validated: 1
EndChar

StartChar: C
Encoding: 67 67 38
Width: 553
GlyphClass: 1
Flags: W
LayerCount: 2
Fore
SplineSet
68 561 m 1,0,1
 99 600 99 600 192 717 c 1,2,3
 266 717 266 717 487 717 c 1,4,5
 487 695 487 695 487 629 c 1,6,7
 426 629 426 629 243 629 c 1,8,9
 226 608 226 608 174 543 c 1,10,11
 174 429 174 429 174 88 c 1,12,13
 253 88 253 88 487 88 c 1,14,15
 487 66 487 66 487 0 c 1,16,17
 408 0 408 0 173 0 c 0,18,19
 147 0 147 0 68 0 c 1,20,21
 68 97 68 97 68 386 c 0,22,23
 68 430 68 430 68 561 c 1,0,1
EndSplineSet
Validated: 1
EndChar

StartChar: D
Encoding: 68 68 39
Width: 553
GlyphClass: 1
Flags: W
LayerCount: 2
Fore
SplineSet
381 538 m 1,0,1
 363 561 363 561 309 629 c 1,2,3
 275 629 275 629 173 629 c 1,4,5
 173 596 173 596 173 494 c 0,6,7
 173 393 173 393 173 88 c 1,8,9
 207 88 207 88 309 88 c 1,10,11
 327 111 327 111 381 180 c 1,12,13
 381 270 381 270 381 538 c 1,0,1
67 717 m 1,14,15
 140 717 140 717 359 717 c 1,16,17
 391 677 391 677 487 556 c 1,18,19
 487 458 487 458 487 161 c 1,20,21
 455 121 455 121 359 0 c 1,22,23
 305 0 305 0 141 0 c 0,24,25
 122 0 122 0 67 0 c 1,26,27
 67 105 67 105 67 419 c 0,28,29
 67 493 67 493 67 717 c 1,14,15
EndSplineSet
Validated: 1
EndChar

StartChar: E
Encoding: 69 69 40
Width: 553
GlyphClass: 1
Flags: W
LayerCount: 2
Fore
SplineSet
175 543 m 1,0,1
 175 510 175 510 175 412 c 1,2,3
 253 412 253 412 487 412 c 1,4,5
 487 390 487 390 487 324 c 1,6,7
 409 324 409 324 175 324 c 1,8,9
 175 265 175 265 175 88 c 1,10,11
 253 88 253 88 487 88 c 1,12,13
 487 66 487 66 487 0 c 1,14,15
 409 0 409 0 173 0 c 0,16,17
 147 0 147 0 69 0 c 1,18,19
 69 88 69 88 69 351 c 0,20,21
 69 403 69 403 69 561 c 1,22,23
 100 600 100 600 193 717 c 1,24,25
 266 717 266 717 487 717 c 1,26,27
 487 695 487 695 487 629 c 1,28,29
 426 629 426 629 243 629 c 1,30,31
 226 608 226 608 175 543 c 1,0,1
EndSplineSet
Validated: 1
EndChar

StartChar: F
Encoding: 70 70 41
Width: 553
GlyphClass: 1
Flags: W
LayerCount: 2
Fore
SplineSet
70 0 m 1,0,1
 70 88 70 88 70 351 c 0,2,3
 70 403 70 403 70 561 c 1,4,5
 101 600 101 600 194 717 c 1,6,7
 267 717 267 717 488 717 c 1,8,9
 488 695 488 695 488 629 c 1,10,11
 427 629 427 629 244 629 c 1,12,13
 227 608 227 608 176 543 c 1,14,15
 176 510 176 510 176 412 c 1,16,17
 254 412 254 412 488 412 c 1,18,19
 488 390 488 390 488 324 c 1,20,21
 410 324 410 324 176 324 c 1,22,23
 176 243 176 243 176 0 c 1,24,25
 156 0 156 0 96 0 c 0,26,27
 90 0 90 0 70 0 c 1,0,1
EndSplineSet
Validated: 1
EndChar

StartChar: G
Encoding: 71 71 42
Width: 553
GlyphClass: 1
Flags: W
LayerCount: 2
Fore
SplineSet
174 543 m 1,0,1
 174 429 174 429 174 88 c 1,2,3
 208 88 208 88 309 88 c 1,4,5
 327 111 327 111 380 180 c 1,6,7
 380 216 380 216 380 324 c 1,8,9
 356 324 356 324 281 324 c 1,10,11
 281 346 281 346 281 412 c 1,12,13
 332 412 332 412 486 412 c 1,14,15
 486 350 486 350 486 161 c 1,16,17
 455 121 455 121 359 0 c 1,18,19
 304 0 304 0 141 0 c 0,20,21
 123 0 123 0 68 0 c 1,22,23
 68 97 68 97 68 386 c 0,24,25
 68 430 68 430 68 561 c 1,26,27
 99 600 99 600 192 717 c 1,28,29
 266 717 266 717 486 717 c 1,30,31
 486 695 486 695 486 629 c 1,32,33
 425 629 425 629 242 629 c 1,34,35
 225 608 225 608 174 543 c 1,0,1
EndSplineSet
Validated: 1
EndChar

StartChar: H
Encoding: 72 72 43
Width: 553
GlyphClass: 1
Flags: W
LayerCount: 2
Fore
SplineSet
173 1 m 1,0,1
 155 1 155 1 101 1 c 0,2,3
 93 1 93 1 67 1 c 1,4,5
 67 124 67 124 67 495 c 0,6,7
 67 551 67 551 67 718 c 1,8,9
 94 718 94 718 173 718 c 1,10,11
 173 639 173 639 173 401 c 1,12,13
 225 401 225 401 381 401 c 1,14,15
 381 481 381 481 381 718 c 1,16,17
 408 718 408 718 487 718 c 1,18,19
 487 539 487 539 487 1 c 1,20,21
 461 1 461 1 381 1 c 1,22,23
 381 79 381 79 381 313 c 1,24,25
 329 313 329 313 173 313 c 1,26,27
 173 235 173 235 173 1 c 1,0,1
EndSplineSet
Validated: 1
EndChar

StartChar: I
Encoding: 73 73 44
Width: 553
GlyphClass: 1
Flags: W
LayerCount: 2
Fore
SplineSet
488 717 m 1,0,1
 488 696 488 696 488 633 c 1,2,3
 449 633 449 633 333 633 c 1,4,5
 333 496 333 496 333 84 c 1,6,7
 372 84 372 84 488 84 c 1,8,9
 488 63 488 63 488 0 c 1,10,11
 409 0 409 0 174 0 c 0,12,13
 148 0 148 0 69 0 c 1,14,15
 69 5 69 5 69 21 c 256,16,17
 69 37 69 37 69 84 c 1,18,19
 109 84 109 84 227 84 c 1,20,21
 227 222 227 222 227 633 c 1,22,23
 187 633 187 633 69 633 c 1,24,25
 69 654 69 654 69 717 c 1,26,27
 174 717 174 717 488 717 c 1,0,1
EndSplineSet
Validated: 1
EndChar

StartChar: J
Encoding: 74 74 45
Width: 553
GlyphClass: 1
Flags: W
LayerCount: 2
Fore
SplineSet
226 633 m 1,0,1
 187 633 187 633 69 633 c 1,2,3
 69 654 69 654 69 717 c 1,4,5
 173 717 173 717 487 717 c 1,6,7
 487 696 487 696 487 633 c 1,8,9
 448 633 448 633 333 633 c 1,10,11
 333 515 333 515 333 161 c 1,12,13
 301 121 301 121 205 0 c 1,14,15
 179 0 179 0 103 0 c 0,16,17
 94 0 94 0 69 0 c 1,18,19
 69 21 69 21 69 84 c 1,20,21
 90 84 90 84 155 84 c 1,22,23
 172 108 172 108 226 180 c 1,24,25
 226 293 226 293 226 633 c 1,0,1
EndSplineSet
Validated: 1
EndChar

StartChar: K
Encoding: 75 75 46
Width: 553
GlyphClass: 1
Flags: W
LayerCount: 2
Fore
SplineSet
429 400 m 1,0,1
 429 378 429 378 429 312 c 1,2,3
 444 295 444 295 487 244 c 1,4,5
 487 183 487 183 487 0 c 1,6,7
 460 0 460 0 381 0 c 1,8,9
 381 57 381 57 381 226 c 1,10,11
 363 248 363 248 309 312 c 1,12,13
 275 312 275 312 173 312 c 1,14,15
 173 234 173 234 173 0 c 1,16,17
 153 0 153 0 94 0 c 0,18,19
 87 0 87 0 67 0 c 1,20,21
 67 135 67 135 67 538 c 0,22,23
 67 583 67 583 67 717 c 1,24,25
 93 717 93 717 173 717 c 1,26,27
 173 638 173 638 173 400 c 1,28,29
 207 400 207 400 309 400 c 1,30,31
 327 423 327 423 381 492 c 1,32,33
 381 548 381 548 381 717 c 1,34,35
 407 717 407 717 487 717 c 1,36,37
 487 656 487 656 487 473 c 1,38,39
 473 455 473 455 429 400 c 1,0,1
EndSplineSet
Validated: 1
EndChar

StartChar: L
Encoding: 76 76 47
Width: 553
GlyphClass: 1
Flags: W
LayerCount: 2
Fore
SplineSet
486 88 m 1,0,1
 486 66 486 66 486 0 c 1,2,3
 408 0 408 0 173 0 c 0,4,5
 146 0 146 0 68 0 c 1,6,7
 68 112 68 112 68 449 c 0,8,9
 68 516 68 516 68 717 c 1,10,11
 94 717 94 717 174 717 c 1,12,13
 174 560 174 560 174 88 c 1,14,15
 252 88 252 88 486 88 c 1,0,1
EndSplineSet
Validated: 1
EndChar

StartChar: M
Encoding: 77 77 48
Width: 860
GlyphClass: 1
Flags: W
LayerCount: 2
Fore
SplineSet
795 512 m 1,0,1
 795 384 795 384 795 0 c 1,2,3
 775 0 775 0 716 0 c 0,4,5
 709 0 709 0 689 0 c 1,6,7
 689 122 689 122 689 489 c 1,8,9
 662 524 662 524 580 629 c 1,10,11
 555 629 555 629 483 629 c 1,12,13
 483 472 483 472 483 0 c 1,14,15
 456 0 456 0 377 0 c 1,16,17
 377 122 377 122 377 489 c 1,18,19
 349 524 349 524 267 629 c 1,20,21
 243 629 243 629 170 629 c 1,22,23
 170 472 170 472 170 0 c 1,24,25
 144 0 144 0 64 0 c 1,26,27
 64 135 64 135 64 538 c 0,28,29
 64 583 64 583 64 717 c 1,30,31
 127 717 127 717 318 717 c 1,32,33
 332 699 332 699 377 643 c 1,34,35
 377 661 377 661 377 717 c 1,36,37
 440 717 440 717 630 717 c 1,38,39
 671 666 671 666 795 512 c 1,0,1
EndSplineSet
Validated: 1
EndChar

StartChar: N
Encoding: 78 78 49
Width: 553
GlyphClass: 1
Flags: W
LayerCount: 2
Fore
SplineSet
173 0 m 1,0,1
 153 0 153 0 94 0 c 0,2,3
 87 0 87 0 67 0 c 1,4,5
 67 135 67 135 67 538 c 0,6,7
 67 583 67 583 67 717 c 1,8,9
 94 717 94 717 173 717 c 1,10,11
 173 678 173 678 173 560 c 1,12,13
 225 495 225 495 380 298 c 1,14,15
 380 403 380 403 380 717 c 1,16,17
 406 717 406 717 486 717 c 1,18,19
 486 538 486 538 486 0 c 1,20,21
 459 0 459 0 380 0 c 1,22,23
 380 33 380 33 380 133 c 1,24,25
 328 200 328 200 173 403 c 1,26,27
 173 302 173 302 173 0 c 1,0,1
EndSplineSet
Validated: 1
EndChar

StartChar: O
Encoding: 79 79 50
Width: 614
GlyphClass: 1
Flags: W
LayerCount: 2
Fore
SplineSet
69 487 m 1,0,1
 115 544 115 544 250 717 c 1,2,3
 324 717 324 717 545 717 c 1,4,5
 545 578 545 578 545 161 c 1,6,7
 514 121 514 121 418 0 c 1,8,9
 353 0 353 0 157 0 c 0,10,11
 135 0 135 0 69 0 c 1,12,13
 69 46 69 46 69 183 c 0,14,15
 69 259 69 259 69 487 c 1,0,1
175 88 m 1,16,17
 223 88 223 88 367 88 c 1,18,19
 385 111 385 111 439 180 c 1,20,21
 439 292 439 292 439 629 c 1,22,23
 405 629 405 629 302 629 c 1,24,25
 270 590 270 590 175 470 c 1,26,27
 175 375 175 375 175 88 c 1,16,17
EndSplineSet
Validated: 1
EndChar

StartChar: P
Encoding: 80 80 51
Width: 552
GlyphClass: 1
Flags: W
LayerCount: 2
Fore
SplineSet
381 629 m 1,0,1
 329 629 329 629 173 629 c 1,2,3
 173 615 173 615 173 572 c 256,4,5
 173 529 173 529 173 400 c 1,6,7
 207 400 207 400 309 400 c 1,8,9
 327 423 327 423 381 492 c 1,10,11
 381 526 381 526 381 629 c 1,0,1
487 717 m 1,12,13
 487 656 487 656 487 473 c 1,14,15
 455 433 455 433 359 312 c 1,16,17
 313 312 313 312 173 312 c 1,18,19
 173 234 173 234 173 0 c 1,20,21
 153 0 153 0 93 0 c 0,22,23
 87 0 87 0 67 0 c 1,24,25
 67 135 67 135 67 538 c 0,26,27
 67 583 67 583 67 717 c 1,28,29
 172 717 172 717 487 717 c 1,12,13
EndSplineSet
Validated: 1
EndChar

StartChar: Q
Encoding: 81 81 52
Width: 614
GlyphClass: 1
Flags: W
LayerCount: 2
Fore
SplineSet
546 161 m 1,0,1
 531 142 531 142 485 84 c 1,2,3
 500 63 500 63 546 0 c 1,4,5
 521 0 521 0 447 0 c 1,6,7
 444 5 444 5 433 20 c 1,8,9
 430 15 430 15 418 0 c 1,10,11
 353 0 353 0 157 0 c 0,12,13
 135 0 135 0 70 0 c 1,14,15
 70 46 70 46 70 183 c 0,16,17
 70 259 70 259 70 487 c 1,18,19
 115 544 115 544 251 717 c 1,20,21
 325 717 325 717 546 717 c 1,22,23
 546 578 546 578 546 161 c 1,0,1
427 164 m 1,24,25
 430 168 430 168 440 180 c 1,26,27
 440 292 440 292 440 629 c 1,28,29
 405 629 405 629 302 629 c 1,30,31
 271 590 271 590 176 470 c 1,32,33
 176 375 176 375 176 88 c 1,34,35
 224 88 224 88 368 88 c 0,36,37
 370 91 370 91 376 99 c 1,38,39
 352 131 352 131 282 228 c 1,40,41
 306 228 306 228 380 228 c 1,42,43
 392 212 392 212 427 164 c 1,24,25
EndSplineSet
Validated: 1
EndChar

StartChar: R
Encoding: 82 82 53
Width: 553
GlyphClass: 1
Flags: W
LayerCount: 2
Fore
SplineSet
380 629 m 1,0,1
 328 629 328 629 172 629 c 1,2,3
 172 572 172 572 172 400 c 1,4,5
 207 400 207 400 309 400 c 1,6,7
 327 423 327 423 380 492 c 1,8,9
 380 526 380 526 380 629 c 1,0,1
172 0 m 1,10,11
 146 0 146 0 66 0 c 1,12,13
 66 135 66 135 66 538 c 0,14,15
 66 583 66 583 66 717 c 1,16,17
 171 717 171 717 486 717 c 1,18,19
 486 656 486 656 486 473 c 1,20,21
 472 455 472 455 429 400 c 1,22,23
 429 378 429 378 429 312 c 1,24,25
 443 295 443 295 486 244 c 1,26,27
 486 183 486 183 486 0 c 1,28,29
 467 0 467 0 407 0 c 0,30,31
 401 0 401 0 380 0 c 1,32,33
 380 57 380 57 380 226 c 1,34,35
 363 248 363 248 309 312 c 1,36,37
 275 312 275 312 172 312 c 1,38,39
 172 234 172 234 172 0 c 1,10,11
EndSplineSet
Validated: 1
EndChar

StartChar: S
Encoding: 83 83 54
Width: 553
GlyphClass: 1
Flags: W
LayerCount: 2
Fore
SplineSet
382 304 m 1,0,1
 304 304 304 304 68 304 c 1,2,3
 68 345 68 345 68 465 c 0,4,5
 68 489 68 489 68 561 c 1,6,7
 99 600 99 600 192 717 c 1,8,9
 265 717 265 717 485 717 c 1,10,11
 485 695 485 695 485 629 c 1,12,13
 424 629 424 629 242 629 c 1,14,15
 224 606 224 606 171 536 c 1,16,17
 171 500 171 500 171 392 c 1,18,19
 249 392 249 392 485 392 c 1,20,21
 485 334 485 334 485 157 c 1,22,23
 454 118 454 118 361 0 c 1,24,25
 306 0 306 0 142 0 c 0,26,27
 123 0 123 0 68 0 c 1,28,29
 68 22 68 22 68 88 c 1,30,31
 129 88 129 88 311 88 c 1,32,33
 329 112 329 112 382 183 c 1,34,35
 382 213 382 213 382 304 c 1,0,1
EndSplineSet
Validated: 1
EndChar

StartChar: T
Encoding: 84 84 55
Width: 553
GlyphClass: 1
Flags: W
LayerCount: 2
Fore
SplineSet
488 717 m 1,0,1
 488 696 488 696 488 633 c 1,2,3
 449 633 449 633 331 633 c 1,4,5
 331 475 331 475 331 0 c 1,6,7
 311 0 311 0 251 0 c 0,8,9
 245 0 245 0 225 0 c 1,10,11
 225 158 225 158 225 633 c 1,12,13
 185 633 185 633 67 633 c 1,14,15
 67 639 67 639 67 654 c 0,16,17
 67 670 67 670 67 717 c 1,18,19
 172 717 172 717 488 717 c 1,0,1
EndSplineSet
Validated: 1
EndChar

StartChar: U
Encoding: 85 85 56
Width: 553
GlyphClass: 1
Flags: W
LayerCount: 2
Fore
SplineSet
67 0 m 1,0,1
 67 123 67 123 67 494 c 0,2,3
 67 550 67 550 67 717 c 1,4,5
 94 717 94 717 173 717 c 1,6,7
 173 560 173 560 173 88 c 1,8,9
 197 88 197 88 270 88 c 1,10,11
 298 123 298 123 380 228 c 1,12,13
 380 350 380 350 380 717 c 1,14,15
 406 717 406 717 486 717 c 1,16,17
 486 538 486 538 486 0 c 1,18,19
 459 0 459 0 380 0 c 1,20,21
 380 19 380 19 380 75 c 1,22,23
 365 56 365 56 321 0 c 1,24,25
 273 0 273 0 131 0 c 0,26,27
 115 0 115 0 67 0 c 1,0,1
EndSplineSet
Validated: 1
EndChar

StartChar: V
Encoding: 86 86 57
Width: 553
GlyphClass: 1
Flags: W
LayerCount: 2
Fore
SplineSet
68 0 m 1,0,1
 68 112 68 112 68 449 c 0,2,3
 68 516 68 516 68 717 c 1,4,5
 94 717 94 717 174 717 c 1,6,7
 174 560 174 560 174 88 c 1,8,9
 198 88 198 88 271 88 c 1,10,11
 298 123 298 123 380 228 c 1,12,13
 380 350 380 350 380 717 c 1,14,15
 407 717 407 717 486 717 c 1,16,17
 486 591 486 591 486 210 c 1,18,19
 445 158 445 158 321 0 c 1,20,21
 274 0 274 0 132 0 c 0,22,23
 116 0 116 0 68 0 c 1,0,1
EndSplineSet
Validated: 1
EndChar

StartChar: W
Encoding: 87 87 58
Width: 861
GlyphClass: 1
Flags: W
LayerCount: 2
Fore
SplineSet
630 0 m 1,0,1
 566 0 566 0 377 0 c 1,2,3
 377 19 377 19 377 75 c 1,4,5
 362 56 362 56 318 0 c 1,6,7
 270 0 270 0 128 0 c 0,8,9
 112 0 112 0 64 0 c 1,10,11
 64 135 64 135 64 538 c 0,12,13
 64 583 64 583 64 717 c 1,14,15
 91 717 91 717 170 717 c 1,16,17
 170 560 170 560 170 88 c 1,18,19
 194 88 194 88 267 88 c 1,20,21
 295 123 295 123 377 228 c 1,22,23
 377 350 377 350 377 717 c 1,24,25
 403 717 403 717 483 717 c 1,26,27
 483 560 483 560 483 88 c 1,28,29
 507 88 507 88 580 88 c 1,30,31
 607 123 607 123 689 228 c 1,32,33
 689 350 689 350 689 717 c 1,34,35
 716 717 716 717 795 717 c 1,36,37
 795 589 795 589 795 205 c 1,38,39
 754 154 754 154 630 0 c 1,0,1
EndSplineSet
Validated: 1
EndChar

StartChar: X
Encoding: 88 88 59
Width: 553
GlyphClass: 1
Flags: W
LayerCount: 2
Fore
SplineSet
173 0 m 1,0,1
 146 0 146 0 67 0 c 1,2,3
 67 61 67 61 67 244 c 1,4,5
 81 261 81 261 122 312 c 1,6,7
 109 312 109 312 67 312 c 1,8,9
 67 376 67 376 67 566 c 0,10,11
 67 604 67 604 67 717 c 1,12,13
 93 717 93 717 173 717 c 1,14,15
 173 638 173 638 173 400 c 1,16,17
 207 400 207 400 309 400 c 1,18,19
 327 423 327 423 381 492 c 1,20,21
 381 548 381 548 381 717 c 1,22,23
 407 717 407 717 487 717 c 1,24,25
 487 656 487 656 487 473 c 1,26,27
 473 455 473 455 429 400 c 1,28,29
 444 400 444 400 487 400 c 1,30,31
 487 300 487 300 487 0 c 1,32,33
 467 0 467 0 408 0 c 0,34,35
 401 0 401 0 381 0 c 1,36,37
 381 78 381 78 381 312 c 1,38,39
 347 312 347 312 244 312 c 1,40,41
 227 291 227 291 173 226 c 1,42,43
 173 170 173 170 173 0 c 1,0,1
EndSplineSet
Validated: 1
EndChar

StartChar: Y
Encoding: 89 89 60
Width: 552
GlyphClass: 1
Flags: W
LayerCount: 2
Fore
SplineSet
486 717 m 1,0,1
 486 665 486 665 486 508 c 1,2,3
 444 455 444 455 321 299 c 1,4,5
 321 224 321 224 321 0 c 1,6,7
 301 0 301 0 241 0 c 0,8,9
 234 0 234 0 214 0 c 1,10,11
 214 75 214 75 214 299 c 1,12,13
 177 299 177 299 67 299 c 1,14,15
 67 338 67 338 67 456 c 0,16,17
 67 521 67 521 67 717 c 1,18,19
 94 717 94 717 173 717 c 1,20,21
 173 635 173 635 173 387 c 1,22,23
 197 387 197 387 270 387 c 1,24,25
 298 422 298 422 380 527 c 1,26,27
 380 574 380 574 380 717 c 1,28,29
 406 717 406 717 486 717 c 1,0,1
EndSplineSet
Validated: 1
EndChar

StartChar: Z
Encoding: 90 90 61
Width: 532
GlyphClass: 1
Flags: W
LayerCount: 2
Fore
SplineSet
68 255 m 1,0,1
 141 349 141 349 362 633 c 1,2,3
 289 633 289 633 68 633 c 1,4,5
 68 654 68 654 68 717 c 1,6,7
 172 717 172 717 486 717 c 1,8,9
 486 696 486 696 486 632 c 1,10,11
 408 533 408 533 172 234 c 1,12,13
 172 197 172 197 172 84 c 1,14,15
 251 84 251 84 486 84 c 1,16,17
 486 63 486 63 486 0 c 1,18,19
 408 0 408 0 172 0 c 0,20,21
 146 0 146 0 68 0 c 1,22,23
 68 16 68 16 68 64 c 0,24,25
 68 111 68 111 68 255 c 1,0,1
EndSplineSet
Validated: 1
EndChar

StartChar: bracketleft
Encoding: 91 91 62
Width: 356
GlyphClass: 1
Flags: W
LayerCount: 2
Fore
SplineSet
106 0 m 0,0,1
 50 0 50 0 32 0 c 1,2,3
 32 403 32 403 32 538 c 0,4,5
 32 672 32 672 32 717 c 1,6,7
 254 717 254 717 328 717 c 1,8,9
 328 650 328 650 328 628 c 1,10,11
 185 628 185 628 137 628 c 1,12,13
 137 224 137 224 137 89 c 1,14,15
 280 89 280 89 328 89 c 1,16,17
 328 22 328 22 328 0 c 1,18,19
 161 0 161 0 106 0 c 0,0,1
EndSplineSet
Validated: 1
EndChar

StartChar: backslash
Encoding: 92 92 63
Width: 512
GlyphClass: 1
Flags: W
LayerCount: 2
Fore
SplineSet
42 717 m 1,0,1
 370 302 370 302 479 164 c 1,2,3
 479 41 479 41 479 0 c 1,4,5
 151 425 151 425 42 566 c 1,6,7
 42 665 42 665 42 698 c 0,8,9
 42 713 42 713 42 717 c 1,0,1
EndSplineSet
Validated: 1
EndChar

StartChar: bracketright
Encoding: 93 93 64
Width: 389
GlyphClass: 1
Flags: W
LayerCount: 2
Fore
SplineSet
342 0 m 1,0,1
 176 0 176 0 121 0 c 0,2,3
 65 0 65 0 47 0 c 1,4,5
 47 67 47 67 47 89 c 1,6,7
 190 89 190 89 238 89 c 1,8,9
 238 493 238 493 238 628 c 1,10,11
 94 628 94 628 47 628 c 1,12,13
 47 678 47 678 47 695 c 0,14,15
 47 711 47 711 47 717 c 1,16,17
 269 717 269 717 342 717 c 1,18,19
 342 179 342 179 342 0 c 1,0,1
EndSplineSet
Validated: 1
EndChar

StartChar: asciicircum
Encoding: 94 94 65
Width: 532
GlyphClass: 1
Flags: W
LayerCount: 2
Fore
SplineSet
485 410 m 1,0,1
 409 410 409 410 383 410 c 1,2,3
 295 534 295 534 265 575 c 1,4,5
 176 451 176 451 147 410 c 1,6,7
 71 410 71 410 45 410 c 1,8,9
 211 640 211 640 266 717 c 1,10,11
 430 486 430 486 485 410 c 1,0,1
EndSplineSet
Validated: 1
EndChar

StartChar: underscore
Encoding: 95 95 66
Width: 573
GlyphClass: 1
Flags: W
LayerCount: 2
Fore
SplineSet
42 102 m 1,0,1
 165 102 165 102 533 102 c 1,2,3
 533 77 533 77 533 0 c 1,4,5
 441 0 441 0 165 0 c 0,6,7
 134 0 134 0 42 0 c 1,8,9
 42 26 42 26 42 102 c 1,0,1
EndSplineSet
Validated: 1
EndChar

StartChar: grave
Encoding: 96 96 67
Width: 245
GlyphClass: 1
Flags: W
LayerCount: 2
Fore
SplineSet
46 717 m 1,0,1
 66 717 66 717 126 717 c 1,2,3
 144 691 144 691 200 615 c 1,4,5
 180 615 180 615 120 615 c 1,6,7
 101 640 101 640 46 717 c 1,0,1
EndSplineSet
Validated: 1
EndChar

StartChar: a
Encoding: 97 97 68
Width: 512
GlyphClass: 1
Flags: W
LayerCount: 2
Fore
SplineSet
350 208 m 1,0,1
 303 208 303 208 161 208 c 1,2,3
 161 177 161 177 161 81 c 1,4,5
 184 81 184 81 250 81 c 1,6,7
 275 113 275 113 350 208 c 1,0,1
447 510 m 1,8,9
 447 383 447 383 447 0 c 1,10,11
 423 0 423 0 350 0 c 1,12,13
 350 17 350 17 350 68 c 1,14,15
 337 51 337 51 296 0 c 1,16,17
 253 0 253 0 122 0 c 0,18,19
 108 0 108 0 64 0 c 1,20,21
 64 44 64 44 64 178 c 0,22,23
 64 204 64 204 64 284 c 1,24,25
 136 284 136 284 350 284 c 1,26,27
 350 321 350 321 350 433 c 1,28,29
 279 433 279 433 64 433 c 1,30,31
 64 452 64 452 64 510 c 1,32,33
 160 510 160 510 447 510 c 1,8,9
EndSplineSet
Validated: 1
EndChar

StartChar: b
Encoding: 98 98 69
Width: 512
GlyphClass: 1
Flags: W
LayerCount: 2
Fore
SplineSet
160 209 m 1,0,1
 185 177 185 177 261 81 c 1,2,3
 283 81 283 81 350 81 c 1,4,5
 350 136 350 136 350 303 c 1,6,7
 325 335 325 335 249 431 c 1,8,9
 227 431 227 431 160 431 c 1,10,11
 160 417 160 417 160 376 c 0,12,13
 160 334 160 334 160 209 c 1,0,1
295 512 m 1,14,15
 333 464 333 464 447 321 c 1,16,17
 447 241 447 241 447 0 c 1,18,19
 404 0 404 0 273 0 c 0,20,21
 259 0 259 0 215 0 c 1,22,23
 201 17 201 17 160 69 c 1,24,25
 160 52 160 52 160 0 c 1,26,27
 136 0 136 0 63 0 c 1,28,29
 63 113 63 113 63 453 c 0,30,31
 63 504 63 504 63 658 c 1,32,33
 87 658 87 658 160 658 c 1,34,35
 160 622 160 622 160 512 c 1,36,37
 194 512 194 512 295 512 c 1,14,15
EndSplineSet
Validated: 1
EndChar

StartChar: c
Encoding: 99 99 70
Width: 553
GlyphClass: 1
Flags: W
LayerCount: 2
Fore
SplineSet
174 510 m 1,0,1
 254 510 254 510 494 510 c 1,2,3
 494 490 494 490 494 429 c 1,4,5
 425 429 425 429 220 429 c 1,6,7
 204 410 204 410 157 350 c 1,8,9
 157 283 157 283 157 81 c 1,10,11
 241 81 241 81 494 81 c 1,12,13
 494 61 494 61 494 0 c 1,14,15
 413 0 413 0 169 0 c 0,16,17
 142 0 142 0 60 0 c 1,18,19
 60 57 60 57 60 230 c 0,20,21
 60 264 60 264 60 367 c 1,22,23
 88 403 88 403 174 510 c 1,0,1
EndSplineSet
Validated: 1
EndChar

StartChar: d
Encoding: 100 100 71
Width: 512
GlyphClass: 1
Flags: W
LayerCount: 2
Fore
SplineSet
351 209 m 1,0,1
 351 376 351 376 351 431 c 5,2,3
 284 431 284 431 262 431 c 1,4,5
 187 335 187 335 162 303 c 1,6,7
 162 136 162 136 162 81 c 1,8,9
 229 81 229 81 251 81 c 1,10,11
 326 177 326 177 351 209 c 1,0,1
216 512 m 1,12,13
 317 512 317 512 351 512 c 1,14,15
 351 622 351 622 351 658 c 1,16,17
 424 658 424 658 448 658 c 1,18,19
 448 165 448 165 448 0 c 1,20,21
 375 0 375 0 351 0 c 1,22,23
 351 52 351 52 351 69 c 1,24,25
 310 17 310 17 297 0 c 1,26,27
 166 0 166 0 123 0 c 0,28,29
 79 0 79 0 64 0 c 1,30,31
 64 178 64 178 64 237 c 0,32,33
 64 300 64 300 64 321 c 1,34,35
 178 464 178 464 216 512 c 1,12,13
EndSplineSet
Validated: 1
EndChar

StartChar: e
Encoding: 101 101 72
Width: 553
GlyphClass: 1
Flags: W
LayerCount: 2
Fore
SplineSet
380 510 m 1,0,1
 409 474 409 474 494 367 c 1,2,3
 494 332 494 332 494 226 c 1,4,5
 410 226 410 226 157 226 c 1,6,7
 157 190 157 190 157 81 c 1,8,9
 241 81 241 81 494 81 c 1,10,11
 494 61 494 61 494 0 c 1,12,13
 413 0 413 0 169 0 c 0,14,15
 141 0 141 0 60 0 c 1,16,17
 60 75 60 75 60 298 c 0,18,19
 60 351 60 351 60 510 c 1,20,21
 140 510 140 510 380 510 c 1,0,1
431 307 m 1,22,23
 407 338 407 338 334 429 c 1,24,25
 290 429 290 429 157 429 c 1,26,27
 157 399 157 399 157 307 c 1,28,29
 225 307 225 307 431 307 c 1,22,23
EndSplineSet
Validated: 1
EndChar

StartChar: f
Encoding: 102 102 73
Width: 389
GlyphClass: 1
Flags: W
LayerCount: 2
Fore
SplineSet
155 489 m 1,0,1
 155 462 155 462 155 381 c 1,2,3
 199 381 199 381 330 381 c 1,4,5
 330 357 330 357 330 285 c 1,6,7
 286 285 286 285 155 285 c 1,8,9
 155 214 155 214 155 0 c 1,10,11
 137 0 137 0 83 0 c 0,12,13
 77 0 77 0 58 0 c 1,14,15
 58 45 58 45 58 179 c 0,16,17
 58 205 58 205 58 285 c 0,18,19
 59 342 59 342 59 513 c 1,20,21
 59 513 59 513 59 513 c 1,22,23
 88 549 88 549 174 658 c 1,24,25
 213 658 213 658 330 658 c 1,26,27
 330 638 330 638 330 576 c 1,28,29
 303 576 303 576 221 576 c 1,30,31
 204 555 204 555 155 489 c 1,0,1
EndSplineSet
Validated: 1
EndChar

StartChar: g
Encoding: 103 103 74
Width: 512
GlyphClass: 1
Flags: W
LayerCount: 2
Fore
SplineSet
351 205 m 1,0,1
 351 373 351 373 351 428 c 5,2,3
 284 428 284 428 262 428 c 1,4,5
 186 332 186 332 161 300 c 1,6,7
 161 132 161 132 161 76 c 1,8,9
 228 76 228 76 250 76 c 1,10,11
 326 173 326 173 351 205 c 1,0,1
216 510 m 1,12,13
 391 510 391 510 449 510 c 1,14,15
 449 17 449 17 449 -148 c 1,16,17
 160 -148 160 -148 64 -148 c 1,18,19
 64 -87 64 -87 64 -67 c 1,20,21
 279 -67 279 -67 351 -67 c 1,22,23
 351 32 351 32 351 65 c 1,24,25
 310 14 310 14 297 -4 c 1,26,27
 122 -4 122 -4 64 -4 c 1,28,29
 64 178 64 178 64 238 c 256,30,31
 64 298 64 298 64 319 c 1,32,33
 178 462 178 462 216 510 c 1,12,13
EndSplineSet
Validated: 1
EndChar

StartChar: h
Encoding: 104 104 75
Width: 512
GlyphClass: 1
Flags: W
LayerCount: 2
Fore
SplineSet
162 0 m 1,0,1
 144 0 144 0 89 0 c 0,2,3
 83 0 83 0 64 0 c 1,4,5
 64 96 64 96 64 384 c 0,6,7
 64 452 64 452 64 658 c 1,8,9
 89 658 89 658 162 658 c 1,10,11
 162 622 162 622 162 512 c 1,12,13
 195 512 195 512 297 512 c 1,14,15
 335 464 335 464 448 321 c 1,16,17
 448 241 448 241 448 0 c 1,18,19
 424 0 424 0 351 0 c 1,20,21
 351 76 351 76 351 303 c 1,22,23
 326 335 326 335 251 431 c 1,24,25
 228 431 228 431 162 431 c 1,26,27
 162 323 162 323 162 0 c 1,0,1
EndSplineSet
Validated: 1
EndChar

StartChar: i
Encoding: 105 105 76
Width: 225
GlyphClass: 1
Flags: W
LayerCount: 2
Fore
SplineSet
65 510 m 1,0,1
 89 510 89 510 161 510 c 1,2,3
 161 383 161 383 161 0 c 1,4,5
 143 0 143 0 89 0 c 0,6,7
 83 0 83 0 65 0 c 1,8,9
 65 75 65 75 65 298 c 0,10,11
 65 351 65 351 65 510 c 1,0,1
65 647 m 1,12,13
 89 647 89 647 161 647 c 1,14,15
 161 628 161 628 161 571 c 1,16,17
 137 571 137 571 65 571 c 1,18,19
 65 576 65 576 65 590 c 256,20,21
 65 604 65 604 65 647 c 1,12,13
EndSplineSet
Validated: 1
EndChar

StartChar: j
Encoding: 106 106 77
Width: 266
GlyphClass: 1
Flags: W
LayerCount: 2
Fore
SplineSet
112 655 m 1,0,1
 136 655 136 655 208 655 c 1,2,3
 208 636 208 636 208 579 c 1,4,5
 184 579 184 579 112 579 c 1,6,7
 112 598 112 598 112 655 c 1,0,1
115 510 m 1,8,9
 138 510 138 510 209 510 c 1,10,11
 209 382 209 382 209 -4 c 1,12,13
 180 -40 180 -40 95 -148 c 1,14,15
 57 -148 57 -148 -59 -148 c 1,16,17
 -59 -128 -59 -128 -59 -67 c 1,18,19
 -32 -67 -32 -67 49 -67 c 1,20,21
 66 -46 66 -46 115 19 c 1,22,23
 115 142 115 142 115 510 c 1,8,9
EndSplineSet
Validated: 1
EndChar

StartChar: k
Encoding: 107 107 78
Width: 410
GlyphClass: 1
Flags: W
LayerCount: 2
Fore
SplineSet
62 658 m 1,0,1
 87 658 87 658 160 658 c 1,2,3
 160 600 160 600 160 426 c 1,4,5
 180 447 180 447 241 508 c 1,6,7
 268 508 268 508 349 508 c 1,8,9
 349 489 349 489 349 431 c 1,10,11
 333 431 333 431 287 431 c 1,12,13
 255 395 255 395 160 285 c 1,14,15
 160 266 160 266 160 209 c 1,16,17
 192 177 192 177 287 81 c 1,18,19
 302 81 302 81 349 81 c 1,20,21
 349 61 349 61 349 0 c 1,22,23
 329 0 329 0 268 0 c 0,24,25
 261 0 261 0 241 0 c 1,26,27
 221 17 221 17 160 69 c 1,28,29
 160 52 160 52 160 0 c 1,30,31
 135 0 135 0 62 0 c 1,32,33
 62 113 62 113 62 453 c 0,34,35
 62 504 62 504 62 658 c 1,0,1
EndSplineSet
Validated: 1
EndChar

StartChar: l
Encoding: 108 108 79
Width: 225
GlyphClass: 1
Flags: W
LayerCount: 2
Fore
SplineSet
64 658 m 1,0,1
 88 658 88 658 161 658 c 1,2,3
 161 535 161 535 161 165 c 0,4,5
 161 123 161 123 161 0 c 1,6,7
 142 0 142 0 88 0 c 0,8,9
 82 0 82 0 64 0 c 1,10,11
 64 96 64 96 64 384 c 0,12,13
 64 452 64 452 64 658 c 1,0,1
EndSplineSet
Validated: 1
EndChar

StartChar: m
Encoding: 109 109 80
Width: 779
GlyphClass: 1
Flags: W
LayerCount: 2
Fore
SplineSet
723 510 m 1,0,1
 723 383 723 383 723 0 c 1,2,3
 699 0 699 0 626 0 c 1,4,5
 626 107 626 107 626 429 c 1,6,7
 604 429 604 429 538 429 c 1,8,9
 513 398 513 398 438 302 c 1,10,11
 438 227 438 227 438 0 c 1,12,13
 420 0 420 0 365 0 c 0,14,15
 359 0 359 0 341 0 c 1,16,17
 341 107 341 107 341 429 c 1,18,19
 319 429 319 429 252 429 c 1,20,21
 227 398 227 398 152 302 c 1,22,23
 152 227 152 227 152 0 c 1,24,25
 128 0 128 0 55 0 c 1,26,27
 55 75 55 75 55 298 c 0,28,29
 55 351 55 351 55 510 c 1,30,31
 80 510 80 510 152 510 c 1,32,33
 152 493 152 493 152 442 c 1,34,35
 166 459 166 459 206 510 c 1,36,37
 264 510 264 510 438 510 c 1,38,39
 438 493 438 493 438 442 c 1,40,41
 451 459 451 459 492 510 c 1,42,43
 550 510 550 510 723 510 c 1,0,1
EndSplineSet
Validated: 1
EndChar

StartChar: n
Encoding: 110 110 81
Width: 512
GlyphClass: 1
Flags: W
LayerCount: 2
Fore
SplineSet
447 510 m 1,0,1
 447 383 447 383 447 0 c 1,2,3
 428 0 428 0 374 0 c 0,4,5
 368 0 368 0 350 0 c 1,6,7
 350 107 350 107 350 429 c 1,8,9
 328 429 328 429 261 429 c 1,10,11
 236 398 236 398 161 302 c 1,12,13
 161 227 161 227 161 0 c 1,14,15
 137 0 137 0 64 0 c 1,16,17
 64 80 64 80 64 319 c 0,18,19
 64 367 64 367 64 510 c 1,20,21
 88 510 88 510 161 510 c 1,22,23
 161 493 161 493 161 442 c 1,24,25
 175 459 175 459 215 510 c 1,26,27
 273 510 273 510 447 510 c 1,0,1
EndSplineSet
Validated: 1
EndChar

StartChar: o
Encoding: 111 111 82
Width: 532
GlyphClass: 1
Flags: W
LayerCount: 2
Fore
SplineSet
57 307 m 1,0,1
 97 357 97 357 216 510 c 1,2,3
 281 510 281 510 476 510 c 1,4,5
 476 418 476 418 476 143 c 1,6,7
 448 107 448 107 363 0 c 1,8,9
 306 0 306 0 134 0 c 0,10,11
 115 0 115 0 57 0 c 1,12,13
 57 53 57 53 57 211 c 0,14,15
 57 235 57 235 57 307 c 1,0,1
150 78 m 1,16,17
 193 78 193 78 319 78 c 1,18,19
 335 98 335 98 382 159 c 1,20,21
 382 227 382 227 382 432 c 1,22,23
 352 432 352 432 261 432 c 1,24,25
 234 397 234 397 150 292 c 1,26,27
 150 278 150 278 150 238 c 128,-1,28
 150 198 150 198 150 78 c 1,16,17
EndSplineSet
Validated: 1
EndChar

StartChar: p
Encoding: 112 112 83
Width: 512
GlyphClass: 1
Flags: W
LayerCount: 2
Fore
SplineSet
162 207 m 1,0,1
 187 175 187 175 262 82 c 1,2,3
 284 82 284 82 351 82 c 1,4,5
 351 136 351 136 351 300 c 1,6,7
 326 333 326 333 251 429 c 1,8,9
 228 429 228 429 162 429 c 1,10,11
 162 373 162 373 162 207 c 1,0,1
162 -148 m 1,12,13
 137 -148 137 -148 63 -148 c 1,14,15
 63 -35 63 -35 63 305 c 0,16,17
 63 356 63 356 63 510 c 1,18,19
 63 510 63 510 64 509 c 1,20,21
 64 510 64 510 64 510 c 1,22,23
 122 510 122 510 297 510 c 1,24,25
 335 462 335 462 449 319 c 1,26,27
 449 239 449 239 449 0 c 1,28,29
 390 0 390 0 216 0 c 1,30,31
 202 17 202 17 162 65 c 1,32,33
 162 12 162 12 162 -148 c 1,12,13
EndSplineSet
Validated: 1
EndChar

StartChar: q
Encoding: 113 113 84
Width: 512
GlyphClass: 1
Flags: W
LayerCount: 2
Fore
SplineSet
350 63 m 1,0,1
 337 47 337 47 296 1 c 1,2,3
 237 1 237 1 62 1 c 1,4,5
 62 50 62 50 62 199 c 0,6,7
 62 228 62 228 62 317 c 1,8,9
 100 365 100 365 214 510 c 1,10,11
 273 510 273 510 448 510 c 1,12,13
 448 510 448 510 448 509 c 1,14,15
 449 509 449 509 449 510 c 1,16,17
 449 346 449 346 449 -148 c 1,18,19
 425 -148 425 -148 350 -148 c 1,20,21
 350 -95 350 -95 350 63 c 1,0,1
350 428 m 1,22,23
 328 428 328 428 261 428 c 1,24,25
 236 396 236 396 160 299 c 1,26,27
 160 285 160 285 160 245 c 0,28,29
 160 204 160 204 160 82 c 1,30,31
 182 82 182 82 249 82 c 1,32,33
 275 113 275 113 350 204 c 1,34,35
 350 260 350 260 350 428 c 1,22,23
EndSplineSet
Validated: 1
EndChar

StartChar: r
Encoding: 114 114 85
Width: 389
GlyphClass: 1
Flags: W
LayerCount: 2
Fore
SplineSet
61 510 m 1,0,1
 128 510 128 510 329 510 c 1,2,3
 329 490 329 490 329 429 c 1,4,5
 286 429 286 429 158 429 c 1,6,7
 158 322 158 322 158 0 c 1,8,9
 140 0 140 0 85 0 c 0,10,11
 79 0 79 0 61 0 c 1,12,13
 61 77 61 77 61 310 c 0,14,15
 61 360 61 360 61 510 c 1,0,1
EndSplineSet
Validated: 1
EndChar

StartChar: s
Encoding: 115 115 86
Width: 512
GlyphClass: 1
Flags: W
LayerCount: 2
Fore
SplineSet
352 215 m 1,0,1
 280 215 280 215 65 215 c 1,2,3
 65 229 65 229 65 272 c 0,4,5
 65 295 65 295 65 367 c 1,6,7
 94 402 94 402 179 510 c 1,8,9
 246 510 246 510 446 510 c 1,10,11
 446 490 446 490 446 429 c 1,12,13
 391 429 391 429 225 429 c 1,14,15
 208 408 208 408 159 344 c 1,16,17
 159 331 159 331 159 295 c 1,18,19
 231 295 231 295 446 295 c 1,20,21
 446 257 446 257 446 144 c 1,22,23
 418 108 418 108 333 0 c 1,24,25
 283 0 283 0 132 0 c 0,26,27
 115 0 115 0 65 0 c 1,28,29
 65 20 65 20 65 80 c 1,30,31
 121 80 121 80 287 80 c 1,32,33
 303 102 303 102 352 167 c 1,34,35
 352 179 352 179 352 215 c 1,0,1
EndSplineSet
Validated: 1
EndChar

StartChar: t
Encoding: 116 116 87
Width: 389
GlyphClass: 1
Flags: W
LayerCount: 2
Fore
SplineSet
328 431 m 1,0,1
 302 431 302 431 221 431 c 1,2,3
 221 323 221 323 221 0 c 1,4,5
 204 0 204 0 150 0 c 0,6,7
 144 0 144 0 126 0 c 1,8,9
 126 108 126 108 126 431 c 1,10,11
 109 431 109 431 60 431 c 1,12,13
 60 443 60 443 60 481 c 0,14,15
 60 488 60 488 60 510 c 1,16,17
 76 510 76 510 126 510 c 1,18,19
 126 547 126 547 126 658 c 1,20,21
 150 658 150 658 221 658 c 1,22,23
 221 621 221 621 221 510 c 1,24,25
 248 510 248 510 328 510 c 1,26,27
 328 490 328 490 328 431 c 1,0,1
EndSplineSet
Validated: 1
EndChar

StartChar: u
Encoding: 117 117 88
Width: 512
GlyphClass: 1
Flags: W
LayerCount: 2
Fore
SplineSet
65 0 m 1,0,1
 65 75 65 75 65 298 c 0,2,3
 65 351 65 351 65 510 c 1,4,5
 89 510 89 510 162 510 c 1,6,7
 162 403 162 403 162 81 c 1,8,9
 184 81 184 81 250 81 c 1,10,11
 275 113 275 113 350 208 c 1,12,13
 350 284 350 284 350 510 c 1,14,15
 374 510 374 510 447 510 c 1,16,17
 447 383 447 383 447 0 c 1,18,19
 423 0 423 0 350 0 c 1,20,21
 350 17 350 17 350 68 c 1,22,23
 337 51 337 51 296 0 c 1,24,25
 253 0 253 0 122 0 c 0,26,27
 108 0 108 0 65 0 c 1,0,1
EndSplineSet
Validated: 1
EndChar

StartChar: v
Encoding: 118 118 89
Width: 512
GlyphClass: 1
Flags: W
LayerCount: 2
Fore
SplineSet
64 0 m 1,0,1
 64 75 64 75 64 298 c 0,2,3
 64 351 64 351 64 510 c 1,4,5
 89 510 89 510 161 510 c 1,6,7
 161 403 161 403 161 81 c 1,8,9
 183 81 183 81 250 81 c 1,10,11
 275 113 275 113 350 208 c 1,12,13
 350 284 350 284 350 510 c 1,14,15
 374 510 374 510 447 510 c 1,16,17
 447 431 447 431 447 192 c 1,18,19
 409 144 409 144 296 0 c 1,20,21
 252 0 252 0 122 0 c 0,22,23
 108 0 108 0 64 0 c 1,0,1
EndSplineSet
Validated: 1
EndChar

StartChar: w
Encoding: 119 119 90
Width: 799
GlyphClass: 1
Flags: W
LayerCount: 2
Fore
SplineSet
66 0 m 1,0,1
 66 80 66 80 66 319 c 0,2,3
 66 367 66 367 66 510 c 1,4,5
 90 510 90 510 163 510 c 1,6,7
 163 403 163 403 163 81 c 1,8,9
 185 81 185 81 251 81 c 1,10,11
 276 113 276 113 351 208 c 1,12,13
 351 284 351 284 351 510 c 1,14,15
 376 510 376 510 448 510 c 1,16,17
 448 403 448 403 448 81 c 1,18,19
 470 81 470 81 537 81 c 1,20,21
 562 113 562 113 637 208 c 1,22,23
 637 284 637 284 637 510 c 1,24,25
 661 510 661 510 734 510 c 1,26,27
 734 383 734 383 734 0 c 1,28,29
 710 0 710 0 637 0 c 1,30,31
 637 17 637 17 637 68 c 1,32,33
 623 51 623 51 583 0 c 1,34,35
 539 0 539 0 409 0 c 0,36,37
 395 0 395 0 351 0 c 1,38,39
 351 17 351 17 351 68 c 1,40,41
 338 51 338 51 297 0 c 1,42,43
 239 0 239 0 66 0 c 1,0,1
EndSplineSet
Validated: 1
EndChar

StartChar: x
Encoding: 120 120 91
Width: 512
GlyphClass: 1
Flags: W
LayerCount: 2
Fore
SplineSet
304 510 m 1,0,1
 304 490 304 490 304 428 c 1,2,3
 318 449 318 449 358 510 c 1,4,5
 381 510 381 510 448 510 c 1,6,7
 448 491 448 491 448 433 c 1,8,9
 437 433 437 433 404 433 c 1,10,11
 379 397 379 397 304 288 c 1,12,13
 304 237 304 237 304 81 c 1,14,15
 340 81 340 81 448 81 c 1,16,17
 448 61 448 61 448 0 c 1,18,19
 403 0 403 0 268 0 c 0,20,21
 253 0 253 0 207 0 c 1,22,23
 207 20 207 20 207 81 c 1,24,25
 194 61 194 61 153 0 c 1,26,27
 131 0 131 0 63 0 c 1,28,29
 63 20 63 20 63 81 c 1,30,31
 74 81 74 81 107 81 c 1,32,33
 132 113 132 113 207 208 c 1,34,35
 207 265 207 265 207 433 c 1,36,37
 171 433 171 433 63 433 c 1,38,39
 63 453 63 453 63 510 c 1,40,41
 124 510 124 510 304 510 c 1,0,1
EndSplineSet
Validated: 1
EndChar

StartChar: y
Encoding: 121 121 92
Width: 512
GlyphClass: 1
Flags: W
LayerCount: 2
Fore
SplineSet
64 510 m 1,0,1
 88 510 88 510 161 510 c 1,2,3
 161 403 161 403 161 82 c 1,4,5
 184 82 184 82 250 82 c 1,6,7
 276 113 276 113 351 206 c 1,8,9
 351 282 351 282 351 510 c 1,10,11
 376 510 376 510 449 510 c 1,12,13
 449 346 449 346 449 -148 c 1,14,15
 353 -148 353 -148 64 -148 c 1,16,17
 64 -128 64 -128 64 -67 c 1,18,19
 136 -67 136 -67 351 -67 c 1,20,21
 351 -34 351 -34 351 65 c 1,22,23
 337 49 337 49 297 1 c 1,24,25
 239 1 239 1 64 1 c 1,26,27
 64 75 64 75 64 298 c 0,28,29
 64 351 64 351 64 510 c 1,0,1
EndSplineSet
Validated: 1
EndChar

StartChar: z
Encoding: 122 122 93
Width: 512
GlyphClass: 1
Flags: W
LayerCount: 2
Fore
SplineSet
65 77 m 1,0,1
 136 154 136 154 352 384 c 1,2,3
 352 397 352 397 352 433 c 1,4,5
 280 433 280 433 65 433 c 1,6,7
 65 438 65 438 65 453 c 0,8,9
 65 467 65 467 65 510 c 1,10,11
 160 510 160 510 447 510 c 1,12,13
 447 479 447 479 447 384 c 1,14,15
 376 308 376 308 162 77 c 1,16,17
 233 77 233 77 447 77 c 1,18,19
 447 58 447 58 447 0 c 1,20,21
 375 0 375 0 160 0 c 0,22,23
 136 0 136 0 65 0 c 1,24,25
 65 19 65 19 65 77 c 1,0,1
EndSplineSet
Validated: 1
EndChar

StartChar: braceleft
Encoding: 123 123 94
Width: 573
GlyphClass: 1
Flags: W
LayerCount: 2
Fore
SplineSet
338 628 m 1,0,1
 338 459 338 459 338 403 c 0,2,3
 338 336 338 336 338 314 c 0,4,5
 338 145 338 145 338 89 c 1,6,7
 481 89 481 89 529 89 c 1,8,9
 529 22 529 22 529 0 c 1,10,11
 362 0 362 0 307 0 c 0,12,13
 251 0 251 0 233 0 c 1,14,15
 233 235 233 235 233 314 c 1,16,17
 90 314 90 314 42 314 c 1,18,19
 42 381 42 381 42 403 c 1,20,21
 185 403 185 403 233 403 c 1,22,23
 233 638 233 638 233 717 c 1,24,25
 455 717 455 717 529 717 c 1,26,27
 529 650 529 650 529 628 c 1,28,29
 386 628 386 628 338 628 c 1,0,1
EndSplineSet
Validated: 1
EndChar

StartChar: bar
Encoding: 124 124 95
Width: 185
GlyphClass: 1
Flags: W
LayerCount: 2
Fore
SplineSet
40 778 m 1,0,1
 66 778 66 778 142 778 c 1,2,3
 142 532 142 532 142 -205 c 1,4,5
 117 -205 117 -205 40 -205 c 1,6,7
 40 -113 40 -113 40 164 c 0,8,9
 40 317 40 317 40 778 c 1,0,1
EndSplineSet
Validated: 1
EndChar

StartChar: braceright
Encoding: 125 125 96
Width: 573
GlyphClass: 1
Flags: W
LayerCount: 2
Fore
SplineSet
43 628 m 1,0,1
 43 695 43 695 43 717 c 1,2,3
 265 717 265 717 339 717 c 1,4,5
 339 481 339 481 339 403 c 1,6,7
 482 403 482 403 530 403 c 1,8,9
 530 336 530 336 530 314 c 1,10,11
 387 314 387 314 339 314 c 1,12,13
 339 78 339 78 339 0 c 1,14,15
 173 0 173 0 117 0 c 0,16,17
 62 0 62 0 43 0 c 1,18,19
 43 50 43 50 43 67 c 0,20,21
 43 83 43 83 43 89 c 1,22,23
 186 89 186 89 234 89 c 1,24,25
 234 258 234 258 234 314 c 0,26,27
 234 381 234 381 234 403 c 0,28,29
 234 572 234 572 234 628 c 1,30,31
 91 628 91 628 43 628 c 1,0,1
EndSplineSet
Validated: 1
EndChar

StartChar: asciitilde
Encoding: 126 126 97
Width: 512
GlyphClass: 1
Flags: W
LayerCount: 2
Fore
SplineSet
464 512 m 1,0,1
 400 512 400 512 206 512 c 1,2,3
 206 529 206 529 206 580 c 1,4,5
 165 580 165 580 42 580 c 1,6,7
 42 597 42 597 42 648 c 1,8,9
 107 648 107 648 300 648 c 1,10,11
 300 631 300 631 300 580 c 1,12,13
 341 580 341 580 464 580 c 1,14,15
 464 563 464 563 464 512 c 1,0,1
EndSplineSet
Validated: 1
EndChar

StartChar: exclamdown
Encoding: 161 161 98
Width: 205
GlyphClass: 1
Flags: W
LayerCount: 2
Fore
SplineSet
53 0 m 1,0,1
 53 325 53 325 53 434 c 0,2,3
 53 542 53 542 53 578 c 1,4,5
 133 578 133 578 159 578 c 1,6,7
 159 145 159 145 159 0 c 1,8,9
 100 0 100 0 80 0 c 256,10,11
 60 0 60 0 53 0 c 1,0,1
53 632 m 1,12,13
 53 696 53 696 53 717 c 1,14,15
 133 717 133 717 159 717 c 1,16,17
 159 653 159 653 159 632 c 1,18,19
 80 632 80 632 53 632 c 1,12,13
EndSplineSet
Validated: 1
EndChar

StartChar: cent
Encoding: 162 162 99
Width: 430
GlyphClass: 1
Flags: W
LayerCount: 2
Fore
SplineSet
390 519 m 1,0,1
 356 519 356 519 289 519 c 1,2,3
 289 412 289 412 289 199 c 1,4,5
 322 199 322 199 390 199 c 1,6,7
 390 175 390 175 390 126 c 1,8,9
 356 126 356 126 289 126 c 1,10,11
 289 84 289 84 289 1 c 1,12,13
 267 1 267 1 223 1 c 0,14,15
 215 1 215 1 200 1 c 1,16,17
 200 42 200 42 200 126 c 1,18,19
 147 126 147 126 40 126 c 1,20,21
 40 182 40 182 40 294 c 0,22,23
 40 350 40 350 40 461 c 1,24,25
 75 505 75 505 144 593 c 1,26,27
 162 593 162 593 200 593 c 1,28,29
 200 634 200 634 200 717 c 1,30,31
 229 717 229 717 289 717 c 1,32,33
 289 676 289 676 289 593 c 1,34,35
 322 593 322 593 390 593 c 1,36,37
 390 568 390 568 390 519 c 1,0,1
200 199 m 1,38,39
 200 306 200 306 200 519 c 1,40,41
 195 519 195 519 186 519 c 1,42,43
 167 494 167 494 129 446 c 1,44,45
 129 364 129 364 129 199 c 1,46,47
 152 199 152 199 200 199 c 1,38,39
EndSplineSet
Validated: 1
EndChar

StartChar: sterling
Encoding: 163 163 100
Width: 655
GlyphClass: 1
Flags: W
LayerCount: 2
Fore
SplineSet
364 629 m 1,0,1
 312 564 312 564 295 543 c 1,2,3
 295 543 295 543 295 413 c 1,4,-1
 295 412 l 1,5,6
 529 412 529 412 608 412 c 1,7,8
 608 346 608 346 608 324 c 1,9,10
 373 324 373 324 295 324 c 1,11,12
 295 324 295 324 295 323 c 1,13,-1
 295 88 l 1,14,15
 529 88 529 88 608 88 c 1,16,17
 608 22 608 22 608 0 c 1,18,19
 372 0 372 0 294 0 c 0,20,21
 215 0 215 0 189 0 c 1,22,23
 189 0 189 0 189 323 c 1,24,-1
 44 323 l 1,25,26
 44 391 44 391 44 413 c 1,27,28
 44 413 44 413 189 413 c 1,29,-1
 189 420 l 2,30,31
 189 526 189 526 189 561 c 1,32,33
 282 678 282 678 313 717 c 1,34,35
 534 717 534 717 608 717 c 1,36,37
 608 651 608 651 608 629 c 1,38,39
 425 629 425 629 364 629 c 1,0,1
EndSplineSet
Validated: 1
EndChar

StartChar: currency
Encoding: 164 164 101
Width: 430
GlyphClass: 1
Flags: W
LayerCount: 2
Fore
SplineSet
321 445 m 1,0,1
 321 390 321 390 321 280 c 1,2,3
 345 248 345 248 391 184 c 1,4,5
 377 184 377 184 349 184 c 1,6,7
 332 208 332 208 296 257 c 1,8,9
 242 257 242 257 132 257 c 1,10,11
 115 232 115 232 79 184 c 1,12,13
 65 184 65 184 37 184 c 1,14,15
 61 216 61 216 107 281 c 1,16,17
 107 335 107 335 107 445 c 1,18,19
 84 478 84 478 37 542 c 1,20,21
 51 542 51 542 79 542 c 1,22,23
 96 518 96 518 131 471 c 1,24,25
 186 471 186 471 298 471 c 1,26,27
 315 495 315 495 349 542 c 1,28,29
 363 542 363 542 391 542 c 1,30,31
 368 510 368 510 321 445 c 1,0,1
142 437 m 1,32,33
 142 388 142 388 142 291 c 1,34,35
 190 291 190 291 287 291 c 1,36,37
 287 340 287 340 287 437 c 1,38,39
 239 437 239 437 142 437 c 1,32,33
EndSplineSet
Validated: 1
EndChar

StartChar: yen
Encoding: 165 165 102
Width: 512
GlyphClass: 1
Flags: W
LayerCount: 2
Fore
SplineSet
301 298 m 1,0,1
 301 280 301 280 301 274 c 1,2,3
 425 274 425 274 466 274 c 1,4,5
 466 209 466 209 466 188 c 1,6,7
 342 188 342 188 301 188 c 1,8,9
 301 168 301 168 301 161 c 1,10,11
 425 161 425 161 466 161 c 1,12,13
 466 97 466 97 466 75 c 1,14,15
 342 75 342 75 301 75 c 1,16,17
 301 19 301 19 301 0 c 1,18,19
 242 0 242 0 222 0 c 128,-1,20
 202 0 202 0 195 0 c 1,21,22
 195 56 195 56 195 75 c 1,23,24
 85 75 85 75 48 75 c 1,25,26
 48 140 48 140 48 161 c 1,27,28
 158 161 158 161 195 161 c 1,29,30
 195 181 195 181 195 188 c 1,31,32
 85 188 85 188 48 188 c 1,33,34
 48 252 48 252 48 274 c 1,35,36
 158 274 158 274 195 274 c 1,37,38
 195 292 195 292 195 298 c 1,39,40
 85 298 85 298 48 298 c 1,41,42
 48 533 48 533 48 612 c 128,-1,43
 48 691 48 691 48 717 c 1,44,45
 127 717 127 717 154 717 c 1,46,47
 154 469 154 469 154 386 c 1,48,49
 227 386 227 386 251 386 c 1,50,51
 333 491 333 491 360 526 c 1,52,53
 360 669 360 669 360 717 c 1,54,55
 440 717 440 717 466 717 c 1,56,57
 466 559 466 559 466 507 c 1,58,59
 342 350 342 350 301 298 c 1,0,1
EndSplineSet
Validated: 1
EndChar

StartChar: brokenbar
Encoding: 166 166 103
Width: 163
GlyphClass: 1
Flags: W
LayerCount: 2
Fore
SplineSet
41 778 m 1,0,1
 61 778 61 778 123 778 c 1,2,3
 123 672 123 672 123 355 c 1,4,5
 102 355 102 355 41 355 c 1,6,7
 41 381 41 381 41 461 c 0,8,9
 41 540 41 540 41 778 c 1,0,1
41 205 m 1,10,11
 61 205 61 205 123 205 c 1,12,13
 123 102 123 102 123 -205 c 1,14,15
 102 -205 102 -205 41 -205 c 1,16,17
 41 -179 41 -179 41 -102 c 0,18,19
 41 -26 41 -26 41 205 c 1,10,11
EndSplineSet
Validated: 1
EndChar

StartChar: section
Encoding: 167 167 104
Width: 389
GlyphClass: 1
Flags: W
LayerCount: 2
Fore
SplineSet
171 656 m 1,0,1
 161 643 161 643 146 623 c 0,2,3
 130 602 130 602 120 590 c 1,4,5
 120 571 120 571 120 540 c 0,6,7
 120 508 120 508 120 489 c 1,8,9
 162 489 162 489 231 489 c 256,10,11
 300 489 300 489 341 489 c 1,12,13
 341 458 341 458 341 407 c 0,14,15
 341 355 341 355 341 324 c 1,16,17
 334 315 334 315 323 302 c 0,18,19
 313 289 313 289 302 275 c 1,20,21
 313 275 313 275 323 275 c 256,22,23
 333 275 333 275 341 275 c 1,24,25
 341 244 341 244 341 192 c 0,26,27
 341 141 341 141 341 110 c 1,28,29
 324 89 324 89 297 55 c 0,30,31
 270 20 270 20 254 0 c 1,32,33
 215 0 215 0 151 0 c 256,34,35
 87 0 87 0 48 0 c 1,36,37
 48 11 48 11 48 31 c 0,38,39
 48 50 48 50 48 62 c 1,40,41
 80 62 80 62 133 62 c 0,42,43
 187 62 187 62 219 62 c 1,44,45
 228 74 228 74 244 95 c 0,46,47
 259 115 259 115 269 128 c 1,48,49
 269 144 269 144 269 170 c 0,50,51
 269 197 269 197 269 213 c 1,52,53
 227 213 227 213 158 213 c 0,54,55
 90 213 90 213 48 213 c 1,56,57
 48 230 48 230 48 251 c 256,58,59
 48 272 48 272 48 296 c 0,60,61
 48 345 48 345 48 379 c 1,62,63
 56 388 56 388 66 401 c 256,64,65
 76 414 76 414 87 427 c 1,66,67
 76 427 76 427 66 427 c 0,68,69
 57 427 57 427 48 427 c 1,70,71
 48 461 48 461 48 518 c 0,72,73
 48 574 48 574 48 608 c 1,74,75
 65 628 65 628 92 663 c 0,76,77
 119 697 119 697 136 717 c 1,78,79
 174 717 174 717 238 717 c 256,80,81
 302 717 302 717 341 717 c 1,82,83
 341 706 341 706 341 687 c 0,84,85
 341 667 341 667 341 656 c 1,86,87
 309 656 309 656 256 656 c 256,88,89
 203 656 203 656 171 656 c 1,0,1
269 427 m 1,90,91
 242 427 242 427 215 427 c 0,92,93
 189 427 189 427 170 427 c 1,94,95
 161 415 161 415 145 394 c 0,96,97
 130 374 130 374 120 361 c 1,98,99
 120 342 120 342 120 319 c 0,100,101
 120 295 120 295 120 276 c 1,102,103
 147 276 147 276 174 276 c 256,104,105
 201 276 201 276 219 276 c 1,106,107
 228 288 228 288 244 309 c 0,108,109
 260 329 260 329 269 342 c 1,110,111
 269 358 269 358 269 384 c 0,112,113
 269 411 269 411 269 427 c 1,90,91
EndSplineSet
Validated: 1
EndChar

StartChar: dieresis
Encoding: 168 168 105
Width: 410
GlyphClass: 1
Flags: W
LayerCount: 2
Fore
SplineSet
46 604 m 1,0,1
 46 658 46 658 46 660 c 0,2,3
 46 661 46 661 46 665 c 0,4,5
 46 677 46 677 46 717 c 1,6,7
 67 717 67 717 102 717 c 0,8,9
 138 717 138 717 159 717 c 1,10,11
 159 663 159 663 159 660 c 0,12,13
 159 658 159 658 159 604 c 1,14,15
 138 604 138 604 102 604 c 0,16,17
 67 604 67 604 46 604 c 1,0,1
251 717 m 1,18,19
 272 717 272 717 307 717 c 256,20,21
 342 717 342 717 364 717 c 1,22,23
 364 663 364 663 364 660 c 0,24,25
 364 658 364 658 364 604 c 1,26,27
 342 604 342 604 307 604 c 256,28,29
 272 604 272 604 251 604 c 1,30,31
 251 658 251 658 251 660 c 0,32,33
 251 663 251 663 251 717 c 1,18,19
EndSplineSet
Validated: 1
EndChar

StartChar: copyright
Encoding: 169 169 106
Width: 717
GlyphClass: 1
Flags: W
LayerCount: 2
Fore
SplineSet
673 717 m 1,0,1
 673 695 673 695 673 677 c 0,2,3
 673 660 673 660 673 646 c 0,4,5
 673 603 673 603 673 585 c 0,6,7
 673 566 673 566 673 524 c 0,8,9
 673 513 673 513 673 499 c 0,10,11
 673 486 673 486 673 470 c 0,12,13
 673 444 673 444 673 409 c 256,14,15
 673 374 673 374 673 327 c 0,16,17
 673 268 673 268 673 188 c 0,18,19
 673 107 673 107 673 0 c 1,20,21
 632 0 632 0 578 0 c 256,22,23
 524 0 524 0 464 0 c 0,24,25
 353 0 353 0 238 0 c 0,26,27
 122 0 122 0 46 0 c 1,28,29
 46 47 46 47 46 109 c 0,30,31
 46 170 46 170 46 239 c 0,32,33
 46 271 46 271 46 304 c 0,34,35
 46 400 46 400 46 498 c 0,36,37
 46 630 46 630 46 717 c 1,38,39
 87 717 87 717 137 717 c 256,40,41
 187 717 187 717 242 717 c 0,42,43
 345 717 345 717 458 717 c 256,44,45
 571 717 571 717 673 717 c 1,0,1
134 70 m 1,46,47
 163 70 163 70 199 70 c 256,48,49
 235 70 235 70 276 70 c 0,50,51
 351 70 351 70 433 70 c 256,52,53
 515 70 515 70 585 70 c 1,54,55
 585 88 585 88 585 102 c 256,56,57
 585 116 585 116 585 128 c 0,58,59
 585 171 585 171 585 187 c 256,60,61
 585 203 585 203 585 269 c 0,62,63
 585 290 585 290 585 319 c 0,64,65
 585 347 585 347 585 384 c 0,66,67
 585 432 585 432 585 497 c 0,68,69
 585 561 585 561 585 648 c 1,70,71
 530 648 530 648 447 648 c 256,72,73
 364 648 364 648 284 648 c 0,74,75
 241 648 241 648 202 648 c 0,76,77
 164 648 164 648 134 648 c 1,78,79
 134 610 134 610 134 561 c 0,80,81
 134 536 134 536 134 510 c 0,82,83
 134 483 134 483 134 456 c 0,84,85
 134 353 134 353 134 247 c 256,86,87
 134 141 134 141 134 70 c 1,46,47
271 561 m 1,88,89
 302 561 302 561 350 561 c 0,90,91
 397 561 397 561 443 561 c 0,92,93
 467 561 467 561 489 561 c 256,94,95
 511 561 511 561 528 561 c 1,96,97
 528 549 528 549 528 529 c 256,98,99
 528 509 528 509 528 497 c 1,100,101
 487 497 487 497 418 497 c 256,102,103
 349 497 349 497 308 497 c 1,104,105
 299 485 299 485 283 465 c 256,106,107
 267 445 267 445 258 433 c 1,108,109
 258 393 258 393 258 325 c 0,110,111
 258 258 258 258 258 217 c 1,112,113
 291 217 291 217 341 217 c 256,114,115
 391 217 391 217 438 217 c 0,116,117
 464 217 464 217 487 217 c 0,118,119
 511 217 511 217 528 217 c 1,120,121
 528 205 528 205 528 185 c 256,122,123
 528 165 528 165 528 152 c 1,124,125
 486 152 486 152 422 152 c 256,126,127
 358 152 358 152 296 152 c 0,128,129
 263 152 263 152 233 152 c 256,130,131
 203 152 203 152 180 152 c 1,132,133
 180 172 180 172 180 197 c 256,134,135
 180 222 180 222 180 250 c 0,136,137
 180 302 180 302 180 357 c 0,138,139
 180 411 180 411 180 447 c 1,140,141
 197 468 197 468 226 504 c 0,142,143
 254 540 254 540 271 561 c 1,88,89
EndSplineSet
Validated: 1
EndChar

StartChar: ordfeminine
Encoding: 170 170 107
Width: 307
GlyphClass: 1
Flags: W
LayerCount: 2
Fore
SplineSet
205 549 m 1,0,1
 179 549 179 549 102 549 c 1,2,3
 102 532 102 532 102 479 c 1,4,5
 114 479 114 479 151 479 c 1,6,7
 164 497 164 497 205 549 c 1,0,1
260 717 m 1,8,9
 260 647 260 647 260 438 c 1,10,11
 247 438 247 438 207 438 c 1,12,13
 207 448 207 448 207 476 c 1,14,15
 200 466 200 466 178 438 c 1,16,17
 146 438 146 438 51 438 c 1,18,19
 51 463 51 463 51 535 c 0,20,21
 51 550 51 550 51 593 c 1,22,23
 90 593 90 593 207 593 c 1,24,25
 207 614 207 614 207 675 c 1,26,27
 168 675 168 675 51 675 c 1,28,29
 51 685 51 685 51 717 c 1,30,31
 103 717 103 717 260 717 c 1,8,9
EndSplineSet
Validated: 1
EndChar

StartChar: guillemotleft
Encoding: 171 171 108
Width: 492
GlyphClass: 1
Flags: W
LayerCount: 2
Fore
SplineSet
352 614 m 1,0,1
 377 614 377 614 454 614 c 1,2,3
 411 555 411 555 282 377 c 1,4,5
 325 318 325 318 454 140 c 1,6,7
 428 140 428 140 352 140 c 1,8,9
 309 200 309 200 180 377 c 1,10,11
 223 437 223 437 352 614 c 1,0,1
208 614 m 1,12,13
 234 614 234 614 311 614 c 1,14,15
 268 555 268 555 139 377 c 1,16,17
 182 318 182 318 311 140 c 1,18,19
 285 140 285 140 208 140 c 1,20,21
 165 200 165 200 36 377 c 1,22,23
 79 437 79 437 208 614 c 1,12,13
EndSplineSet
Validated: 1
EndChar

StartChar: logicalnot
Encoding: 172 172 109
Width: 471
GlyphClass: 1
Flags: W
LayerCount: 2
Fore
SplineSet
328 195 m 1,0,1
 328 244 328 244 328 299 c 256,2,3
 328 354 328 354 328 408 c 1,4,5
 254 408 254 408 174 408 c 0,6,7
 93 408 93 408 41 408 c 1,8,9
 41 427 41 427 41 459 c 256,10,11
 41 491 41 491 41 510 c 1,12,13
 99 510 99 510 143 510 c 256,14,15
 187 510 187 510 218 510 c 0,16,17
 244 510 244 510 263 510 c 256,18,19
 282 510 282 510 296 510 c 0,20,21
 352 510 352 510 360 510 c 256,22,23
 368 510 368 510 430 510 c 1,24,25
 430 405 430 405 430 195 c 1,26,27
 404 195 404 195 376 195 c 0,28,29
 347 195 347 195 328 195 c 1,0,1
EndSplineSet
Validated: 1
EndChar

StartChar: registered
Encoding: 174 174 110
Width: 716
GlyphClass: 1
Flags: W
LayerCount: 2
Fore
SplineSet
45 717 m 1,0,1
 86 717 86 717 136 717 c 256,2,3
 186 717 186 717 241 717 c 0,4,5
 344 717 344 717 457 717 c 256,6,7
 570 717 570 717 672 717 c 1,8,9
 672 695 672 695 672 677 c 0,10,11
 672 660 672 660 672 646 c 0,12,13
 672 625 672 625 672 609 c 0,14,15
 672 594 672 594 672 585 c 0,16,17
 672 566 672 566 672 524 c 0,18,19
 672 513 672 513 672 499 c 0,20,21
 672 486 672 486 672 470 c 0,22,23
 672 444 672 444 672 409 c 256,24,25
 672 374 672 374 672 327 c 0,26,27
 672 268 672 268 672 188 c 0,28,29
 672 107 672 107 672 0 c 1,30,31
 631 0 631 0 577 0 c 256,32,33
 523 0 523 0 463 0 c 0,34,35
 352 0 352 0 237 0 c 0,36,37
 121 0 121 0 45 0 c 1,38,39
 45 47 45 47 45 109 c 0,40,41
 45 170 45 170 45 239 c 0,42,43
 45 271 45 271 45 304 c 0,44,45
 45 400 45 400 45 498 c 0,46,47
 45 630 45 630 45 717 c 1,0,1
584 70 m 1,48,49
 584 88 584 88 584 102 c 256,50,51
 584 116 584 116 584 128 c 0,52,53
 584 171 584 171 584 187 c 256,54,55
 584 203 584 203 584 269 c 0,56,57
 584 290 584 290 584 319 c 0,58,59
 584 347 584 347 584 384 c 0,60,61
 584 432 584 432 584 497 c 0,62,63
 584 561 584 561 584 648 c 1,64,65
 554 648 554 648 515 648 c 0,66,67
 477 648 477 648 434 648 c 0,68,69
 354 648 354 648 271 648 c 256,70,71
 188 648 188 648 133 648 c 1,72,73
 133 610 133 610 133 561 c 0,74,75
 133 536 133 536 133 510 c 0,76,77
 133 483 133 483 133 456 c 0,78,79
 133 353 133 353 133 247 c 256,80,81
 133 141 133 141 133 70 c 1,82,83
 161 70 161 70 198 70 c 0,84,85
 234 70 234 70 274 70 c 0,86,87
 349 70 349 70 432 70 c 0,88,89
 514 70 514 70 584 70 c 1,48,49
385 326 m 1,90,91
 367 326 367 326 336 326 c 0,92,93
 306 326 306 326 287 326 c 1,94,95
 287 299 287 299 287 258 c 256,96,97
 287 217 287 217 287 177 c 0,98,99
 287 156 287 156 287 137 c 0,100,101
 287 117 287 117 287 103 c 1,102,103
 273 103 273 103 250 103 c 0,104,105
 226 103 226 103 212 103 c 1,106,107
 212 165 212 165 212 259 c 256,108,109
 212 353 212 353 212 444 c 0,110,111
 212 493 212 493 212 537 c 256,112,113
 212 581 212 581 212 615 c 1,114,115
 248 615 248 615 303 615 c 0,116,117
 359 615 359 615 412 615 c 0,118,119
 440 615 440 615 466 615 c 256,120,121
 492 615 492 615 511 615 c 1,122,123
 511 582 511 582 511 528 c 0,124,125
 511 473 511 473 511 441 c 1,126,127
 504 431 504 431 491 415 c 0,128,129
 478 398 478 398 470 389 c 1,130,131
 470 377 470 377 470 357 c 0,132,133
 470 338 470 338 470 326 c 1,134,135
 478 317 478 317 491 301 c 0,136,137
 504 286 504 286 511 277 c 1,138,139
 511 245 511 245 511 190 c 256,140,141
 511 135 511 135 511 103 c 1,142,143
 497 103 497 103 474 103 c 0,144,145
 450 103 450 103 436 103 c 1,146,147
 436 133 436 133 436 183 c 0,148,149
 436 234 436 234 436 264 c 1,150,151
 426 276 426 276 410 295 c 256,152,153
 394 314 394 314 385 326 c 1,90,91
436 552 m 1,154,155
 408 552 408 552 362 552 c 0,156,157
 315 552 315 552 287 552 c 5,158,159
 287 521 287 521 287 470 c 256,160,161
 287 419 287 419 287 389 c 1,162,163
 306 389 306 389 336 389 c 0,164,165
 367 389 367 389 385 389 c 1,166,167
 394 401 394 401 410 421 c 0,168,169
 426 442 426 442 436 454 c 1,170,171
 436 472 436 472 436 503 c 256,172,173
 436 534 436 534 436 552 c 1,154,155
EndSplineSet
Validated: 1
EndChar

StartChar: macron
Encoding: 175 175 111
Width: 491
GlyphClass: 1
Flags: W
LayerCount: 2
Fore
SplineSet
451 614 m 1,0,1
 451 590 451 590 451 580 c 256,2,3
 451 570 451 570 451 546 c 1,4,5
 425 546 425 546 389 546 c 0,6,7
 354 546 354 546 315 546 c 0,8,9
 242 546 242 546 167 546 c 256,10,11
 92 546 92 546 42 546 c 1,12,13
 42 570 42 570 42 580 c 256,14,15
 42 590 42 590 42 614 c 1,16,17
 92 614 92 614 167 614 c 256,18,19
 242 614 242 614 315 614 c 0,20,21
 354 614 354 614 389 614 c 0,22,23
 425 614 425 614 451 614 c 1,0,1
EndSplineSet
Validated: 1
EndChar

StartChar: degree
Encoding: 176 176 112
Width: 246
GlyphClass: 1
Flags: W
LayerCount: 2
Fore
SplineSet
48 510 m 1,0,1
 48 573 48 573 48 595 c 0,2,3
 48 616 48 616 48 623 c 1,4,5
 92 679 92 679 107 698 c 1,6,7
 179 698 179 698 202 698 c 1,8,9
 202 596 202 596 202 562 c 1,10,11
 171 523 171 523 161 510 c 1,12,13
 76 510 76 510 48 510 c 1,0,1
82 617 m 1,14,15
 82 558 82 558 82 539 c 1,16,17
 129 539 129 539 145 539 c 1,18,19
 162 561 162 561 168 568 c 1,20,21
 168 644 168 644 168 669 c 5,22,23
 135 669 135 669 123 669 c 1,24,25
 93 630 93 630 82 617 c 1,14,15
EndSplineSet
Validated: 1
EndChar

StartChar: plusminus
Encoding: 177 177 113
Width: 471
GlyphClass: 1
Flags: W
LayerCount: 2
Fore
SplineSet
292 295 m 1,0,1
 292 247 292 247 292 101 c 1,2,3
 327 101 327 101 432 101 c 1,4,5
 432 75 432 75 432 0 c 1,6,7
 359 0 359 0 138 0 c 0,8,9
 113 0 113 0 39 0 c 1,10,11
 39 16 39 16 39 63 c 0,12,13
 39 73 39 73 39 101 c 1,14,15
 75 101 75 101 180 101 c 1,16,17
 180 149 180 149 180 295 c 1,18,19
 145 295 145 295 39 295 c 1,20,21
 39 321 39 321 39 397 c 1,22,23
 75 397 75 397 180 397 c 1,24,25
 180 432 180 432 180 538 c 1,26,27
 208 538 208 538 292 538 c 1,28,29
 292 502 292 502 292 397 c 1,30,31
 327 397 327 397 432 397 c 1,32,33
 432 371 432 371 432 295 c 1,34,35
 397 295 397 295 292 295 c 1,0,1
EndSplineSet
Validated: 1
EndChar

StartChar: twosuperior
Encoding: 178 178 114
Width: 164
GlyphClass: 1
Flags: W
LayerCount: 2
Fore
SplineSet
121 669 m 1,0,1
 108 652 108 652 66 598 c 1,2,3
 80 598 80 598 121 598 c 1,4,5
 121 594 121 594 121 583 c 1,6,7
 102 583 102 583 43 583 c 1,8,9
 43 587 43 587 43 599 c 1,10,11
 58 617 58 617 102 673 c 1,12,13
 102 680 102 680 102 701 c 1,14,15
 87 701 87 701 43 701 c 1,16,17
 43 705 43 705 43 717 c 1,18,19
 63 717 63 717 121 717 c 1,20,21
 121 705 121 705 121 669 c 1,0,1
EndSplineSet
Validated: 1
EndChar

StartChar: threesuperior
Encoding: 179 179 115
Width: 164
GlyphClass: 1
Flags: W
LayerCount: 2
Fore
SplineSet
122 717 m 1,0,1
 122 703 122 703 122 661 c 0,2,3
 119 657 119 657 110 646 c 1,4,5
 113 642 113 642 122 630 c 1,6,7
 122 618 122 618 122 583 c 1,8,9
 103 583 103 583 44 583 c 1,10,11
 44 587 44 587 44 599 c 1,12,13
 59 599 59 599 102 599 c 1,14,15
 102 606 102 606 102 627 c 0,16,17
 99 631 99 631 90 643 c 1,18,19
 78 643 78 643 44 643 c 1,20,21
 44 647 44 647 44 660 c 1,22,23
 58 660 58 660 99 660 c 0,24,25
 100 661 100 661 102 664 c 0,26,27
 102 673 102 673 102 700 c 1,28,29
 88 700 88 700 44 700 c 1,30,31
 44 704 44 704 44 717 c 1,32,33
 64 717 64 717 122 717 c 1,0,1
EndSplineSet
Validated: 1
EndChar

StartChar: acute
Encoding: 180 180 116
Width: 245
GlyphClass: 1
Flags: W
LayerCount: 2
Fore
SplineSet
127 615 m 1,0,1
 107 615 107 615 47 615 c 1,2,3
 65 640 65 640 121 717 c 1,4,5
 141 717 141 717 201 717 c 1,6,7
 182 691 182 691 127 615 c 1,0,1
EndSplineSet
Validated: 1
EndChar

StartChar: mu
Encoding: 181 181 117
Width: 471
GlyphClass: 1
Flags: W
LayerCount: 2
Fore
SplineSet
332 209 m 1,0,1
 332 228 332 228 332 254 c 128,-1,2
 332 280 332 280 332 309 c 0,3,4
 332 362 332 362 332 418 c 0,5,6
 332 473 332 473 332 510 c 1,7,8
 350 510 350 510 380 510 c 128,-1,9
 410 510 410 510 429 510 c 1,10,11
 429 448 429 448 429 354 c 128,-1,12
 429 260 429 260 429 170 c 0,13,14
 429 121 429 121 429 77 c 128,-1,15
 429 33 429 33 429 0 c 1,16,17
 410 0 410 0 380 0 c 128,-1,18
 350 0 350 0 332 0 c 1,19,20
 332 13 332 13 332 34 c 0,21,22
 332 56 332 56 332 68 c 1,23,24
 322 56 322 56 305 34 c 0,25,26
 288 13 288 13 278 0 c 1,27,28
 253 0 253 0 217 0 c 0,29,30
 182 0 182 0 145 0 c 1,31,32
 145 -99 145 -99 145 -148 c 1,33,34
 79 -148 79 -148 46 -148 c 1,35,36
 46 -118 46 -118 46 -117 c 128,-1,37
 46 -116 46 -116 46 -67 c 0,38,39
 46 -55 46 -55 46 -39 c 0,40,41
 46 -22 46 -22 46 0 c 0,42,43
 46 39 46 39 46 90 c 0,44,45
 46 121 46 121 46 156 c 0,46,47
 46 250 46 250 46 340 c 0,48,49
 46 389 46 389 46 433 c 128,-1,50
 46 477 46 477 46 510 c 1,51,52
 64 510 64 510 95 510 c 0,53,54
 125 510 125 510 143 510 c 1,55,56
 143 482 143 482 143 445 c 128,-1,57
 143 408 143 408 143 367 c 0,58,59
 143 291 143 291 143 212 c 128,-1,60
 143 133 143 133 143 81 c 1,61,62
 160 81 160 81 187 81 c 0,63,64
 215 81 215 81 232 81 c 1,65,66
 250 105 250 105 282 145 c 0,67,68
 313 185 313 185 332 209 c 1,0,1
EndSplineSet
Validated: 1
EndChar

StartChar: paragraph
Encoding: 182 182 118
Width: 635
GlyphClass: 1
Flags: W
LayerCount: 2
Fore
SplineSet
596 0 m 1,0,1
 576 0 576 0 543 0 c 256,2,3
 510 0 510 0 490 0 c 1,4,5
 490 92 490 92 490 160 c 0,6,7
 490 229 490 229 490 279 c 0,8,9
 490 319 490 319 490 349 c 256,10,11
 490 379 490 379 490 400 c 0,12,13
 490 471 490 471 490 488 c 256,14,15
 490 505 490 505 490 551 c 0,16,17
 490 562 490 562 490 577 c 256,18,19
 490 592 490 592 490 611 c 1,20,21
 481 611 481 611 461 611 c 1,22,23
 461 561 461 561 461 505 c 0,24,25
 461 448 461 448 461 390 c 0,26,27
 461 282 461 282 461 177 c 256,28,29
 461 72 461 72 461 0 c 1,30,31
 441 0 441 0 408 0 c 256,32,33
 375 0 375 0 355 0 c 1,34,35
 355 21 355 21 355 47 c 0,36,37
 355 74 355 74 355 104 c 0,38,39
 355 160 355 160 355 217 c 256,40,41
 355 274 355 274 355 312 c 1,42,43
 320 312 320 312 262 312 c 256,44,45
 204 312 204 312 169 312 c 1,46,47
 145 343 145 343 105 393 c 256,48,49
 65 443 65 443 41 474 c 1,50,51
 41 493 41 493 41 518 c 0,52,53
 41 532 41 532 41 548 c 0,54,55
 41 593 41 593 41 636 c 0,56,57
 41 660 41 660 41 681 c 256,58,59
 41 702 41 702 41 717 c 1,60,61
 125 717 125 717 187 717 c 256,62,63
 249 717 249 717 294 717 c 0,64,65
 331 717 331 717 358 717 c 256,66,67
 385 717 385 717 405 717 c 0,68,69
 469 717 469 717 484 717 c 256,70,71
 499 717 499 717 541 717 c 0,72,73
 552 717 552 717 565 717 c 0,74,75
 579 717 579 717 596 717 c 1,76,77
 596 601 596 601 596 472 c 0,78,79
 596 342 596 342 596 225 c 0,80,81
 596 161 596 161 596 104 c 256,82,83
 596 47 596 47 596 0 c 1,0,1
EndSplineSet
Validated: 1
EndChar

StartChar: periodcentered
Encoding: 183 183 119
Width: 164
GlyphClass: 1
Flags: W
LayerCount: 2
Fore
SplineSet
45 367 m 1,0,1
 53 377 53 377 76 406 c 1,2,3
 88 406 88 406 126 406 c 1,4,5
 126 388 126 388 126 335 c 1,6,7
 121 328 121 328 104 307 c 1,8,9
 90 307 90 307 45 307 c 1,10,11
 45 322 45 322 45 367 c 1,0,1
EndSplineSet
Validated: 1
EndChar

StartChar: cedilla
Encoding: 184 184 120
Width: 205
GlyphClass: 1
Flags: W
LayerCount: 2
Fore
SplineSet
161 -65 m 1,0,1
 161 -98 161 -98 161 -195 c 1,2,3
 132 -195 132 -195 44 -195 c 1,4,5
 44 -185 44 -185 44 -158 c 1,6,7
 62 -158 62 -158 117 -158 c 1,8,9
 117 -137 117 -137 117 -73 c 1,10,11
 110 -64 110 -64 88 -37 c 1,12,13
 77 -37 77 -37 44 -37 c 1,14,15
 44 -28 44 -28 44 0 c 1,16,17
 56 0 56 0 92 0 c 0,18,19
 96 0 96 0 109 0 c 1,20,21
 122 -16 122 -16 161 -65 c 1,0,1
EndSplineSet
Validated: 1
EndChar

StartChar: onesuperior
Encoding: 185 185 121
Width: 164
GlyphClass: 1
Flags: W
LayerCount: 2
Fore
SplineSet
43 582 m 1,0,1
 43 586 43 586 43 598 c 1,2,3
 50 598 50 598 73 598 c 1,4,5
 73 621 73 621 73 691 c 1,6,7
 70 687 70 687 62 675 c 1,8,9
 57 675 57 675 43 675 c 1,10,11
 43 679 43 679 43 691 c 1,12,13
 45 691 45 691 52 691 c 1,14,15
 57 698 57 698 73 718 c 0,16,17
 78 718 78 718 93 718 c 1,18,19
 93 688 93 688 93 598 c 1,20,21
 100 598 100 598 122 598 c 1,22,23
 122 594 122 594 122 582 c 1,24,25
 102 582 102 582 43 582 c 1,0,1
EndSplineSet
Validated: 1
EndChar

StartChar: ordmasculine
Encoding: 186 186 122
Width: 246
GlyphClass: 1
Flags: W
LayerCount: 2
Fore
SplineSet
45 623 m 1,0,1
 60 642 60 642 104 698 c 1,2,3
 128 698 128 698 199 698 c 1,4,5
 199 664 199 664 199 562 c 1,6,7
 189 549 189 549 158 510 c 1,8,9
 130 510 130 510 45 510 c 1,10,11
 45 538 45 538 45 623 c 1,0,1
79 539 m 1,12,13
 95 539 95 539 142 539 c 1,14,15
 147 546 147 546 165 568 c 1,16,17
 165 594 165 594 165 669 c 1,18,19
 154 669 154 669 120 669 c 1,20,21
 110 656 110 656 79 617 c 1,22,23
 79 598 79 598 79 539 c 1,12,13
EndSplineSet
Validated: 1
EndChar

StartChar: guillemotright
Encoding: 187 187 123
Width: 492
GlyphClass: 1
Flags: W
LayerCount: 2
Fore
SplineSet
147 614 m 1,0,1
 276 437 276 437 319 377 c 1,2,3
 190 200 190 200 147 140 c 1,4,5
 70 140 70 140 45 140 c 1,6,7
 174 318 174 318 217 377 c 1,8,9
 88 555 88 555 45 614 c 1,10,11
 121 614 121 614 147 614 c 1,0,1
290 614 m 1,12,13
 419 437 419 437 462 377 c 1,14,15
 333 200 333 200 290 140 c 1,16,17
 214 140 214 140 188 140 c 1,18,19
 317 318 317 318 360 377 c 1,20,21
 231 555 231 555 188 614 c 1,22,23
 265 614 265 614 290 614 c 1,12,13
EndSplineSet
Validated: 1
EndChar

StartChar: onequarter
Encoding: 188 188 124
Width: 758
GlyphClass: 1
Flags: W
LayerCount: 2
Fore
SplineSet
151 0 m 1,0,1
 132 0 132 0 77 0 c 0,2,3
 70 0 70 0 49 0 c 1,4,5
 190 179 190 179 615 717 c 1,6,7
 637 717 637 717 705 717 c 1,8,9
 566 537 566 537 151 0 c 1,0,1
75 356 m 1,10,11
 75 367 75 367 75 398 c 1,12,13
 95 398 95 398 155 398 c 1,14,15
 155 460 155 460 155 646 c 1,16,17
 147 635 147 635 125 602 c 1,18,19
 113 602 113 602 75 602 c 1,20,21
 75 613 75 613 75 646 c 1,22,23
 82 646 82 646 100 646 c 1,24,25
 114 664 114 664 155 716 c 1,26,27
 168 716 168 716 208 716 c 1,28,29
 208 637 208 637 208 398 c 1,30,31
 227 398 227 398 285 398 c 1,32,33
 285 388 285 388 285 356 c 1,34,35
 233 356 233 356 75 356 c 1,10,11
465 361 m 1,36,37
 478 361 478 361 478 361 c 257,38,39
 478 361 478 361 517 361 c 1,40,41
 517 355 517 355 517 329 c 0,42,43
 517 302 517 302 517 274 c 0,44,45
 517 251 517 251 517 232 c 256,46,47
 517 213 517 213 517 208 c 1,48,49
 527 208 527 208 545 208 c 256,50,51
 563 208 563 208 574 208 c 1,52,53
 574 239 574 239 574 240 c 256,54,55
 574 241 574 241 574 291 c 0,56,57
 574 304 574 304 574 321 c 256,58,59
 574 338 574 338 574 361 c 1,60,61
 593 361 593 361 600 361 c 256,62,63
 607 361 607 361 626 361 c 1,64,65
 626 332 626 332 626 285 c 0,66,67
 626 237 626 237 626 208 c 1,68,69
 635 208 635 208 652 208 c 0,70,71
 668 208 668 208 678 208 c 1,72,73
 678 200 678 200 678 186 c 256,74,75
 678 172 678 172 678 164 c 1,76,77
 668 164 668 164 652 164 c 0,78,79
 635 164 635 164 626 164 c 1,80,81
 626 133 626 133 626 82 c 256,82,83
 626 31 626 31 626 0 c 1,84,85
 616 0 616 0 600 0 c 256,86,87
 584 0 584 0 574 0 c 1,88,89
 574 31 574 31 574 82 c 256,90,91
 574 133 574 133 574 164 c 1,92,93
 554 164 554 164 520 164 c 0,94,95
 485 164 485 164 465 164 c 1,96,97
 465 186 465 186 465 249 c 256,98,99
 465 312 465 312 465 361 c 1,36,37
EndSplineSet
Validated: 1
EndChar

StartChar: onehalf
Encoding: 189 189 125
Width: 758
GlyphClass: 1
Flags: W
LayerCount: 2
Fore
SplineSet
151 0 m 1,0,1
 132 0 132 0 77 0 c 0,2,3
 70 0 70 0 49 0 c 1,4,5
 190 179 190 179 615 717 c 1,6,7
 637 717 637 717 705 717 c 1,8,9
 566 537 566 537 151 0 c 1,0,1
75 356 m 1,10,11
 75 367 75 367 75 398 c 1,12,13
 95 398 95 398 155 398 c 1,14,15
 155 460 155 460 155 646 c 1,16,17
 147 635 147 635 125 602 c 1,18,19
 113 602 113 602 75 602 c 1,20,21
 75 613 75 613 75 646 c 1,22,23
 82 646 82 646 100 646 c 1,24,25
 114 664 114 664 155 716 c 1,26,27
 168 716 168 716 208 716 c 1,28,29
 208 637 208 637 208 398 c 1,30,31
 227 398 227 398 285 398 c 1,32,33
 285 388 285 388 285 356 c 1,34,35
 233 356 233 356 75 356 c 1,10,11
674 234 m 1,36,37
 637 186 637 186 525 42 c 1,38,39
 562 42 562 42 674 42 c 1,40,41
 674 31 674 31 674 -1 c 1,42,43
 636 -1 636 -1 523 -1 c 0,44,45
 508 -1 508 -1 462 -1 c 1,46,47
 462 10 462 10 462 43 c 1,48,49
 502 93 502 93 621 245 c 1,50,51
 621 264 621 264 621 321 c 1,52,53
 581 321 581 321 462 321 c 1,54,55
 462 331 462 331 462 363 c 1,56,57
 515 363 515 363 674 363 c 1,58,59
 674 331 674 331 674 234 c 1,36,37
EndSplineSet
Validated: 1
EndChar

StartChar: threequarters
Encoding: 190 190 126
Width: 758
GlyphClass: 1
Flags: W
LayerCount: 2
Fore
SplineSet
151 0 m 1,0,1
 132 0 132 0 77 0 c 0,2,3
 70 0 70 0 49 0 c 1,4,5
 190 179 190 179 615 717 c 1,6,7
 637 717 637 717 705 717 c 1,8,9
 566 537 566 537 151 0 c 1,0,1
465 164 m 1,10,11
 465 186 465 186 465 249 c 256,12,13
 465 312 465 312 465 361 c 1,14,15
 478 361 478 361 478 361 c 257,16,17
 478 361 478 361 517 361 c 1,18,19
 517 355 517 355 517 329 c 0,20,21
 517 302 517 302 517 274 c 0,22,23
 517 251 517 251 517 232 c 256,24,25
 517 213 517 213 517 208 c 1,26,27
 527 208 527 208 545 208 c 256,28,29
 563 208 563 208 574 208 c 1,30,31
 574 239 574 239 574 240 c 256,32,33
 574 241 574 241 574 291 c 0,34,35
 574 304 574 304 574 321 c 256,36,37
 574 338 574 338 574 361 c 1,38,39
 593 361 593 361 600 361 c 256,40,41
 607 361 607 361 626 361 c 1,42,43
 626 332 626 332 626 285 c 0,44,45
 626 237 626 237 626 208 c 1,46,47
 635 208 635 208 652 208 c 0,48,49
 668 208 668 208 678 208 c 1,50,51
 678 200 678 200 678 186 c 256,52,53
 678 172 678 172 678 164 c 1,54,55
 668 164 668 164 652 164 c 0,56,57
 635 164 635 164 626 164 c 1,58,59
 626 133 626 133 626 82 c 256,60,61
 626 31 626 31 626 0 c 1,62,63
 621 0 621 0 614 0 c 0,64,65
 608 0 608 0 600 0 c 0,66,67
 584 0 584 0 574 0 c 1,68,69
 574 31 574 31 574 82 c 256,70,71
 574 133 574 133 574 164 c 1,72,73
 554 164 554 164 520 164 c 0,74,75
 485 164 485 164 465 164 c 1,10,11
287 717 m 1,76,77
 287 679 287 679 287 565 c 1,78,79
 279 555 279 555 254 525 c 1,80,81
 263 515 263 515 287 484 c 1,82,83
 287 452 287 452 287 355 c 1,84,85
 234 355 234 355 76 355 c 1,86,87
 76 366 76 366 76 400 c 1,88,89
 115 400 115 400 233 400 c 1,90,91
 233 419 233 419 233 475 c 1,92,93
 225 486 225 486 199 519 c 1,94,95
 168 519 168 519 76 519 c 1,96,97
 76 530 76 530 76 563 c 1,98,99
 113 563 113 563 224 563 c 0,100,101
 227 566 227 566 233 575 c 1,102,103
 233 599 233 599 233 672 c 1,104,105
 194 672 194 672 76 672 c 1,106,107
 76 684 76 684 76 717 c 1,108,109
 129 717 129 717 287 717 c 1,76,77
EndSplineSet
Validated: 1
EndChar

StartChar: questiondown
Encoding: 191 191 127
Width: 512
GlyphClass: 1
Flags: W
LayerCount: 2
Fore
SplineSet
48 0 m 1,0,1
 48 26 48 26 48 106 c 0,2,3
 48 121 48 121 48 168 c 1,4,5
 126 250 126 250 360 494 c 1,6,7
 360 515 360 515 360 578 c 1,8,9
 387 578 387 578 466 578 c 1,10,11
 466 557 466 557 466 494 c 1,12,13
 388 413 388 413 152 168 c 1,14,15
 152 147 152 147 152 84 c 1,16,17
 204 84 204 84 360 84 c 1,18,19
 360 105 360 105 360 168 c 1,20,21
 387 168 387 168 466 168 c 1,22,23
 466 126 466 126 466 0 c 1,24,25
 388 0 388 0 152 0 c 0,26,27
 126 0 126 0 48 0 c 1,0,1
466 633 m 1,28,29
 440 633 440 633 360 633 c 1,30,31
 360 654 360 654 360 717 c 1,32,33
 387 717 387 717 466 717 c 1,34,35
 466 696 466 696 466 633 c 1,28,29
EndSplineSet
Validated: 1
EndChar

StartChar: Agrave
Encoding: 192 192 128
Width: 553
GlyphClass: 1
Flags: W
LayerCount: 2
Fore
SplineSet
380 401 m 1,0,1
 380 458 380 458 380 629 c 1,2,3
 356 629 356 629 283 629 c 1,4,5
 256 595 256 595 173 490 c 1,6,7
 173 468 173 468 173 401 c 1,8,9
 225 401 225 401 380 401 c 1,0,1
232 717 m 1,10,11
 296 717 296 717 486 717 c 1,12,13
 486 538 486 538 486 0 c 1,14,15
 466 0 466 0 407 0 c 0,16,17
 400 0 400 0 380 0 c 1,18,19
 380 78 380 78 380 312 c 1,20,21
 328 312 328 312 173 312 c 1,22,23
 173 234 173 234 173 0 c 1,24,25
 147 0 147 0 67 0 c 1,26,27
 67 79 67 79 67 317 c 0,28,29
 67 364 67 364 67 507 c 1,30,31
 109 559 109 559 232 717 c 1,10,11
230 859 m 1,32,33
 250 859 250 859 310 859 c 1,34,35
 329 833 329 833 384 757 c 1,36,37
 364 757 364 757 304 757 c 1,38,39
 286 782 286 782 230 859 c 1,32,33
EndSplineSet
Validated: 1
EndChar

StartChar: Aacute
Encoding: 193 193 129
Width: 553
GlyphClass: 1
Flags: W
LayerCount: 2
Fore
SplineSet
173 401 m 1,0,1
 328 401 328 401 380 401 c 1,2,3
 380 572 380 572 380 629 c 1,4,5
 307 629 307 629 283 629 c 5,6,7
 201 525 201 525 173 490 c 1,8,9
 173 423 173 423 173 401 c 1,0,1
67 508 m 1,10,11
 191 665 191 665 232 717 c 1,12,13
 423 717 423 717 486 717 c 1,14,15
 486 179 486 179 486 0 c 1,16,17
 406 0 406 0 380 0 c 1,18,19
 380 234 380 234 380 312 c 1,20,21
 225 312 225 312 173 312 c 1,22,23
 173 78 173 78 173 0 c 1,24,25
 114 0 114 0 94 0 c 256,26,27
 74 0 74 0 67 0 c 1,28,29
 67 286 67 286 67 381 c 256,30,31
 67 476 67 476 67 508 c 1,10,11
346 758 m 1,32,33
 325 758 325 758 265 758 c 1,34,35
 284 783 284 783 339 860 c 1,36,37
 359 860 359 860 419 860 c 1,38,39
 401 834 401 834 346 758 c 1,32,33
EndSplineSet
Validated: 1
EndChar

StartChar: Acircumflex
Encoding: 194 194 130
Width: 553
GlyphClass: 1
Flags: W
LayerCount: 2
Fore
SplineSet
380 401 m 1,0,1
 380 458 380 458 380 629 c 1,2,3
 356 629 356 629 283 629 c 1,4,5
 256 595 256 595 173 490 c 1,6,7
 173 468 173 468 173 401 c 1,8,9
 225 401 225 401 380 401 c 1,0,1
232 717 m 1,10,11
 296 717 296 717 486 717 c 1,12,13
 486 538 486 538 486 0 c 1,14,15
 466 0 466 0 407 0 c 0,16,17
 400 0 400 0 380 0 c 1,18,19
 380 78 380 78 380 312 c 1,20,21
 328 312 328 312 173 312 c 1,22,23
 173 234 173 234 173 0 c 1,24,25
 147 0 147 0 67 0 c 1,26,27
 67 79 67 79 67 317 c 0,28,29
 67 364 67 364 67 507 c 1,30,31
 109 559 109 559 232 717 c 1,10,11
304 858 m 1,32,33
 315 858 315 858 315 858 c 257,34,35
 315 858 315 858 347 858 c 1,36,37
 365 832 365 832 386 803 c 256,38,39
 407 774 407 774 420 755 c 1,40,41
 412 755 412 755 398 755 c 0,42,43
 385 755 385 755 376 755 c 1,44,45
 367 769 367 769 351 791 c 256,46,47
 335 813 335 813 326 827 c 1,48,49
 316 813 316 813 300 791 c 256,50,51
 284 769 284 769 274 755 c 1,52,53
 266 755 266 755 253 755 c 0,54,55
 239 755 239 755 231 755 c 1,56,57
 244 774 244 774 265 803 c 256,58,59
 286 832 286 832 304 858 c 1,32,33
EndSplineSet
Validated: 1
EndChar

StartChar: Atilde
Encoding: 195 195 131
Width: 553
GlyphClass: 1
Flags: W
LayerCount: 2
Fore
SplineSet
232 717 m 1,0,1
 296 717 296 717 486 717 c 1,2,3
 486 538 486 538 486 0 c 1,4,5
 466 0 466 0 407 0 c 0,6,7
 400 0 400 0 380 0 c 1,8,9
 380 78 380 78 380 312 c 1,10,11
 328 312 328 312 173 312 c 1,12,13
 173 234 173 234 173 0 c 1,14,15
 147 0 147 0 67 0 c 1,16,17
 67 79 67 79 67 317 c 0,18,19
 67 364 67 364 67 507 c 1,20,21
 109 559 109 559 232 717 c 1,0,1
380 401 m 1,22,23
 380 458 380 458 380 629 c 1,24,25
 356 629 356 629 283 629 c 1,26,27
 256 595 256 595 173 490 c 1,28,29
 173 468 173 468 173 401 c 1,30,31
 225 401 225 401 380 401 c 1,22,23
250 751 m 1,32,33
 250 790 250 790 250 804 c 1,34,35
 154 804 154 804 122 804 c 1,36,37
 122 843 122 843 122 856 c 1,38,39
 273 856 273 856 323 856 c 1,40,41
 323 817 323 817 323 804 c 1,42,43
 419 804 419 804 451 804 c 1,44,45
 451 764 451 764 451 751 c 1,46,47
 300 751 300 751 250 751 c 1,32,33
EndSplineSet
Validated: 1
EndChar

StartChar: Adieresis
Encoding: 196 196 132
Width: 553
GlyphClass: 1
Flags: W
LayerCount: 2
Fore
SplineSet
380 401 m 1,0,1
 380 458 380 458 380 629 c 1,2,3
 356 629 356 629 283 629 c 1,4,5
 256 595 256 595 173 490 c 1,6,7
 173 468 173 468 173 401 c 1,8,9
 225 401 225 401 380 401 c 1,0,1
232 717 m 1,10,11
 296 717 296 717 486 717 c 1,12,13
 486 538 486 538 486 0 c 1,14,15
 466 0 466 0 407 0 c 0,16,17
 400 0 400 0 380 0 c 1,18,19
 380 78 380 78 380 312 c 1,20,21
 328 312 328 312 173 312 c 1,22,23
 173 234 173 234 173 0 c 1,24,25
 147 0 147 0 67 0 c 1,26,27
 67 79 67 79 67 317 c 0,28,29
 67 364 67 364 67 507 c 1,30,31
 109 559 109 559 232 717 c 1,10,11
160 761 m 1,32,33
 160 807 160 807 160 809 c 256,34,35
 160 811 160 811 160 857 c 1,36,37
 178 857 178 857 208 857 c 256,38,39
 238 857 238 857 256 857 c 1,40,41
 256 811 256 811 256 809 c 256,42,43
 256 807 256 807 256 761 c 1,44,45
 238 761 238 761 208 761 c 256,46,47
 178 761 178 761 160 761 c 1,32,33
334 857 m 1,48,49
 352 857 352 857 382 857 c 256,50,51
 412 857 412 857 430 857 c 1,52,53
 430 811 430 811 430 809 c 256,54,55
 430 807 430 807 430 761 c 1,56,57
 412 761 412 761 382 761 c 256,58,59
 352 761 352 761 334 761 c 1,60,61
 334 807 334 807 334 809 c 256,62,63
 334 811 334 811 334 857 c 1,48,49
EndSplineSet
Validated: 1
EndChar

StartChar: Aring
Encoding: 197 197 133
Width: 553
GlyphClass: 1
Flags: W
LayerCount: 2
Fore
SplineSet
271 810 m 1,0,1
 280 822 280 822 308 857 c 1,2,3
 323 857 323 857 368 857 c 1,4,5
 368 836 368 836 368 772 c 1,6,7
 361 764 361 764 342 739 c 1,8,9
 324 739 324 739 271 739 c 1,10,11
 271 757 271 757 271 810 c 1,0,1
292 757 m 1,12,13
 302 757 302 757 332 757 c 1,14,15
 335 762 335 762 346 776 c 1,16,17
 346 792 346 792 346 839 c 1,18,19
 339 839 339 839 318 839 c 1,20,21
 312 831 312 831 292 807 c 1,22,23
 292 794 292 794 292 757 c 1,12,13
232 717 m 1,24,25
 296 717 296 717 486 717 c 1,26,27
 486 538 486 538 486 0 c 1,28,29
 466 0 466 0 407 0 c 0,30,31
 400 0 400 0 380 0 c 1,32,33
 380 78 380 78 380 312 c 1,34,35
 328 312 328 312 173 312 c 1,36,37
 173 234 173 234 173 0 c 1,38,39
 147 0 147 0 67 0 c 1,40,41
 67 79 67 79 67 317 c 0,42,43
 67 364 67 364 67 507 c 1,44,45
 109 559 109 559 232 717 c 1,24,25
380 401 m 1,46,47
 380 458 380 458 380 629 c 1,48,49
 356 629 356 629 283 629 c 1,50,51
 256 595 256 595 173 490 c 1,52,53
 173 468 173 468 173 401 c 1,54,55
 225 401 225 401 380 401 c 1,46,47
EndSplineSet
Validated: 1
EndChar

StartChar: AE
Encoding: 198 198 134
Width: 860
GlyphClass: 1
Flags: W
LayerCount: 2
Fore
SplineSet
230 717 m 1,0,1
 294 717 294 717 484 717 c 1,2,-1
 484 694 l 1,3,-1
 502 717 l 1,4,5
 576 717 576 717 797 717 c 1,6,7
 797 695 797 695 797 629 c 1,8,9
 736 629 736 629 553 629 c 1,10,11
 536 608 536 608 484 543 c 1,12,-1
 484 412 l 1,13,14
 562 412 562 412 797 412 c 1,15,16
 797 390 797 390 797 324 c 1,17,18
 719 324 719 324 484 324 c 1,19,-1
 484 88 l 1,20,21
 562 88 562 88 797 88 c 1,22,23
 797 66 797 66 797 0 c 1,24,-1
 484 0 l 1,25,-1
 483 0 l 1,26,-1
 404 0 l 2,27,28
 398 0 398 0 378 0 c 1,29,30
 378 78 378 78 378 312 c 1,31,32
 326 312 326 312 171 312 c 1,33,34
 171 234 171 234 171 0 c 1,35,36
 145 0 145 0 65 0 c 1,37,38
 65 80 65 80 65 318 c 0,39,40
 65 366 65 366 65 508 c 1,41,42
 106 560 106 560 230 717 c 1,0,1
378 401 m 1,43,-1
 378 561 l 1,44,-1
 378 629 l 1,45,46
 353 629 353 629 281 629 c 1,47,48
 253 595 253 595 171 490 c 1,49,50
 171 468 171 468 171 401 c 1,51,52
 223 401 223 401 378 401 c 1,43,-1
EndSplineSet
Validated: 1
EndChar

StartChar: Ccedilla
Encoding: 199 199 135
Width: 553
GlyphClass: 1
Flags: W
LayerCount: 2
Fore
SplineSet
341 -65 m 1,0,1
 341 -98 341 -98 341 -194 c 1,2,3
 312 -194 312 -194 224 -194 c 1,4,5
 224 -185 224 -185 224 -158 c 1,6,7
 243 -158 243 -158 297 -158 c 1,8,9
 297 -136 297 -136 297 -73 c 1,10,11
 290 -64 290 -64 269 -37 c 1,12,13
 257 -37 257 -37 224 -37 c 1,14,15
 224 -28 224 -28 224 0 c 1,16,-1
 173 0 l 2,17,18
 147 0 147 0 68 0 c 1,19,20
 68 97 68 97 68 386 c 0,21,22
 68 430 68 430 68 561 c 1,23,24
 99 600 99 600 192 717 c 1,25,26
 266 717 266 717 487 717 c 1,27,28
 487 695 487 695 487 629 c 1,29,30
 426 629 426 629 243 629 c 1,31,32
 226 608 226 608 174 543 c 1,33,34
 174 429 174 429 174 88 c 1,35,36
 253 88 253 88 487 88 c 1,37,38
 487 66 487 66 487 0 c 1,39,-1
 289 0 l 1,40,41
 302 -16 302 -16 341 -65 c 1,0,1
EndSplineSet
Validated: 1
EndChar

StartChar: Egrave
Encoding: 200 200 136
Width: 553
GlyphClass: 1
Flags: W
LayerCount: 2
Fore
SplineSet
173 543 m 1,0,1
 173 510 173 510 173 412 c 1,2,3
 252 412 252 412 486 412 c 1,4,5
 486 390 486 390 486 324 c 1,6,7
 408 324 408 324 173 324 c 1,8,9
 173 265 173 265 173 88 c 1,10,11
 252 88 252 88 486 88 c 1,12,13
 486 66 486 66 486 0 c 1,14,15
 407 0 407 0 172 0 c 0,16,17
 146 0 146 0 67 0 c 1,18,19
 67 88 67 88 67 351 c 0,20,21
 67 403 67 403 67 561 c 1,22,23
 98 600 98 600 191 717 c 1,24,25
 265 717 265 717 486 717 c 1,26,27
 486 695 486 695 486 629 c 1,28,29
 425 629 425 629 242 629 c 1,30,31
 225 608 225 608 173 543 c 1,0,1
230 860 m 1,32,33
 250 860 250 860 310 860 c 1,34,35
 329 834 329 834 384 758 c 1,36,37
 364 758 364 758 304 758 c 1,38,39
 286 783 286 783 230 860 c 1,32,33
EndSplineSet
Validated: 1
EndChar

StartChar: Eacute
Encoding: 201 201 137
Width: 553
GlyphClass: 1
Flags: W
LayerCount: 2
Fore
SplineSet
173 543 m 1,0,1
 173 510 173 510 173 412 c 1,2,3
 252 412 252 412 486 412 c 1,4,5
 486 390 486 390 486 324 c 1,6,7
 408 324 408 324 173 324 c 1,8,9
 173 265 173 265 173 88 c 1,10,11
 252 88 252 88 486 88 c 1,12,13
 486 66 486 66 486 0 c 1,14,15
 407 0 407 0 172 0 c 0,16,17
 146 0 146 0 67 0 c 1,18,19
 67 88 67 88 67 351 c 0,20,21
 67 403 67 403 67 561 c 1,22,23
 98 600 98 600 191 717 c 1,24,25
 265 717 265 717 486 717 c 1,26,27
 486 695 486 695 486 629 c 1,28,29
 425 629 425 629 242 629 c 1,30,31
 225 608 225 608 173 543 c 1,0,1
305 758 m 1,32,33
 285 758 285 758 225 758 c 1,34,35
 244 783 244 783 299 860 c 1,36,37
 319 860 319 860 379 860 c 1,38,39
 361 834 361 834 305 758 c 1,32,33
EndSplineSet
Validated: 1
EndChar

StartChar: Ecircumflex
Encoding: 202 202 138
Width: 553
GlyphClass: 1
Flags: W
LayerCount: 2
Fore
SplineSet
175 543 m 1,0,1
 175 510 175 510 175 412 c 1,2,3
 253 412 253 412 487 412 c 1,4,5
 487 390 487 390 487 324 c 1,6,7
 409 324 409 324 175 324 c 1,8,9
 175 265 175 265 175 88 c 1,10,11
 253 88 253 88 487 88 c 1,12,13
 487 66 487 66 487 0 c 1,14,15
 409 0 409 0 173 0 c 0,16,17
 147 0 147 0 69 0 c 1,18,19
 69 88 69 88 69 351 c 0,20,21
 69 403 69 403 69 561 c 1,22,23
 100 600 100 600 193 717 c 1,24,25
 266 717 266 717 487 717 c 1,26,27
 487 695 487 695 487 629 c 1,28,29
 426 629 426 629 243 629 c 1,30,31
 226 608 226 608 175 543 c 1,0,1
279 861 m 1,32,33
 290 861 290 861 290 861 c 257,34,35
 290 861 290 861 322 861 c 1,36,37
 340 835 340 835 361 806 c 256,38,39
 382 777 382 777 395 758 c 1,40,41
 387 758 387 758 373 758 c 256,42,43
 359 758 359 758 351 758 c 1,44,45
 342 772 342 772 326 794 c 256,46,47
 310 816 310 816 300 830 c 1,48,49
 291 816 291 816 275 794 c 256,50,51
 259 772 259 772 249 758 c 1,52,53
 241 758 241 758 227 758 c 0,54,55
 214 758 214 758 206 758 c 1,56,57
 219 777 219 777 240 806 c 256,58,59
 261 835 261 835 279 861 c 1,32,33
EndSplineSet
Validated: 1
EndChar

StartChar: Edieresis
Encoding: 203 203 139
Width: 553
GlyphClass: 1
Flags: W
LayerCount: 2
Fore
SplineSet
173 543 m 1,0,1
 173 510 173 510 173 412 c 1,2,3
 252 412 252 412 486 412 c 1,4,5
 486 390 486 390 486 324 c 1,6,7
 408 324 408 324 173 324 c 1,8,9
 173 265 173 265 173 88 c 1,10,11
 252 88 252 88 486 88 c 1,12,13
 486 66 486 66 486 0 c 1,14,15
 407 0 407 0 172 0 c 0,16,17
 146 0 146 0 67 0 c 1,18,19
 67 88 67 88 67 351 c 0,20,21
 67 403 67 403 67 561 c 1,22,23
 98 600 98 600 191 717 c 1,24,25
 265 717 265 717 486 717 c 1,26,27
 486 695 486 695 486 629 c 1,28,29
 425 629 425 629 242 629 c 1,30,31
 225 608 225 608 173 543 c 1,0,1
168 762 m 1,32,33
 168 808 168 808 168 810 c 256,34,35
 168 812 168 812 168 858 c 1,36,37
 186 858 186 858 216 858 c 256,38,39
 246 858 246 858 264 858 c 1,40,41
 264 812 264 812 264 810 c 256,42,43
 264 808 264 808 264 762 c 1,44,45
 246 762 246 762 216 762 c 256,46,47
 186 762 186 762 168 762 c 1,32,33
342 858 m 1,48,49
 360 858 360 858 390 858 c 256,50,51
 420 858 420 858 438 858 c 1,52,53
 438 812 438 812 438 810 c 256,54,55
 438 808 438 808 438 762 c 1,56,57
 420 762 420 762 390 762 c 256,58,59
 360 762 360 762 342 762 c 1,60,61
 342 808 342 808 342 810 c 256,62,63
 342 812 342 812 342 858 c 1,48,49
EndSplineSet
Validated: 1
EndChar

StartChar: Igrave
Encoding: 204 204 140
Width: 553
GlyphClass: 1
Flags: W
LayerCount: 2
Fore
SplineSet
485 717 m 1,0,1
 485 696 485 696 485 633 c 1,2,3
 447 633 447 633 331 633 c 1,4,5
 331 496 331 496 331 84 c 1,6,7
 369 84 369 84 485 84 c 1,8,9
 485 63 485 63 485 0 c 1,10,11
 407 0 407 0 171 0 c 0,12,13
 145 0 145 0 67 0 c 1,14,15
 67 21 67 21 67 84 c 1,16,17
 106 84 106 84 224 84 c 1,18,19
 224 222 224 222 224 633 c 1,20,21
 185 633 185 633 67 633 c 1,22,23
 67 654 67 654 67 717 c 1,24,25
 171 717 171 717 485 717 c 1,0,1
177 860 m 1,26,27
 197 860 197 860 257 860 c 1,28,29
 275 834 275 834 331 758 c 1,30,31
 311 758 311 758 250 758 c 1,32,33
 232 783 232 783 177 860 c 1,26,27
EndSplineSet
Validated: 1
EndChar

StartChar: Iacute
Encoding: 205 205 141
Width: 553
GlyphClass: 1
Flags: W
LayerCount: 2
Fore
SplineSet
485 717 m 1,0,1
 485 696 485 696 485 633 c 1,2,3
 447 633 447 633 331 633 c 1,4,5
 331 496 331 496 331 84 c 1,6,7
 369 84 369 84 485 84 c 1,8,9
 485 63 485 63 485 0 c 1,10,11
 407 0 407 0 171 0 c 0,12,13
 145 0 145 0 67 0 c 1,14,15
 67 21 67 21 67 84 c 1,16,17
 106 84 106 84 224 84 c 1,18,19
 224 222 224 222 224 633 c 1,20,21
 185 633 185 633 67 633 c 1,22,23
 67 654 67 654 67 717 c 1,24,25
 171 717 171 717 485 717 c 1,0,1
326 758 m 1,26,27
 306 758 306 758 246 758 c 1,28,29
 264 783 264 783 320 860 c 1,30,31
 340 860 340 860 400 860 c 1,32,33
 381 834 381 834 326 758 c 1,26,27
EndSplineSet
Validated: 1
EndChar

StartChar: Icircumflex
Encoding: 206 206 142
Width: 553
GlyphClass: 1
Flags: W
LayerCount: 2
Fore
SplineSet
488 717 m 1,0,1
 488 696 488 696 488 633 c 1,2,3
 449 633 449 633 333 633 c 1,4,5
 333 496 333 496 333 84 c 1,6,7
 372 84 372 84 488 84 c 1,8,9
 488 63 488 63 488 0 c 1,10,11
 409 0 409 0 174 0 c 0,12,13
 148 0 148 0 69 0 c 1,14,15
 69 5 69 5 69 21 c 256,16,17
 69 37 69 37 69 84 c 1,18,19
 109 84 109 84 227 84 c 1,20,21
 227 222 227 222 227 633 c 1,22,23
 187 633 187 633 69 633 c 1,24,25
 69 654 69 654 69 717 c 1,26,27
 174 717 174 717 488 717 c 1,0,1
257 861 m 1,28,29
 267 861 267 861 267 861 c 257,30,31
 267 861 267 861 300 861 c 1,32,33
 318 835 318 835 339 806 c 0,34,35
 359 777 359 777 373 758 c 1,36,37
 364 758 364 758 351 758 c 0,38,39
 337 758 337 758 329 758 c 1,40,41
 319 772 319 772 303 794 c 0,42,43
 288 816 288 816 278 830 c 1,44,45
 268 816 268 816 252 794 c 256,46,47
 236 772 236 772 227 758 c 1,48,49
 219 758 219 758 205 758 c 256,50,51
 191 758 191 758 183 758 c 1,52,53
 196 777 196 777 217 806 c 256,54,55
 238 835 238 835 257 861 c 1,28,29
EndSplineSet
Validated: 1
EndChar

StartChar: Idieresis
Encoding: 207 207 143
Width: 553
GlyphClass: 1
Flags: W
LayerCount: 2
Fore
SplineSet
485 717 m 1,0,1
 485 696 485 696 485 633 c 1,2,3
 447 633 447 633 331 633 c 1,4,5
 331 496 331 496 331 84 c 1,6,7
 369 84 369 84 485 84 c 1,8,9
 485 63 485 63 485 0 c 1,10,11
 407 0 407 0 171 0 c 0,12,13
 145 0 145 0 67 0 c 1,14,15
 67 21 67 21 67 84 c 1,16,17
 106 84 106 84 224 84 c 1,18,19
 224 222 224 222 224 633 c 1,20,21
 185 633 185 633 67 633 c 1,22,23
 67 654 67 654 67 717 c 1,24,25
 171 717 171 717 485 717 c 1,0,1
144 759 m 1,26,27
 144 804 144 804 144 807 c 0,28,29
 144 809 144 809 144 854 c 1,30,31
 162 854 162 854 192 854 c 256,32,33
 222 854 222 854 240 854 c 1,34,35
 240 809 240 809 240 807 c 0,36,37
 240 804 240 804 240 759 c 1,38,39
 222 759 222 759 192 759 c 256,40,41
 162 759 162 759 144 759 c 1,26,27
319 854 m 1,42,43
 337 854 337 854 367 854 c 256,44,45
 397 854 397 854 414 854 c 1,46,47
 414 809 414 809 414 807 c 0,48,49
 414 804 414 804 414 759 c 1,50,51
 397 759 397 759 367 759 c 256,52,53
 337 759 337 759 319 759 c 1,54,55
 319 804 319 804 319 807 c 0,56,57
 319 809 319 809 319 854 c 1,42,43
EndSplineSet
Validated: 1
EndChar

StartChar: Eth
Encoding: 208 208 144
Width: 675
GlyphClass: 1
Flags: W
LayerCount: 2
Fore
SplineSet
488 717 m 1,0,1
 530 664 530 664 615 556 c 1,2,3
 615 425 615 425 615 162 c 1,4,5
 573 108 573 108 488 1 c 1,6,7
 411 1 411 1 257 1 c 0,8,9
 237 1 237 1 196 1 c 1,10,11
 196 105 196 105 196 315 c 1,12,13
 150 315 150 315 60 315 c 1,14,15
 60 330 60 330 60 359 c 0,16,17
 60 374 60 374 60 403 c 1,18,19
 105 403 105 403 196 403 c 1,20,21
 196 508 196 508 196 717 c 1,22,23
 293 717 293 717 488 717 c 1,0,1
509 180 m 1,24,25
 509 299 509 299 509 538 c 1,26,27
 486 568 486 568 438 629 c 1,28,29
 392 629 392 629 301 629 c 1,30,31
 301 554 301 554 301 403 c 1,32,33
 347 403 347 403 437 403 c 1,34,35
 437 374 437 374 437 315 c 1,36,37
 392 315 392 315 301 315 c 1,38,39
 301 240 301 240 301 89 c 1,40,41
 347 89 347 89 438 89 c 1,42,43
 462 119 462 119 509 180 c 1,24,25
EndSplineSet
Validated: 1
EndChar

StartChar: Ntilde
Encoding: 209 209 145
Width: 553
GlyphClass: 1
Flags: W
LayerCount: 2
Fore
SplineSet
173 0 m 1,0,1
 153 0 153 0 94 0 c 0,2,3
 87 0 87 0 67 0 c 1,4,5
 67 135 67 135 67 538 c 0,6,7
 67 583 67 583 67 717 c 1,8,9
 94 717 94 717 173 717 c 1,10,11
 173 678 173 678 173 560 c 1,12,13
 225 495 225 495 380 298 c 1,14,15
 380 403 380 403 380 717 c 1,16,17
 406 717 406 717 486 717 c 1,18,19
 486 538 486 538 486 0 c 1,20,21
 459 0 459 0 380 0 c 1,22,23
 380 33 380 33 380 133 c 1,24,25
 328 200 328 200 173 403 c 1,26,27
 173 302 173 302 173 0 c 1,0,1
239 758 m 1,28,29
 239 795 239 795 239 807 c 1,30,31
 144 807 144 807 112 807 c 1,32,33
 112 845 112 845 112 857 c 1,34,35
 262 857 262 857 313 857 c 1,36,37
 313 820 313 820 313 807 c 1,38,39
 408 807 408 807 440 807 c 1,40,41
 440 770 440 770 440 758 c 1,42,43
 290 758 290 758 239 758 c 1,28,29
EndSplineSet
Validated: 1
EndChar

StartChar: Ograve
Encoding: 210 210 146
Width: 615
GlyphClass: 1
Flags: W
LayerCount: 2
Fore
SplineSet
230 860 m 1,0,1
 250 860 250 860 310 860 c 1,2,3
 329 834 329 834 384 758 c 1,4,5
 364 758 364 758 304 758 c 1,6,7
 286 783 286 783 230 860 c 1,0,1
67 487 m 1,8,9
 112 544 112 544 248 717 c 1,10,11
 322 717 322 717 543 717 c 1,12,13
 543 578 543 578 543 161 c 1,14,15
 511 121 511 121 415 0 c 1,16,17
 350 0 350 0 154 0 c 0,18,19
 132 0 132 0 67 0 c 1,20,21
 67 46 67 46 67 183 c 0,22,23
 67 259 67 259 67 487 c 1,8,9
173 88 m 1,24,25
 221 88 221 88 365 88 c 1,26,27
 383 111 383 111 437 180 c 1,28,29
 437 292 437 292 437 629 c 1,30,31
 403 629 403 629 299 629 c 1,32,33
 268 590 268 590 173 470 c 1,34,35
 173 375 173 375 173 88 c 1,24,25
EndSplineSet
Validated: 1
EndChar

StartChar: Oacute
Encoding: 211 211 147
Width: 615
GlyphClass: 1
Flags: W
LayerCount: 2
Fore
SplineSet
369 758 m 1,0,1
 349 758 349 758 289 758 c 1,2,3
 307 783 307 783 363 860 c 1,4,5
 383 860 383 860 443 860 c 1,6,7
 424 834 424 834 369 758 c 1,0,1
67 487 m 1,8,9
 112 544 112 544 248 717 c 1,10,11
 322 717 322 717 543 717 c 1,12,13
 543 578 543 578 543 161 c 1,14,15
 511 121 511 121 415 0 c 1,16,17
 350 0 350 0 154 0 c 0,18,19
 132 0 132 0 67 0 c 1,20,21
 67 46 67 46 67 183 c 0,22,23
 67 259 67 259 67 487 c 1,8,9
173 88 m 1,24,25
 221 88 221 88 365 88 c 1,26,27
 383 111 383 111 437 180 c 1,28,29
 437 292 437 292 437 629 c 1,30,31
 403 629 403 629 299 629 c 1,32,33
 268 590 268 590 173 470 c 1,34,35
 173 375 173 375 173 88 c 1,24,25
EndSplineSet
Validated: 1
EndChar

StartChar: Ocircumflex
Encoding: 212 212 148
Width: 614
GlyphClass: 1
Flags: W
LayerCount: 2
Fore
SplineSet
320 861 m 1,0,-1
 331 861 l 1,1,-1
 363 861 l 1,2,3
 381 835 381 835 402 806 c 128,-1,4
 423 777 423 777 436 758 c 1,5,6
 428 758 428 758 414 758 c 128,-1,7
 400 758 400 758 392 758 c 1,8,9
 383 772 383 772 367 794 c 128,-1,10
 351 816 351 816 341 830 c 1,11,12
 332 816 332 816 316 794 c 128,-1,13
 300 772 300 772 290 758 c 1,14,15
 282 758 282 758 268 758 c 0,16,17
 255 758 255 758 247 758 c 1,18,19
 260 777 260 777 281 806 c 128,-1,20
 302 835 302 835 320 861 c 1,0,-1
69 487 m 1,21,22
 115 544 115 544 250 717 c 1,23,24
 324 717 324 717 545 717 c 1,25,26
 545 578 545 578 545 161 c 1,27,28
 514 121 514 121 418 0 c 1,29,30
 353 0 353 0 157 0 c 0,31,32
 135 0 135 0 69 0 c 1,33,34
 69 46 69 46 69 183 c 0,35,36
 69 259 69 259 69 487 c 1,21,22
175 88 m 1,37,38
 223 88 223 88 367 88 c 1,39,40
 385 111 385 111 439 180 c 1,41,42
 439 292 439 292 439 629 c 1,43,44
 405 629 405 629 302 629 c 1,45,46
 270 590 270 590 175 470 c 1,47,48
 175 375 175 375 175 88 c 1,37,38
EndSplineSet
Validated: 1
EndChar

StartChar: Otilde
Encoding: 213 213 149
Width: 614
GlyphClass: 1
Flags: W
LayerCount: 2
Fore
SplineSet
69 487 m 1,0,1
 115 544 115 544 250 717 c 1,2,3
 324 717 324 717 545 717 c 1,4,5
 545 578 545 578 545 161 c 1,6,7
 514 121 514 121 418 0 c 1,8,9
 353 0 353 0 157 0 c 0,10,11
 135 0 135 0 69 0 c 1,12,13
 69 46 69 46 69 183 c 0,14,15
 69 259 69 259 69 487 c 1,0,1
175 88 m 1,16,17
 223 88 223 88 367 88 c 1,18,19
 385 111 385 111 439 180 c 1,20,21
 439 292 439 292 439 629 c 1,22,23
 405 629 405 629 302 629 c 1,24,25
 270 590 270 590 175 470 c 1,26,27
 175 375 175 375 175 88 c 1,16,17
292 759 m 1,28,29
 292 798 292 798 292 811 c 1,30,31
 196 811 196 811 164 811 c 1,32,33
 164 851 164 851 164 864 c 1,34,35
 315 864 315 864 365 864 c 1,36,37
 365 825 365 825 365 811 c 1,38,39
 461 811 461 811 493 811 c 1,40,41
 493 772 493 772 493 759 c 1,42,43
 342 759 342 759 292 759 c 1,28,29
EndSplineSet
Validated: 1
EndChar

StartChar: Odieresis
Encoding: 214 214 150
Width: 614
GlyphClass: 1
Flags: W
LayerCount: 2
Fore
SplineSet
355 854 m 1,0,1
 373 854 373 854 403 854 c 128,-1,2
 433 854 433 854 451 854 c 1,3,4
 451 808 451 808 451 806 c 128,-1,5
 451 804 451 804 451 758 c 1,6,7
 433 758 433 758 403 758 c 128,-1,8
 373 758 373 758 355 758 c 1,9,10
 355 804 355 804 355 806 c 128,-1,11
 355 808 355 808 355 854 c 1,0,1
180 758 m 1,12,13
 180 804 180 804 180 806 c 128,-1,14
 180 808 180 808 180 854 c 1,15,16
 198 854 198 854 228 854 c 128,-1,17
 258 854 258 854 276 854 c 1,18,19
 276 808 276 808 276 806 c 128,-1,20
 276 804 276 804 276 758 c 1,21,22
 258 758 258 758 228 758 c 128,-1,23
 198 758 198 758 180 758 c 1,12,13
69 487 m 1,24,25
 115 544 115 544 250 717 c 1,26,27
 324 717 324 717 545 717 c 1,28,29
 545 578 545 578 545 161 c 1,30,31
 514 121 514 121 418 0 c 1,32,33
 353 0 353 0 157 0 c 0,34,35
 135 0 135 0 69 0 c 1,36,37
 69 46 69 46 69 183 c 0,38,39
 69 259 69 259 69 487 c 1,24,25
175 88 m 1,40,41
 223 88 223 88 367 88 c 1,42,43
 385 111 385 111 439 180 c 1,44,45
 439 292 439 292 439 629 c 1,46,47
 405 629 405 629 302 629 c 1,48,49
 270 590 270 590 175 470 c 1,50,51
 175 375 175 375 175 88 c 1,40,41
EndSplineSet
Validated: 1
EndChar

StartChar: multiply
Encoding: 215 215 151
Width: 532
GlyphClass: 1
Flags: W
LayerCount: 2
Fore
SplineSet
42 241 m 1,0,1
 142 319 142 319 216 378 c 1,2,3
 96 470 96 470 42 512 c 1,4,5
 118 512 118 512 143 512 c 1,6,7
 209 460 209 460 264 416 c 1,8,9
 345 479 345 479 386 512 c 1,10,11
 462 512 462 512 488 512 c 1,12,13
 388 435 388 435 314 377 c 1,14,15
 434 283 434 283 488 241 c 1,16,17
 417 241 417 241 393 241 c 1,18,19
 323 295 323 295 265 340 c 1,20,21
 179 274 179 274 136 241 c 1,22,23
 65 241 65 241 42 241 c 1,0,1
EndSplineSet
Validated: 1
EndChar

StartChar: Oslash
Encoding: 216 216 152
Width: 614
GlyphClass: 1
Flags: W
LayerCount: 2
Fore
SplineSet
614 793 m 5,0,1
 614 755 614 755 614 641 c 5,2,3
 586 605 586 605 545 552 c 5,4,-1
 545 161 l 5,5,6
 514 121 514 121 418 0 c 5,7,8
 353 0 353 0 157 0 c 6,9,-1
 115 -0 l 5,10,11
 61 -70 61 -70 0 -149 c 5,12,13
 0 -77 0 -77 0 -47 c 4,14,15
 0 -31 0 -31 0 15 c 5,16,17
 28 50 28 50 69 102 c 5,18,-1
 69 183 l 6,19,20
 69 259 69 259 69 487 c 5,21,22
 115 544 115 544 250 717 c 5,23,24
 324 717 324 717 545 717 c 5,25,-1
 545 705 l 5,26,27
 578 747 578 747 614 793 c 5,0,1
437 568 m 5,28,29
 438 569 438 569 439 571 c 6,30,-1
 439 629 l 5,31,32
 405 629 405 629 302 629 c 5,33,34
 270 590 270 590 175 470 c 5,35,-1
 175 237 l 5,36,37
 281 372 281 372 437 569 c 5,38,-1
 437 568 l 5,28,29
439 414 m 5,39,40
 336 281 336 281 187 88 c 5,41,-1
 367 88 l 5,42,43
 385 111 385 111 439 180 c 5,44,-1
 439 414 l 5,39,40
EndSplineSet
Validated: 1
EndChar

StartChar: Ugrave
Encoding: 217 217 153
Width: 553
GlyphClass: 1
Flags: W
LayerCount: 2
Fore
SplineSet
68 0 m 1,0,1
 68 105 68 105 68 419 c 0,2,3
 68 493 68 493 68 717 c 1,4,5
 95 717 95 717 174 717 c 1,6,7
 174 560 174 560 174 88 c 1,8,9
 198 88 198 88 271 88 c 1,10,11
 299 123 299 123 381 228 c 1,12,13
 381 350 381 350 381 717 c 1,14,15
 407 717 407 717 487 717 c 1,16,17
 487 538 487 538 487 0 c 1,18,19
 460 0 460 0 381 0 c 1,20,21
 381 19 381 19 381 75 c 1,22,23
 366 56 366 56 322 0 c 1,24,25
 274 0 274 0 132 0 c 0,26,27
 116 0 116 0 68 0 c 1,0,1
213 860 m 1,28,29
 233 860 233 860 293 860 c 1,30,31
 311 834 311 834 367 758 c 1,32,33
 347 758 347 758 287 758 c 1,34,35
 268 783 268 783 213 860 c 1,28,29
EndSplineSet
Validated: 1
EndChar

StartChar: Uacute
Encoding: 218 218 154
Width: 553
GlyphClass: 1
Flags: W
LayerCount: 2
Fore
SplineSet
68 0 m 1,0,1
 68 105 68 105 68 419 c 0,2,3
 68 493 68 493 68 717 c 1,4,5
 95 717 95 717 174 717 c 1,6,7
 174 560 174 560 174 88 c 1,8,9
 198 88 198 88 271 88 c 1,10,11
 299 123 299 123 381 228 c 1,12,13
 381 350 381 350 381 717 c 1,14,15
 407 717 407 717 487 717 c 1,16,17
 487 538 487 538 487 0 c 1,18,19
 460 0 460 0 381 0 c 1,20,21
 381 19 381 19 381 75 c 1,22,23
 366 56 366 56 322 0 c 1,24,25
 274 0 274 0 132 0 c 0,26,27
 116 0 116 0 68 0 c 1,0,1
293 758 m 1,28,29
 273 758 273 758 213 758 c 1,30,31
 231 783 231 783 287 860 c 1,32,33
 307 860 307 860 367 860 c 1,34,35
 348 834 348 834 293 758 c 1,28,29
EndSplineSet
Validated: 1
EndChar

StartChar: Ucircumflex
Encoding: 219 219 155
Width: 553
GlyphClass: 1
Flags: W
LayerCount: 2
Fore
SplineSet
67 0 m 1,0,1
 67 123 67 123 67 494 c 0,2,3
 67 550 67 550 67 717 c 1,4,5
 94 717 94 717 173 717 c 1,6,7
 173 560 173 560 173 88 c 1,8,9
 197 88 197 88 270 88 c 1,10,11
 298 123 298 123 380 228 c 1,12,13
 380 350 380 350 380 717 c 1,14,15
 406 717 406 717 486 717 c 1,16,17
 486 538 486 538 486 0 c 1,18,19
 459 0 459 0 380 0 c 1,20,21
 380 19 380 19 380 75 c 1,22,23
 365 56 365 56 321 0 c 1,24,25
 273 0 273 0 131 0 c 0,26,27
 115 0 115 0 67 0 c 1,0,1
255 861 m 1,28,29
 265 861 265 861 265 861 c 257,30,31
 265 861 265 861 298 861 c 1,32,33
 316 835 316 835 337 806 c 0,34,35
 357 777 357 777 371 758 c 1,36,37
 363 758 363 758 349 758 c 256,38,39
 335 758 335 758 327 758 c 1,40,41
 317 772 317 772 302 794 c 0,42,43
 286 816 286 816 276 830 c 1,44,45
 267 816 267 816 251 794 c 256,46,47
 235 772 235 772 225 758 c 1,48,49
 217 758 217 758 203 758 c 256,50,51
 189 758 189 758 181 758 c 1,52,53
 195 777 195 777 216 806 c 0,54,55
 236 835 236 835 255 861 c 1,28,29
EndSplineSet
Validated: 1
EndChar

StartChar: Udieresis
Encoding: 220 220 156
Width: 553
GlyphClass: 1
Flags: W
LayerCount: 2
Fore
SplineSet
67 0 m 1,0,1
 67 123 67 123 67 494 c 0,2,3
 67 550 67 550 67 717 c 1,4,5
 94 717 94 717 173 717 c 1,6,7
 173 560 173 560 173 88 c 1,8,9
 197 88 197 88 270 88 c 1,10,11
 298 123 298 123 380 228 c 1,12,13
 380 350 380 350 380 717 c 1,14,15
 406 717 406 717 486 717 c 1,16,17
 486 538 486 538 486 0 c 1,18,19
 459 0 459 0 380 0 c 1,20,21
 380 19 380 19 380 75 c 1,22,23
 365 56 365 56 321 0 c 1,24,25
 273 0 273 0 131 0 c 0,26,27
 115 0 115 0 67 0 c 1,0,1
136 758 m 1,28,29
 136 803 136 803 136 806 c 0,30,31
 136 808 136 808 136 853 c 1,32,33
 154 853 154 853 184 853 c 0,34,35
 213 853 213 853 231 853 c 1,36,37
 231 808 231 808 231 806 c 0,38,39
 231 803 231 803 231 758 c 1,40,41
 213 758 213 758 184 758 c 0,42,43
 154 758 154 758 136 758 c 1,28,29
310 853 m 1,44,45
 328 853 328 853 358 853 c 256,46,47
 388 853 388 853 406 853 c 1,48,49
 406 808 406 808 406 806 c 0,50,51
 406 803 406 803 406 758 c 1,52,53
 388 758 388 758 358 758 c 256,54,55
 328 758 328 758 310 758 c 1,56,57
 310 803 310 803 310 806 c 0,58,59
 310 808 310 808 310 853 c 1,44,45
EndSplineSet
Validated: 1
EndChar

StartChar: Yacute
Encoding: 221 221 157
Width: 552
GlyphClass: 1
Flags: W
LayerCount: 2
Fore
SplineSet
486 717 m 1,0,1
 486 665 486 665 486 508 c 1,2,3
 444 455 444 455 321 299 c 1,4,5
 321 224 321 224 321 0 c 1,6,7
 301 0 301 0 241 0 c 0,8,9
 234 0 234 0 214 0 c 1,10,11
 214 75 214 75 214 299 c 1,12,13
 177 299 177 299 67 299 c 1,14,15
 67 338 67 338 67 456 c 0,16,17
 67 521 67 521 67 717 c 1,18,19
 94 717 94 717 173 717 c 1,20,21
 173 635 173 635 173 387 c 1,22,23
 197 387 197 387 270 387 c 1,24,25
 298 422 298 422 380 527 c 1,26,27
 380 574 380 574 380 717 c 1,28,29
 406 717 406 717 486 717 c 1,0,1
285 759 m 1,30,31
 265 759 265 759 205 759 c 1,32,33
 224 784 224 784 279 860 c 1,34,35
 299 860 299 860 359 860 c 1,36,37
 341 835 341 835 285 759 c 1,30,31
EndSplineSet
Validated: 1
EndChar

StartChar: Thorn
Encoding: 222 222 158
Width: 553
GlyphClass: 1
Flags: W
LayerCount: 2
Fore
SplineSet
67 717 m 1,0,1
 102 717 102 717 173 717 c 1,2,3
 173 666 173 666 173 564 c 1,4,5
 277 564 277 564 487 564 c 1,6,7
 487 483 487 483 487 320 c 1,8,9
 444 266 444 266 359 159 c 1,10,11
 297 159 297 159 173 159 c 1,12,13
 173 106 173 106 173 1 c 1,14,15
 147 1 147 1 94 1 c 0,16,17
 85 1 85 1 67 1 c 1,18,19
 67 155 67 155 67 463 c 0,20,21
 67 548 67 548 67 717 c 1,0,1
381 338 m 1,22,23
 381 384 381 384 381 476 c 1,24,25
 311 476 311 476 173 476 c 1,26,27
 173 399 173 399 173 247 c 1,28,29
 218 247 218 247 309 247 c 1,30,31
 333 278 333 278 381 338 c 1,22,23
EndSplineSet
Validated: 1
EndChar

StartChar: germandbls
Encoding: 223 223 159
Width: 553
GlyphClass: 1
Flags: W
LayerCount: 2
Fore
SplineSet
173 0 m 1,0,1
 142 0 142 0 115 0 c 0,2,3
 87 0 87 0 66 0 c 1,4,5
 66 107 66 107 66 188 c 0,6,7
 66 268 66 268 66 327 c 0,8,9
 66 374 66 374 66 409 c 128,-1,10
 66 444 66 444 66 470 c 0,11,12
 66 486 66 486 66 499 c 0,13,14
 66 513 66 513 66 524 c 0,15,16
 66 556 66 556 66 575 c 0,17,18
 66 580 66 580 66 585 c 0,19,20
 66 603 66 603 66 646 c 0,21,22
 66 660 66 660 66 677 c 0,23,24
 66 695 66 695 66 717 c 1,25,26
 206 717 206 717 486 717 c 1,27,28
 486 688 486 688 486 629 c 1,29,30
 432 550 432 550 323 393 c 1,31,32
 382 393 382 393 403 393 c 128,-1,33
 424 393 424 393 483 393 c 1,34,35
 483 377 483 377 483 357 c 128,-1,36
 483 337 483 337 483 314 c 0,37,38
 483 272 483 272 483 229 c 128,-1,39
 483 186 483 186 483 157 c 1,40,41
 459 128 459 128 421 79 c 0,42,43
 382 29 382 29 359 0 c 1,44,45
 304 0 304 0 289 0 c 0,46,47
 275 0 275 0 220 0 c 1,48,49
 220 17 220 17 220 44 c 0,50,51
 220 72 220 72 220 89 c 1,52,-1
 264 89 l 1,53,-1
 264 89 l 1,54,-1
 309 89 l 1,55,56
 322 106 322 106 344 136 c 0,57,58
 367 165 367 165 380 183 c 1,59,60
 380 205 380 205 380 243 c 0,61,62
 380 282 380 282 380 305 c 1,63,64
 363 305 363 305 343 305 c 0,65,66
 324 305 324 305 306 305 c 0,67,68
 271 305 271 305 246 305 c 2,69,-1
 220 305 l 1,70,-1
 220 371 l 1,71,-1
 220 393 l 1,72,73
 274 471 274 471 381 629 c 1,74,75
 312 629 312 629 173 629 c 1,76,77
 173 419 173 419 173 0 c 1,0,1
EndSplineSet
Validated: 1
EndChar

StartChar: agrave
Encoding: 224 224 160
Width: 512
GlyphClass: 1
Flags: W
LayerCount: 2
Fore
SplineSet
350 208 m 1,0,1
 303 208 303 208 161 208 c 1,2,3
 161 177 161 177 161 81 c 1,4,5
 184 81 184 81 250 81 c 1,6,7
 275 113 275 113 350 208 c 1,0,1
447 510 m 1,8,9
 447 383 447 383 447 0 c 1,10,11
 423 0 423 0 350 0 c 1,12,13
 350 17 350 17 350 68 c 1,14,15
 337 51 337 51 296 0 c 1,16,17
 253 0 253 0 122 0 c 0,18,19
 108 0 108 0 64 0 c 1,20,21
 64 44 64 44 64 178 c 0,22,23
 64 204 64 204 64 284 c 1,24,25
 136 284 136 284 350 284 c 1,26,27
 350 321 350 321 350 433 c 1,28,29
 279 433 279 433 64 433 c 1,30,31
 64 452 64 452 64 510 c 1,32,33
 160 510 160 510 447 510 c 1,8,9
174 655 m 1,34,35
 194 655 194 655 255 655 c 1,36,37
 273 630 273 630 328 554 c 1,38,39
 308 554 308 554 248 554 c 1,40,41
 230 579 230 579 174 655 c 1,34,35
EndSplineSet
Validated: 1
EndChar

StartChar: aacute
Encoding: 225 225 161
Width: 512
GlyphClass: 1
Flags: W
LayerCount: 2
Fore
SplineSet
350 208 m 1,0,1
 303 208 303 208 161 208 c 1,2,3
 161 177 161 177 161 81 c 1,4,5
 184 81 184 81 250 81 c 1,6,7
 275 113 275 113 350 208 c 1,0,1
447 510 m 1,8,9
 447 383 447 383 447 0 c 1,10,11
 423 0 423 0 350 0 c 1,12,13
 350 17 350 17 350 68 c 1,14,15
 337 51 337 51 296 0 c 1,16,17
 253 0 253 0 122 0 c 0,18,19
 108 0 108 0 64 0 c 1,20,21
 64 44 64 44 64 178 c 0,22,23
 64 204 64 204 64 284 c 1,24,25
 136 284 136 284 350 284 c 1,26,27
 350 321 350 321 350 433 c 1,28,29
 279 433 279 433 64 433 c 1,30,31
 64 452 64 452 64 510 c 1,32,33
 160 510 160 510 447 510 c 1,8,9
255 554 m 1,34,35
 235 554 235 554 174 554 c 1,36,37
 193 579 193 579 248 655 c 1,38,39
 268 655 268 655 328 655 c 1,40,41
 310 630 310 630 255 554 c 1,34,35
EndSplineSet
Validated: 1
EndChar

StartChar: acircumflex
Encoding: 226 226 162
Width: 512
GlyphClass: 1
Flags: W
LayerCount: 2
Fore
SplineSet
350 208 m 1,0,1
 303 208 303 208 161 208 c 1,2,3
 161 177 161 177 161 81 c 1,4,5
 184 81 184 81 250 81 c 1,6,7
 275 113 275 113 350 208 c 1,0,1
447 510 m 1,8,9
 447 383 447 383 447 0 c 1,10,11
 423 0 423 0 350 0 c 1,12,13
 350 17 350 17 350 68 c 1,14,15
 337 51 337 51 296 0 c 1,16,17
 253 0 253 0 122 0 c 0,18,19
 108 0 108 0 64 0 c 1,20,21
 64 44 64 44 64 178 c 0,22,23
 64 204 64 204 64 284 c 1,24,25
 136 284 136 284 350 284 c 1,26,27
 350 321 350 321 350 433 c 1,28,29
 279 433 279 433 64 433 c 1,30,31
 64 452 64 452 64 510 c 1,32,33
 160 510 160 510 447 510 c 1,8,9
231 656 m 1,34,35
 242 656 242 656 242 656 c 257,36,37
 242 656 242 656 274 656 c 1,38,39
 292 630 292 630 313 601 c 256,40,41
 334 572 334 572 347 553 c 1,42,43
 339 553 339 553 325 553 c 256,44,45
 311 553 311 553 303 553 c 1,46,47
 294 567 294 567 278 589 c 256,48,49
 262 611 262 611 252 625 c 1,50,51
 243 611 243 611 227 589 c 256,52,53
 211 567 211 567 201 553 c 1,54,55
 193 553 193 553 179 553 c 0,56,57
 166 553 166 553 158 553 c 1,58,59
 171 572 171 572 192 601 c 256,60,61
 213 630 213 630 231 656 c 1,34,35
EndSplineSet
Validated: 1
EndChar

StartChar: atilde
Encoding: 227 227 163
Width: 512
GlyphClass: 1
Flags: W
LayerCount: 2
Fore
SplineSet
447 510 m 1,0,1
 447 383 447 383 447 0 c 1,2,3
 423 0 423 0 350 0 c 1,4,5
 350 17 350 17 350 68 c 1,6,7
 337 51 337 51 296 0 c 1,8,9
 253 0 253 0 122 0 c 0,10,11
 108 0 108 0 64 0 c 1,12,13
 64 44 64 44 64 178 c 0,14,15
 64 204 64 204 64 284 c 1,16,17
 136 284 136 284 350 284 c 1,18,19
 350 321 350 321 350 433 c 1,20,21
 279 433 279 433 64 433 c 1,22,23
 64 452 64 452 64 510 c 1,24,25
 160 510 160 510 447 510 c 1,0,1
350 208 m 1,26,27
 303 208 303 208 161 208 c 1,28,29
 161 177 161 177 161 81 c 1,30,31
 184 81 184 81 250 81 c 1,32,33
 275 113 275 113 350 208 c 1,26,27
223 553 m 1,34,35
 223 593 223 593 223 606 c 1,36,37
 127 606 127 606 95 606 c 1,38,39
 95 646 95 646 95 659 c 1,40,41
 245 659 245 659 296 659 c 1,42,43
 296 619 296 619 296 606 c 1,44,45
 391 606 391 606 423 606 c 1,46,47
 423 566 423 566 423 553 c 1,48,49
 273 553 273 553 223 553 c 1,34,35
EndSplineSet
Validated: 1
EndChar

StartChar: adieresis
Encoding: 228 228 164
Width: 512
GlyphClass: 1
Flags: W
LayerCount: 2
Fore
SplineSet
350 208 m 1,0,1
 303 208 303 208 161 208 c 1,2,3
 161 177 161 177 161 81 c 1,4,5
 184 81 184 81 250 81 c 1,6,7
 275 113 275 113 350 208 c 1,0,1
447 510 m 1,8,9
 447 383 447 383 447 0 c 1,10,11
 423 0 423 0 350 0 c 1,12,13
 350 17 350 17 350 68 c 1,14,15
 337 51 337 51 296 0 c 1,16,17
 253 0 253 0 122 0 c 0,18,19
 108 0 108 0 64 0 c 1,20,21
 64 44 64 44 64 178 c 0,22,23
 64 204 64 204 64 284 c 1,24,25
 136 284 136 284 350 284 c 1,26,27
 350 321 350 321 350 433 c 1,28,29
 279 433 279 433 64 433 c 1,30,31
 64 452 64 452 64 510 c 1,32,33
 160 510 160 510 447 510 c 1,8,9
122 553 m 1,34,35
 122 599 122 599 122 601 c 256,36,37
 122 603 122 603 122 649 c 1,38,39
 140 649 140 649 170 649 c 256,40,41
 200 649 200 649 218 649 c 1,42,43
 218 603 218 603 218 601 c 256,44,45
 218 599 218 599 218 553 c 1,46,47
 200 553 200 553 170 553 c 256,48,49
 140 553 140 553 122 553 c 1,34,35
296 649 m 1,50,51
 314 649 314 649 344 649 c 256,52,53
 374 649 374 649 392 649 c 1,54,55
 392 603 392 603 392 601 c 256,56,57
 392 599 392 599 392 553 c 1,58,59
 374 553 374 553 344 553 c 256,60,61
 314 553 314 553 296 553 c 1,62,63
 296 599 296 599 296 601 c 256,64,65
 296 603 296 603 296 649 c 1,50,51
EndSplineSet
Validated: 1
EndChar

StartChar: aring
Encoding: 229 229 165
Width: 512
GlyphClass: 1
Flags: W
LayerCount: 2
Fore
SplineSet
207 625 m 1,0,1
 216 637 216 637 244 672 c 1,2,3
 259 672 259 672 304 672 c 1,4,5
 304 651 304 651 304 587 c 1,6,7
 297 578 297 578 278 554 c 1,8,9
 260 554 260 554 207 554 c 1,10,11
 207 571 207 571 207 625 c 1,0,1
228 572 m 1,12,13
 238 572 238 572 268 572 c 1,14,15
 271 576 271 576 282 590 c 1,16,17
 282 606 282 606 282 654 c 1,18,19
 275 654 275 654 254 654 c 1,20,21
 248 646 248 646 228 621 c 1,22,23
 228 609 228 609 228 572 c 1,12,13
447 510 m 1,24,25
 447 383 447 383 447 0 c 1,26,27
 423 0 423 0 350 0 c 1,28,29
 350 17 350 17 350 68 c 1,30,31
 337 51 337 51 296 0 c 1,32,33
 253 0 253 0 122 0 c 0,34,35
 108 0 108 0 64 0 c 1,36,37
 64 44 64 44 64 178 c 0,38,39
 64 204 64 204 64 284 c 1,40,41
 136 284 136 284 350 284 c 1,42,43
 350 321 350 321 350 433 c 1,44,45
 279 433 279 433 64 433 c 1,46,47
 64 452 64 452 64 510 c 1,48,49
 160 510 160 510 447 510 c 1,24,25
350 208 m 1,50,51
 303 208 303 208 161 208 c 1,52,53
 161 177 161 177 161 81 c 1,54,55
 184 81 184 81 250 81 c 1,56,57
 275 113 275 113 350 208 c 1,50,51
EndSplineSet
Validated: 1
EndChar

StartChar: ae
Encoding: 230 230 166
Width: 840
GlyphClass: 1
Flags: W
LayerCount: 2
Fore
SplineSet
60 510 m 1,0,1
 60 510 60 510 346 510 c 1,2,-1
 443 510 l 1,3,-1
 667 510 l 1,4,5
 752 403 752 403 780 367 c 1,6,7
 780 261 780 261 780 226 c 1,8,9
 527 226 527 226 443 226 c 1,10,11
 443 226 443 226 443 81 c 1,12,13
 696 81 696 81 780 81 c 1,14,15
 780 20 780 20 780 0 c 1,16,17
 536 0 536 0 455 0 c 2,18,19
 455 0 455 0 443 0 c 1,20,-1
 346 0 l 1,21,-1
 346 68 l 1,22,23
 306 17 306 17 292 0 c 1,24,25
 162 0 162 0 118 0 c 0,26,27
 75 0 75 0 60 0 c 1,28,29
 60 160 60 160 60 213 c 128,-1,30
 60 266 60 266 60 284 c 1,31,32
 275 284 275 284 346 284 c 1,33,34
 346 284 346 284 346 433 c 1,35,36
 132 433 132 433 60 433 c 1,37,38
 60 491 60 491 60 510 c 1,0,1
246 81 m 1,39,40
 321 177 321 177 346 208 c 5,41,42
 204 208 204 208 157 208 c 1,43,44
 157 113 157 113 157 81 c 1,45,46
 224 81 224 81 246 81 c 1,39,40
443 429 m 1,47,48
 443 429 443 429 443 307 c 1,49,50
 649 307 649 307 717 307 c 1,51,52
 645 399 645 399 621 429 c 1,53,54
 487 429 487 429 443 429 c 1,47,48
EndSplineSet
Validated: 1
EndChar

StartChar: ccedilla
Encoding: 231 231 167
Width: 553
GlyphClass: 1
Flags: W
LayerCount: 2
Fore
SplineSet
348 -65 m 1,0,1
 348 -98 348 -98 348 -194 c 1,2,3
 319 -194 319 -194 231 -194 c 1,4,5
 231 -185 231 -185 231 -158 c 1,6,7
 249 -158 249 -158 304 -158 c 1,8,9
 304 -136 304 -136 304 -73 c 1,10,11
 297 -64 297 -64 275 -37 c 1,12,13
 264 -37 264 -37 231 -37 c 1,14,15
 231 -28 231 -28 231 0 c 1,16,-1
 169 0 l 2,17,18
 142 0 142 0 60 0 c 1,19,20
 60 57 60 57 60 230 c 0,21,22
 60 264 60 264 60 367 c 1,23,24
 88 403 88 403 174 510 c 1,25,26
 254 510 254 510 494 510 c 1,27,28
 494 490 494 490 494 429 c 1,29,30
 425 429 425 429 220 429 c 1,31,32
 204 410 204 410 157 350 c 1,33,34
 157 283 157 283 157 81 c 1,35,36
 241 81 241 81 494 81 c 1,37,38
 494 61 494 61 494 0 c 1,39,-1
 296 0 l 1,40,41
 309 -16 309 -16 348 -65 c 1,0,1
EndSplineSet
Validated: 1
EndChar

StartChar: egrave
Encoding: 232 232 168
Width: 573
GlyphClass: 1
Flags: W
LayerCount: 2
Fore
SplineSet
174 655 m 1,0,1
 194 655 194 655 255 655 c 1,2,3
 273 630 273 630 328 554 c 1,4,5
 308 554 308 554 248 554 c 1,6,7
 230 579 230 579 174 655 c 1,0,1
393 510 m 1,8,9
 421 474 421 474 506 367 c 1,10,11
 506 332 506 332 506 226 c 1,12,13
 422 226 422 226 169 226 c 1,14,15
 169 190 169 190 169 81 c 1,16,17
 254 81 254 81 506 81 c 1,18,19
 506 61 506 61 506 0 c 1,20,21
 425 0 425 0 181 0 c 0,22,23
 154 0 154 0 72 0 c 1,24,25
 72 75 72 75 72 298 c 0,26,27
 72 351 72 351 72 510 c 1,28,29
 153 510 153 510 393 510 c 1,8,9
443 307 m 1,30,31
 419 338 419 338 347 429 c 1,32,33
 303 429 303 429 169 429 c 1,34,35
 169 399 169 399 169 307 c 1,36,37
 238 307 238 307 443 307 c 1,30,31
EndSplineSet
Validated: 1
EndChar

StartChar: eacute
Encoding: 233 233 169
Width: 573
GlyphClass: 1
Flags: W
LayerCount: 2
Fore
SplineSet
304 554 m 1,0,1
 284 554 284 554 224 554 c 1,2,3
 242 579 242 579 298 655 c 1,4,5
 318 655 318 655 378 655 c 1,6,7
 359 630 359 630 304 554 c 1,0,1
393 510 m 1,8,9
 421 474 421 474 506 367 c 1,10,11
 506 332 506 332 506 226 c 1,12,13
 422 226 422 226 169 226 c 1,14,15
 169 190 169 190 169 81 c 1,16,17
 254 81 254 81 506 81 c 1,18,19
 506 61 506 61 506 0 c 1,20,21
 425 0 425 0 181 0 c 0,22,23
 154 0 154 0 72 0 c 1,24,25
 72 75 72 75 72 298 c 0,26,27
 72 351 72 351 72 510 c 1,28,29
 153 510 153 510 393 510 c 1,8,9
443 307 m 1,30,31
 419 338 419 338 347 429 c 1,32,33
 303 429 303 429 169 429 c 1,34,35
 169 399 169 399 169 307 c 1,36,37
 238 307 238 307 443 307 c 1,30,31
EndSplineSet
Validated: 1
EndChar

StartChar: ecircumflex
Encoding: 234 234 170
Width: 553
GlyphClass: 1
Flags: W
LayerCount: 2
Fore
SplineSet
253 655 m 1,0,-1
 263 655 l 1,1,-1
 296 655 l 1,2,3
 314 629 314 629 335 600 c 0,4,5
 355 571 355 571 369 553 c 1,6,7
 360 553 360 553 347 553 c 0,8,9
 333 553 333 553 325 553 c 1,10,11
 315 566 315 566 300 588 c 0,12,13
 284 611 284 611 274 624 c 1,14,15
 265 611 265 611 249 588 c 0,16,17
 233 566 233 566 223 553 c 1,18,19
 215 553 215 553 201 553 c 128,-1,20
 187 553 187 553 179 553 c 1,21,22
 193 571 193 571 213 600 c 0,23,24
 234 629 234 629 253 655 c 1,0,-1
380 510 m 1,25,26
 409 474 409 474 494 367 c 1,27,28
 494 332 494 332 494 226 c 1,29,30
 410 226 410 226 157 226 c 1,31,32
 157 190 157 190 157 81 c 1,33,34
 241 81 241 81 494 81 c 1,35,36
 494 61 494 61 494 0 c 1,37,38
 413 0 413 0 169 0 c 0,39,40
 141 0 141 0 60 0 c 1,41,42
 60 75 60 75 60 298 c 0,43,44
 60 351 60 351 60 510 c 1,45,46
 140 510 140 510 380 510 c 1,25,26
431 307 m 1,47,48
 407 338 407 338 334 429 c 1,49,50
 290 429 290 429 157 429 c 1,51,52
 157 399 157 399 157 307 c 1,53,54
 225 307 225 307 431 307 c 1,47,48
EndSplineSet
Validated: 1
EndChar

StartChar: edieresis
Encoding: 235 235 171
Width: 553
GlyphClass: 1
Flags: W
LayerCount: 2
Fore
SplineSet
321 649 m 1,0,1
 339 649 339 649 369 649 c 128,-1,2
 399 649 399 649 417 649 c 1,3,4
 417 604 417 604 417 601 c 0,5,6
 417 599 417 599 417 554 c 1,7,8
 399 554 399 554 369 554 c 128,-1,9
 339 554 339 554 321 554 c 1,10,11
 321 599 321 599 321 601 c 0,12,13
 321 604 321 604 321 649 c 1,0,1
147 554 m 1,14,15
 147 599 147 599 147 601 c 0,16,17
 147 604 147 604 147 649 c 1,18,19
 165 649 165 649 195 649 c 128,-1,20
 225 649 225 649 243 649 c 1,21,22
 243 604 243 604 243 601 c 0,23,24
 243 599 243 599 243 554 c 1,25,26
 225 554 225 554 195 554 c 128,-1,27
 165 554 165 554 147 554 c 1,14,15
380 510 m 1,28,29
 409 474 409 474 494 367 c 1,30,31
 494 332 494 332 494 226 c 1,32,33
 410 226 410 226 157 226 c 1,34,35
 157 190 157 190 157 81 c 1,36,37
 241 81 241 81 494 81 c 1,38,39
 494 61 494 61 494 0 c 1,40,41
 413 0 413 0 169 0 c 0,42,43
 141 0 141 0 60 0 c 1,44,45
 60 75 60 75 60 298 c 0,46,47
 60 351 60 351 60 510 c 1,48,49
 140 510 140 510 380 510 c 1,28,29
431 307 m 1,50,51
 407 338 407 338 334 429 c 1,52,53
 290 429 290 429 157 429 c 1,54,55
 157 399 157 399 157 307 c 1,56,57
 225 307 225 307 431 307 c 1,50,51
EndSplineSet
Validated: 1
EndChar

StartChar: igrave
Encoding: 236 236 172
Width: 184
GlyphClass: 1
Flags: W
LayerCount: 2
Fore
SplineSet
44 510 m 1,0,1
 68 510 68 510 140 510 c 1,2,3
 140 383 140 383 140 0 c 1,4,5
 122 0 122 0 68 0 c 0,6,7
 62 0 62 0 44 0 c 1,8,9
 44 80 44 80 44 319 c 0,10,11
 44 367 44 367 44 510 c 1,0,1
-20 655 m 1,12,13
 0 655 0 655 60 655 c 1,14,15
 78 630 78 630 134 554 c 1,16,17
 113 554 113 554 53 554 c 1,18,19
 35 579 35 579 -20 655 c 1,12,13
EndSplineSet
Validated: 1
EndChar

StartChar: iacute
Encoding: 237 237 173
Width: 184
GlyphClass: 1
Flags: W
LayerCount: 2
Fore
SplineSet
44 510 m 1,0,1
 68 510 68 510 140 510 c 1,2,3
 140 383 140 383 140 0 c 1,4,5
 122 0 122 0 68 0 c 0,6,7
 62 0 62 0 44 0 c 1,8,9
 44 80 44 80 44 319 c 0,10,11
 44 367 44 367 44 510 c 1,0,1
133 554 m 1,12,13
 113 554 113 554 53 554 c 1,14,15
 72 579 72 579 127 655 c 1,16,17
 147 655 147 655 207 655 c 1,18,19
 189 630 189 630 133 554 c 1,12,13
EndSplineSet
Validated: 1
EndChar

StartChar: icircumflex
Encoding: 238 238 174
Width: 184
GlyphClass: 1
Flags: W
LayerCount: 2
Fore
SplineSet
44 510 m 1,0,1
 68 510 68 510 140 510 c 1,2,3
 140 383 140 383 140 0 c 1,4,5
 122 0 122 0 68 0 c 0,6,7
 62 0 62 0 44 0 c 1,8,9
 44 80 44 80 44 319 c 0,10,11
 44 367 44 367 44 510 c 1,0,1
71 656 m 1,12,13
 82 656 82 656 82 656 c 257,14,15
 82 656 82 656 114 656 c 1,16,17
 132 631 132 631 153 602 c 256,18,19
 174 573 174 573 187 554 c 1,20,21
 179 554 179 554 165 554 c 256,22,23
 151 554 151 554 143 554 c 1,24,25
 134 567 134 567 118 590 c 0,26,27
 102 612 102 612 92 625 c 1,28,29
 83 612 83 612 67 590 c 0,30,31
 51 567 51 567 41 554 c 1,32,33
 33 554 33 554 19 554 c 0,34,35
 6 554 6 554 -3 554 c 1,36,37
 11 573 11 573 32 602 c 256,38,39
 53 631 53 631 71 656 c 1,12,13
EndSplineSet
Validated: 1
EndChar

StartChar: idieresis
Encoding: 239 239 175
Width: 184
GlyphClass: 1
Flags: W
LayerCount: 2
Fore
SplineSet
44 510 m 1,0,1
 68 510 68 510 140 510 c 1,2,3
 140 383 140 383 140 0 c 1,4,5
 122 0 122 0 68 0 c 0,6,7
 62 0 62 0 44 0 c 1,8,9
 44 80 44 80 44 319 c 0,10,11
 44 367 44 367 44 510 c 1,0,1
-43 553 m 1,12,13
 -43 599 -43 599 -43 601 c 2,14,15
 -43 601 -43 601 -43 605 c 0,16,17
 -43 615 -43 615 -43 649 c 1,18,19
 -25 649 -25 649 5 649 c 256,20,21
 35 649 35 649 53 649 c 1,22,23
 53 603 53 603 53 601 c 256,24,25
 53 599 53 599 53 553 c 1,26,27
 35 553 35 553 5 553 c 256,28,29
 -25 553 -25 553 -43 553 c 1,12,13
132 649 m 1,30,31
 150 649 150 649 180 649 c 256,32,33
 210 649 210 649 228 649 c 1,34,35
 228 603 228 603 228 601 c 256,36,37
 228 599 228 599 228 553 c 1,38,39
 210 553 210 553 180 553 c 256,40,41
 150 553 150 553 132 553 c 1,42,43
 132 599 132 599 132 601 c 256,44,45
 132 603 132 603 132 649 c 1,30,31
EndSplineSet
Validated: 1
EndChar

StartChar: eth
Encoding: 240 240 176
Width: 471
GlyphClass: 1
Flags: W
LayerCount: 2
Fore
SplineSet
277 159 m 1,0,1
 277 215 277 215 277 328 c 1,2,3
 254 328 254 328 209 328 c 1,4,5
 184 295 184 295 133 231 c 1,6,7
 133 174 133 174 133 62 c 1,8,9
 156 62 156 62 201 62 c 1,10,11
 226 95 226 95 277 159 c 1,0,1
409 470 m 1,12,13
 409 449 409 449 409 408 c 1,14,15
 390 408 390 408 351 408 c 1,16,17
 351 402 351 402 351 389 c 0,18,19
 351 260 351 260 351 1 c 1,20,21
 326 1 326 1 277 1 c 1,22,23
 277 18 277 18 277 53 c 1,24,25
 263 35 263 35 236 1 c 1,26,27
 193 1 193 1 107 1 c 0,28,29
 91 1 91 1 59 1 c 1,30,31
 59 50 59 50 59 150 c 0,32,33
 59 181 59 181 59 244 c 1,34,35
 98 293 98 293 174 389 c 1,36,-1
 175 389 l 2,37,38
 209 389 209 389 277 389 c 1,39,40
 277 396 277 396 277 408 c 1,41,42
 253 408 253 408 205 408 c 1,43,44
 205 429 205 429 205 470 c 1,45,46
 229 470 229 470 277 470 c 1,47,48
 277 480 277 480 277 500 c 1,49,50
 302 500 302 500 351 500 c 1,51,52
 351 490 351 490 351 470 c 1,53,54
 370 470 370 470 409 470 c 1,12,13
EndSplineSet
Validated: 1
EndChar

StartChar: ntilde
Encoding: 241 241 177
Width: 512
GlyphClass: 1
Flags: W
LayerCount: 2
Fore
SplineSet
447 510 m 1,0,1
 447 383 447 383 447 0 c 1,2,3
 428 0 428 0 374 0 c 0,4,5
 368 0 368 0 350 0 c 1,6,7
 350 107 350 107 350 429 c 1,8,9
 328 429 328 429 261 429 c 1,10,11
 236 398 236 398 161 302 c 1,12,13
 161 227 161 227 161 0 c 1,14,15
 137 0 137 0 64 0 c 1,16,17
 64 80 64 80 64 319 c 0,18,19
 64 367 64 367 64 510 c 1,20,21
 88 510 88 510 161 510 c 1,22,23
 161 493 161 493 161 442 c 1,24,25
 175 459 175 459 215 510 c 1,26,27
 273 510 273 510 447 510 c 1,0,1
221 553 m 1,28,29
 221 593 221 593 221 606 c 1,30,31
 126 606 126 606 94 606 c 1,32,33
 94 646 94 646 94 659 c 1,34,35
 244 659 244 659 294 659 c 1,36,37
 294 619 294 619 294 606 c 1,38,39
 390 606 390 606 422 606 c 1,40,41
 422 566 422 566 422 553 c 1,42,43
 272 553 272 553 221 553 c 1,28,29
EndSplineSet
Validated: 1
EndChar

StartChar: ograve
Encoding: 242 242 178
Width: 533
GlyphClass: 1
Flags: W
LayerCount: 2
Fore
SplineSet
174 655 m 1,0,1
 194 655 194 655 255 655 c 1,2,3
 273 630 273 630 328 554 c 1,4,5
 308 554 308 554 248 554 c 1,6,7
 230 579 230 579 174 655 c 1,0,1
58 307 m 1,8,9
 98 357 98 357 217 510 c 1,10,11
 282 510 282 510 477 510 c 1,12,13
 477 418 477 418 477 143 c 1,14,15
 449 107 449 107 364 0 c 1,16,17
 307 0 307 0 135 0 c 0,18,19
 115 0 115 0 58 0 c 1,20,21
 58 53 58 53 58 211 c 0,22,23
 58 235 58 235 58 307 c 1,8,9
151 78 m 1,24,25
 193 78 193 78 320 78 c 1,26,27
 336 98 336 98 383 159 c 1,28,29
 383 227 383 227 383 432 c 1,30,31
 353 432 353 432 262 432 c 1,32,33
 234 397 234 397 151 292 c 1,34,35
 151 278 151 278 151 238 c 128,-1,36
 151 198 151 198 151 78 c 1,24,25
EndSplineSet
Validated: 1
EndChar

StartChar: oacute
Encoding: 243 243 179
Width: 533
GlyphClass: 1
Flags: W
LayerCount: 2
Fore
SplineSet
325 554 m 1,0,1
 305 554 305 554 245 554 c 1,2,3
 263 579 263 579 319 655 c 1,4,5
 339 655 339 655 399 655 c 1,6,7
 380 630 380 630 325 554 c 1,0,1
58 307 m 1,8,9
 98 357 98 357 217 510 c 1,10,11
 282 510 282 510 477 510 c 1,12,13
 477 418 477 418 477 143 c 1,14,15
 449 107 449 107 364 0 c 1,16,17
 307 0 307 0 135 0 c 0,18,19
 115 0 115 0 58 0 c 1,20,21
 58 53 58 53 58 211 c 0,22,23
 58 235 58 235 58 307 c 1,8,9
151 78 m 1,24,25
 193 78 193 78 320 78 c 1,26,27
 336 98 336 98 383 159 c 1,28,29
 383 227 383 227 383 432 c 1,30,31
 353 432 353 432 262 432 c 1,32,33
 234 397 234 397 151 292 c 1,34,35
 151 278 151 278 151 238 c 128,-1,36
 151 198 151 198 151 78 c 1,24,25
EndSplineSet
Validated: 1
EndChar

StartChar: ocircumflex
Encoding: 244 244 180
Width: 532
GlyphClass: 1
Flags: W
LayerCount: 2
Fore
SplineSet
298 656 m 1,0,-1
 309 656 l 1,1,-1
 341 656 l 1,2,3
 359 630 359 630 380 601 c 128,-1,4
 401 572 401 572 414 553 c 1,5,6
 406 553 406 553 392 553 c 0,7,8
 379 553 379 553 370 553 c 1,9,10
 361 567 361 567 345 589 c 128,-1,11
 329 611 329 611 320 625 c 1,12,13
 310 611 310 611 294 589 c 128,-1,14
 278 567 278 567 268 553 c 1,15,16
 260 553 260 553 247 553 c 0,17,18
 233 553 233 553 225 553 c 1,19,20
 238 572 238 572 259 601 c 128,-1,21
 280 630 280 630 298 656 c 1,0,-1
57 307 m 1,22,23
 97 357 97 357 216 510 c 1,24,25
 281 510 281 510 476 510 c 1,26,27
 476 418 476 418 476 143 c 1,28,29
 448 107 448 107 363 0 c 1,30,31
 306 0 306 0 134 0 c 0,32,33
 115 0 115 0 57 0 c 1,34,35
 57 53 57 53 57 211 c 0,36,37
 57 235 57 235 57 307 c 1,22,23
150 78 m 1,38,39
 193 78 193 78 319 78 c 1,40,41
 335 98 335 98 382 159 c 1,42,43
 382 227 382 227 382 432 c 1,44,45
 352 432 352 432 261 432 c 1,46,47
 234 397 234 397 150 292 c 1,48,49
 150 278 150 278 150 238 c 128,-1,50
 150 198 150 198 150 78 c 1,38,39
EndSplineSet
Validated: 1
EndChar

StartChar: otilde
Encoding: 245 245 181
Width: 532
GlyphClass: 1
Flags: W
LayerCount: 2
Fore
SplineSet
57 307 m 1,0,1
 97 357 97 357 216 510 c 1,2,3
 281 510 281 510 476 510 c 1,4,5
 476 418 476 418 476 143 c 1,6,7
 448 107 448 107 363 0 c 1,8,9
 306 0 306 0 134 0 c 0,10,11
 115 0 115 0 57 0 c 1,12,13
 57 53 57 53 57 211 c 0,14,15
 57 235 57 235 57 307 c 1,0,1
150 78 m 1,16,17
 193 78 193 78 319 78 c 1,18,19
 335 98 335 98 382 159 c 1,20,21
 382 227 382 227 382 432 c 1,22,23
 352 432 352 432 261 432 c 1,24,25
 234 397 234 397 150 292 c 1,26,27
 150 278 150 278 150 238 c 128,-1,28
 150 198 150 198 150 78 c 1,16,17
249 552 m 1,29,30
 249 592 249 592 249 605 c 1,31,32
 154 605 154 605 122 605 c 1,33,34
 122 645 122 645 122 658 c 1,35,36
 272 658 272 658 323 658 c 1,37,38
 323 619 323 619 323 605 c 1,39,40
 418 605 418 605 450 605 c 1,41,42
 450 566 450 566 450 552 c 1,43,44
 300 552 300 552 249 552 c 1,29,30
EndSplineSet
Validated: 1
EndChar

StartChar: odieresis
Encoding: 246 246 182
Width: 532
GlyphClass: 1
Flags: W
LayerCount: 2
Fore
SplineSet
317 648 m 1,0,1
 335 648 335 648 365 648 c 128,-1,2
 395 648 395 648 413 648 c 1,3,4
 413 602 413 602 413 600 c 128,-1,5
 413 598 413 598 413 552 c 1,6,7
 395 552 395 552 365 552 c 128,-1,8
 335 552 335 552 317 552 c 1,9,10
 317 598 317 598 317 600 c 128,-1,11
 317 602 317 602 317 648 c 1,0,1
143 552 m 1,12,13
 143 598 143 598 143 600 c 128,-1,14
 143 602 143 602 143 648 c 1,15,16
 161 648 161 648 191 648 c 0,17,18
 220 648 220 648 238 648 c 1,19,20
 238 602 238 602 238 600 c 128,-1,21
 238 598 238 598 238 552 c 1,22,23
 220 552 220 552 191 552 c 0,24,25
 161 552 161 552 143 552 c 1,12,13
57 307 m 1,26,27
 97 357 97 357 216 510 c 1,28,29
 281 510 281 510 476 510 c 1,30,31
 476 418 476 418 476 143 c 1,32,33
 448 107 448 107 363 0 c 1,34,35
 306 0 306 0 134 0 c 0,36,37
 115 0 115 0 57 0 c 1,38,39
 57 53 57 53 57 211 c 0,40,41
 57 235 57 235 57 307 c 1,26,27
150 78 m 1,42,43
 193 78 193 78 319 78 c 1,44,45
 335 98 335 98 382 159 c 1,46,47
 382 227 382 227 382 432 c 1,48,49
 352 432 352 432 261 432 c 1,50,51
 234 397 234 397 150 292 c 1,52,53
 150 278 150 278 150 238 c 128,-1,54
 150 198 150 198 150 78 c 1,42,43
EndSplineSet
Validated: 1
EndChar

StartChar: divide
Encoding: 247 247 183
Width: 471
GlyphClass: 1
Flags: W
LayerCount: 2
Fore
SplineSet
431 337 m 1,0,1
 334 337 334 337 42 337 c 1,2,3
 42 361 42 361 42 430 c 1,4,5
 139 430 139 430 431 430 c 1,6,7
 431 407 431 407 431 337 c 1,0,1
292 257 m 1,8,9
 292 238 292 238 292 209 c 0,10,11
 292 181 292 181 292 162 c 1,12,13
 269 162 269 162 231 162 c 256,14,15
 193 162 193 162 170 162 c 1,16,17
 170 181 170 181 170 209 c 0,18,19
 170 238 170 238 170 257 c 1,20,21
 193 257 193 257 231 257 c 256,22,23
 269 257 269 257 292 257 c 1,8,9
170 510 m 1,24,25
 170 529 170 529 170 559 c 0,26,27
 170 588 170 588 170 608 c 1,28,29
 193 608 193 608 231 608 c 256,30,31
 269 608 269 608 292 608 c 1,32,33
 292 588 292 588 292 559 c 0,34,35
 292 529 292 529 292 510 c 1,36,37
 269 510 269 510 231 510 c 256,38,39
 193 510 193 510 170 510 c 1,24,25
EndSplineSet
Validated: 1
EndChar

StartChar: oslash
Encoding: 248 248 184
Width: 532
GlyphClass: 1
Flags: W
LayerCount: 2
Fore
SplineSet
532 691 m 1,0,1
 532 653 532 653 532 540 c 1,2,3
 509 510 509 510 476 467 c 1,4,-1
 476 143 l 1,5,6
 448 107 448 107 363 0 c 1,7,8
 306 0 306 0 134 0 c 2,9,-1
 116 0 l 1,10,11
 62 -70 62 -70 0 -150 c 1,12,13
 0 -79 0 -79 0 -48 c 0,14,15
 0 -33 0 -33 0 13 c 1,16,17
 23 43 23 43 57 86 c 1,18,-1
 57 211 l 2,19,20
 57 235 57 235 57 307 c 1,21,22
 97 357 97 357 216 510 c 1,23,-1
 389 510 l 1,24,25
 455 593 455 593 532 691 c 1,0,1
150 207 m 1,26,27
 218 293 218 293 328 432 c 1,28,-1
 261 432 l 1,29,30
 234 397 234 397 150 292 c 1,31,32
 150 278 150 278 150 238 c 2,33,-1
 150 207 l 1,26,27
382 344 m 1,34,35
 306 246 306 246 176 78 c 1,36,-1
 319 78 l 1,37,38
 335 98 335 98 382 159 c 1,39,-1
 382 344 l 1,34,35
EndSplineSet
Validated: 1
EndChar

StartChar: ugrave
Encoding: 249 249 185
Width: 512
GlyphClass: 1
Flags: W
LayerCount: 2
Fore
SplineSet
65 0 m 1,0,1
 65 75 65 75 65 298 c 0,2,3
 65 351 65 351 65 510 c 1,4,5
 89 510 89 510 162 510 c 1,6,7
 162 403 162 403 162 81 c 1,8,9
 184 81 184 81 250 81 c 1,10,11
 275 113 275 113 350 208 c 1,12,13
 350 284 350 284 350 510 c 1,14,15
 374 510 374 510 447 510 c 1,16,17
 447 383 447 383 447 0 c 1,18,19
 423 0 423 0 350 0 c 1,20,21
 350 17 350 17 350 68 c 1,22,23
 337 51 337 51 296 0 c 1,24,25
 253 0 253 0 122 0 c 0,26,27
 108 0 108 0 65 0 c 1,0,1
174 655 m 1,28,29
 194 655 194 655 254 655 c 1,30,31
 272 630 272 630 328 554 c 1,32,33
 308 554 308 554 248 554 c 1,34,35
 229 579 229 579 174 655 c 1,28,29
EndSplineSet
Validated: 1
EndChar

StartChar: uacute
Encoding: 250 250 186
Width: 512
GlyphClass: 1
Flags: W
LayerCount: 2
Fore
SplineSet
65 0 m 1,0,1
 65 75 65 75 65 298 c 0,2,3
 65 351 65 351 65 510 c 1,4,5
 89 510 89 510 162 510 c 1,6,7
 162 403 162 403 162 81 c 1,8,9
 184 81 184 81 250 81 c 1,10,11
 275 113 275 113 350 208 c 1,12,13
 350 284 350 284 350 510 c 1,14,15
 374 510 374 510 447 510 c 1,16,17
 447 383 447 383 447 0 c 1,18,19
 423 0 423 0 350 0 c 1,20,21
 350 17 350 17 350 68 c 1,22,23
 337 51 337 51 296 0 c 1,24,25
 253 0 253 0 122 0 c 0,26,27
 108 0 108 0 65 0 c 1,0,1
265 554 m 1,28,29
 245 554 245 554 185 554 c 1,30,31
 203 579 203 579 259 655 c 1,32,33
 279 655 279 655 339 655 c 1,34,35
 320 630 320 630 265 554 c 1,28,29
EndSplineSet
Validated: 1
EndChar

StartChar: ucircumflex
Encoding: 251 251 187
Width: 512
GlyphClass: 1
Flags: W
LayerCount: 2
Fore
SplineSet
65 0 m 1,0,1
 65 75 65 75 65 298 c 0,2,3
 65 351 65 351 65 510 c 1,4,5
 89 510 89 510 162 510 c 1,6,7
 162 403 162 403 162 81 c 1,8,9
 184 81 184 81 250 81 c 1,10,11
 275 113 275 113 350 208 c 1,12,13
 350 284 350 284 350 510 c 1,14,15
 374 510 374 510 447 510 c 1,16,17
 447 383 447 383 447 0 c 1,18,19
 423 0 423 0 350 0 c 1,20,21
 350 17 350 17 350 68 c 1,22,23
 337 51 337 51 296 0 c 1,24,25
 253 0 253 0 122 0 c 0,26,27
 108 0 108 0 65 0 c 1,0,1
235 656 m 1,28,29
 246 656 246 656 246 656 c 257,30,31
 246 656 246 656 278 656 c 1,32,33
 296 631 296 631 317 602 c 256,34,35
 338 573 338 573 351 554 c 1,36,37
 343 554 343 554 329 554 c 0,38,39
 316 554 316 554 308 554 c 1,40,41
 298 567 298 567 282 590 c 0,42,43
 266 612 266 612 257 625 c 1,44,45
 247 612 247 612 231 590 c 0,46,47
 215 567 215 567 205 554 c 1,48,49
 197 554 197 554 184 554 c 0,50,51
 170 554 170 554 162 554 c 1,52,53
 175 573 175 573 196 602 c 256,54,55
 217 631 217 631 235 656 c 1,28,29
EndSplineSet
Validated: 1
EndChar

StartChar: udieresis
Encoding: 252 252 188
Width: 512
GlyphClass: 1
Flags: W
LayerCount: 2
Fore
SplineSet
65 0 m 1,0,1
 65 75 65 75 65 298 c 0,2,3
 65 351 65 351 65 510 c 1,4,5
 89 510 89 510 162 510 c 1,6,7
 162 403 162 403 162 81 c 1,8,9
 184 81 184 81 250 81 c 1,10,11
 275 113 275 113 350 208 c 1,12,13
 350 284 350 284 350 510 c 1,14,15
 374 510 374 510 447 510 c 1,16,17
 447 383 447 383 447 0 c 1,18,19
 423 0 423 0 350 0 c 1,20,21
 350 17 350 17 350 68 c 1,22,23
 337 51 337 51 296 0 c 1,24,25
 253 0 253 0 122 0 c 0,26,27
 108 0 108 0 65 0 c 1,0,1
121 554 m 1,28,29
 121 599 121 599 121 601 c 0,30,31
 121 604 121 604 121 649 c 1,32,33
 139 649 139 649 169 649 c 256,34,35
 199 649 199 649 217 649 c 1,36,37
 217 604 217 604 217 601 c 0,38,39
 217 599 217 599 217 554 c 1,40,41
 199 554 199 554 169 554 c 256,42,43
 139 554 139 554 121 554 c 1,28,29
296 649 m 1,44,45
 314 649 314 649 343 649 c 0,46,47
 373 649 373 649 391 649 c 1,48,49
 391 604 391 604 391 601 c 0,50,51
 391 599 391 599 391 554 c 1,52,53
 373 554 373 554 343 554 c 0,54,55
 314 554 314 554 296 554 c 1,56,57
 296 599 296 599 296 601 c 0,58,59
 296 604 296 604 296 649 c 1,44,45
EndSplineSet
Validated: 1
EndChar

StartChar: yacute
Encoding: 253 253 189
Width: 512
GlyphClass: 1
Flags: W
LayerCount: 2
Fore
SplineSet
64 510 m 1,0,1
 88 510 88 510 161 510 c 1,2,3
 161 403 161 403 161 82 c 1,4,5
 184 82 184 82 250 82 c 1,6,7
 276 113 276 113 351 206 c 1,8,9
 351 282 351 282 351 510 c 1,10,11
 376 510 376 510 449 510 c 1,12,13
 449 346 449 346 449 -148 c 1,14,15
 353 -148 353 -148 64 -148 c 1,16,17
 64 -128 64 -128 64 -67 c 1,18,19
 136 -67 136 -67 351 -67 c 1,20,21
 351 -34 351 -34 351 65 c 1,22,23
 337 49 337 49 297 1 c 1,24,25
 239 1 239 1 64 1 c 1,26,27
 64 75 64 75 64 298 c 0,28,29
 64 351 64 351 64 510 c 1,0,1
263 553 m 1,30,31
 243 553 243 553 183 553 c 1,32,33
 201 578 201 578 257 655 c 1,34,35
 277 655 277 655 337 655 c 1,36,37
 318 629 318 629 263 553 c 1,30,31
EndSplineSet
Validated: 1
EndChar

StartChar: thorn
Encoding: 254 254 190
Width: 430
GlyphClass: 1
Flags: W
LayerCount: 2
Fore
SplineSet
141 386 m 1,0,1
 141 328 141 328 141 213 c 1,2,3
 167 179 167 179 219 113 c 1,4,5
 242 113 242 113 289 113 c 1,6,7
 289 170 289 170 289 286 c 1,8,9
 263 319 263 319 210 386 c 1,10,11
 187 386 187 386 141 386 c 1,0,1
64 510 m 1,12,13
 90 510 90 510 141 510 c 1,14,15
 141 490 141 490 141 449 c 1,16,17
 176 449 176 449 246 449 c 1,18,19
 286 399 286 399 365 300 c 1,20,21
 365 216 365 216 365 49 c 1,22,23
 304 49 304 49 183 49 c 1,24,25
 169 67 169 67 141 103 c 1,26,27
 141 69 141 69 141 0 c 1,28,29
 121 0 121 0 81 0 c 0,30,31
 75 0 75 0 64 0 c 1,32,33
 64 104 64 104 64 313 c 0,34,35
 64 379 64 379 64 510 c 1,12,13
EndSplineSet
Validated: 1
EndChar

StartChar: ydieresis
Encoding: 255 255 191
Width: 512
GlyphClass: 1
Flags: W
LayerCount: 2
Fore
SplineSet
64 510 m 1,0,1
 88 510 88 510 161 510 c 1,2,3
 161 403 161 403 161 82 c 1,4,5
 184 82 184 82 250 82 c 1,6,7
 276 113 276 113 351 206 c 1,8,9
 351 282 351 282 351 510 c 1,10,11
 376 510 376 510 449 510 c 1,12,13
 449 346 449 346 449 -148 c 1,14,15
 353 -148 353 -148 64 -148 c 1,16,17
 64 -128 64 -128 64 -67 c 1,18,19
 136 -67 136 -67 351 -67 c 1,20,21
 351 -34 351 -34 351 65 c 1,22,23
 337 49 337 49 297 1 c 1,24,25
 239 1 239 1 64 1 c 1,26,27
 64 75 64 75 64 298 c 0,28,29
 64 351 64 351 64 510 c 1,0,1
121 553 m 1,30,31
 121 599 121 599 121 601 c 256,32,33
 121 603 121 603 121 649 c 1,34,35
 139 649 139 649 168 649 c 0,36,37
 198 649 198 649 216 649 c 1,38,39
 216 603 216 603 216 601 c 256,40,41
 216 599 216 599 216 553 c 1,42,43
 198 553 198 553 168 553 c 0,44,45
 139 553 139 553 121 553 c 1,30,31
295 649 m 1,46,47
 313 649 313 649 343 649 c 256,48,49
 373 649 373 649 391 649 c 1,50,51
 391 603 391 603 391 601 c 256,52,53
 391 599 391 599 391 553 c 1,54,55
 373 553 373 553 343 553 c 256,56,57
 313 553 313 553 295 553 c 1,58,59
 295 599 295 599 295 601 c 256,60,61
 295 603 295 603 295 649 c 1,46,47
EndSplineSet
Validated: 1
EndChar

StartChar: dotlessi
Encoding: 305 305 192
Width: 184
GlyphClass: 1
Flags: W
LayerCount: 2
Fore
SplineSet
44 510 m 1,0,1
 68 510 68 510 140 510 c 1,2,3
 140 383 140 383 140 0 c 1,4,5
 122 0 122 0 68 0 c 0,6,7
 62 0 62 0 44 0 c 1,8,9
 44 80 44 80 44 319 c 0,10,11
 44 367 44 367 44 510 c 1,0,1
EndSplineSet
Validated: 1
EndChar

StartChar: circumflex
Encoding: 710 710 193
Width: 267
GlyphClass: 1
Flags: W
LayerCount: 2
Fore
SplineSet
114 717 m 1,0,1
 124 717 124 717 124 717 c 257,2,3
 124 717 124 717 156 717 c 1,4,5
 175 692 175 692 195 663 c 0,6,7
 216 634 216 634 229 615 c 1,8,9
 221 615 221 615 208 615 c 0,10,11
 194 615 194 615 186 615 c 1,12,13
 176 628 176 628 160 651 c 0,14,15
 144 673 144 673 135 686 c 1,16,17
 125 673 125 673 109 651 c 0,18,19
 93 628 93 628 84 615 c 1,20,21
 76 615 76 615 62 615 c 256,22,23
 48 615 48 615 40 615 c 1,24,25
 53 634 53 634 74 663 c 256,26,27
 95 692 95 692 114 717 c 1,0,1
EndSplineSet
Validated: 1
EndChar

StartChar: caron
Encoding: 711 711 194
Width: 266
GlyphClass: 1
Flags: W
LayerCount: 2
Fore
SplineSet
39 717 m 1,0,1
 48 717 48 717 61 717 c 0,2,3
 75 717 75 717 83 717 c 1,4,5
 93 704 93 704 109 682 c 0,6,7
 125 659 125 659 134 646 c 1,8,9
 144 659 144 659 160 682 c 0,10,11
 176 704 176 704 185 717 c 1,12,13
 193 717 193 717 207 717 c 256,14,15
 221 717 221 717 229 717 c 1,16,17
 215 699 215 699 195 670 c 0,18,19
 174 641 174 641 156 615 c 1,20,21
 124 615 124 615 124 615 c 257,22,23
 124 615 124 615 113 615 c 1,24,25
 94 641 94 641 74 670 c 0,26,27
 53 699 53 699 39 717 c 1,0,1
EndSplineSet
Validated: 1
EndChar

StartChar: "+AskA"
Encoding: 713 713 195
Width: 491
GlyphClass: 1
Flags: W
LayerCount: 2
Fore
SplineSet
451 614 m 1,0,1
 451 590 451 590 451 580 c 256,2,3
 451 570 451 570 451 546 c 1,4,5
 425 546 425 546 389 546 c 0,6,7
 354 546 354 546 315 546 c 0,8,9
 242 546 242 546 167 546 c 256,10,11
 92 546 92 546 42 546 c 1,12,13
 42 570 42 570 42 580 c 256,14,15
 42 590 42 590 42 614 c 1,16,17
 92 614 92 614 167 614 c 256,18,19
 242 614 242 614 315 614 c 0,20,21
 354 614 354 614 389 614 c 0,22,23
 425 614 425 614 451 614 c 1,0,1
EndSplineSet
Validated: 513
EndChar

StartChar: breve
Encoding: 728 728 196
Width: 287
GlyphClass: 1
Flags: W
LayerCount: 2
Fore
SplineSet
85 614 m 1,0,1
 73 624 73 624 39 651 c 1,2,3
 39 663 39 663 39 700 c 1,4,5
 45 700 45 700 64 700 c 1,6,7
 64 691 64 691 64 666 c 1,8,9
 71 660 71 660 92 645 c 1,10,11
 117 645 117 645 193 645 c 1,12,13
 200 650 200 650 220 666 c 1,14,15
 220 674 220 674 220 700 c 1,16,17
 227 700 227 700 246 700 c 1,18,19
 246 688 246 688 246 651 c 1,20,21
 235 642 235 642 200 614 c 1,22,23
 171 614 171 614 85 614 c 1,0,1
EndSplineSet
Validated: 1
EndChar

StartChar: dotaccent
Encoding: 729 729 197
Width: 164
GlyphClass: 1
Flags: W
LayerCount: 2
Fore
SplineSet
41 635 m 1,0,1
 49 645 49 645 72 675 c 1,2,3
 85 675 85 675 122 675 c 1,4,5
 122 657 122 657 122 603 c 1,6,7
 117 597 117 597 101 576 c 1,8,9
 86 576 86 576 41 576 c 1,10,11
 41 591 41 591 41 635 c 1,0,1
EndSplineSet
Validated: 1
EndChar

StartChar: ring
Encoding: 730 730 198
Width: 246
GlyphClass: 1
Flags: W
LayerCount: 2
Fore
SplineSet
46 623 m 1,0,1
 60 642 60 642 105 698 c 1,2,3
 128 698 128 698 200 698 c 1,4,5
 200 664 200 664 200 562 c 1,6,7
 190 549 190 549 159 510 c 1,8,9
 130 510 130 510 46 510 c 1,10,11
 46 538 46 538 46 623 c 1,0,1
80 539 m 1,12,13
 96 539 96 539 142 539 c 1,14,15
 148 546 148 546 166 568 c 1,16,17
 166 594 166 594 166 669 c 1,18,19
 155 669 155 669 121 669 c 1,20,21
 111 656 111 656 80 617 c 1,22,23
 80 598 80 598 80 539 c 1,12,13
EndSplineSet
Validated: 1
EndChar

StartChar: ogonek
Encoding: 731 731 199
Width: 205
GlyphClass: 1
Flags: W
LayerCount: 2
Fore
SplineSet
96 0 m 1,0,1
 108 0 108 0 144 0 c 0,2,3
 148 0 148 0 161 0 c 1,4,5
 161 -9 161 -9 161 -37 c 1,6,7
 150 -37 150 -37 117 -37 c 1,8,9
 110 -46 110 -46 88 -73 c 1,10,11
 88 -94 88 -94 88 -158 c 1,12,13
 107 -158 107 -158 161 -158 c 1,14,15
 161 -167 161 -167 161 -195 c 1,16,17
 132 -195 132 -195 44 -195 c 1,18,19
 44 -162 44 -162 44 -65 c 1,20,21
 57 -49 57 -49 96 0 c 1,0,1
EndSplineSet
Validated: 1
EndChar

StartChar: tilde
Encoding: 732 732 200
Width: 410
GlyphClass: 1
Flags: W
LayerCount: 2
Fore
SplineSet
168 611 m 1,0,1
 168 651 168 651 168 664 c 1,2,3
 72 664 72 664 40 664 c 1,4,5
 40 704 40 704 40 717 c 1,6,7
 191 717 191 717 241 717 c 1,8,9
 241 677 241 677 241 664 c 1,10,11
 337 664 337 664 369 664 c 1,12,13
 369 624 369 624 369 611 c 1,14,15
 218 611 218 611 168 611 c 1,0,1
EndSplineSet
Validated: 1
EndChar

StartChar: hungarumlaut
Encoding: 733 733 201
Width: 553
GlyphClass: 1
Flags: W
LayerCount: 2
Fore
SplineSet
150 468 m 1,0,1
 123 468 123 468 42 468 c 1,2,3
 88 530 88 530 224 718 c 1,4,5
 251 718 251 718 332 718 c 1,6,7
 287 655 287 655 150 468 c 1,0,1
331 468 m 1,8,9
 304 468 304 468 223 468 c 1,10,11
 268 530 268 530 404 718 c 1,12,13
 431 718 431 718 512 718 c 1,14,15
 467 655 467 655 331 468 c 1,8,9
EndSplineSet
Validated: 1
EndChar

StartChar: "+IBAA"
Encoding: 8208 8208 202
Width: 492
GlyphClass: 1
Flags: W
LayerCount: 2
Fore
SplineSet
450 415 m 1,0,1
 450 391 450 391 450 364 c 256,2,3
 450 337 450 337 450 313 c 1,4,5
 424 313 424 313 388 313 c 0,6,7
 353 313 353 313 314 313 c 0,8,9
 241 313 241 313 166 313 c 256,10,11
 91 313 91 313 41 313 c 1,12,13
 41 337 41 337 41 364 c 256,14,15
 41 391 41 391 41 415 c 1,16,17
 91 415 91 415 166 415 c 256,18,19
 241 415 241 415 314 415 c 0,20,21
 353 415 353 415 388 415 c 0,22,23
 424 415 424 415 450 415 c 1,0,1
EndSplineSet
Validated: 513
EndChar

StartChar: "+IBEA"
Encoding: 8209 8209 203
Width: 491
GlyphClass: 1
Flags: W
LayerCount: 2
Fore
SplineSet
451 475 m 1,0,1
 451 451 451 451 451 428 c 256,2,3
 451 405 451 405 451 381 c 1,4,5
 425 381 425 381 389 381 c 0,6,7
 354 381 354 381 315 381 c 0,8,9
 242 381 242 381 167 381 c 256,10,11
 92 381 92 381 42 381 c 1,12,13
 42 405 42 405 42 428 c 256,14,15
 42 451 42 451 42 475 c 1,16,17
 92 475 92 475 167 475 c 256,18,19
 242 475 242 475 315 475 c 0,20,21
 354 475 354 475 389 475 c 0,22,23
 425 475 425 475 451 475 c 1,0,1
EndSplineSet
Validated: 513
EndChar

StartChar: "+IBIA"
Encoding: 8210 8210 204
Width: 492
GlyphClass: 1
Flags: W
LayerCount: 2
Fore
SplineSet
451 171 m 1,0,1
 451 147 451 147 451 137 c 0,2,3
 451 126 451 126 451 102 c 1,4,5
 424 102 424 102 388 102 c 0,6,7
 353 102 353 102 314 102 c 0,8,9
 242 102 242 102 166 102 c 0,10,11
 91 102 91 102 41 102 c 1,12,13
 41 126 41 126 41 137 c 0,14,15
 41 147 41 147 41 171 c 1,16,17
 68 171 68 171 103 171 c 256,18,19
 138 171 138 171 177 171 c 0,20,21
 250 171 250 171 325 171 c 0,22,23
 401 171 401 171 451 171 c 1,0,1
EndSplineSet
Validated: 513
EndChar

StartChar: endash
Encoding: 8211 8211 205
Width: 492
GlyphClass: 1
Flags: W
LayerCount: 2
Fore
SplineSet
451 171 m 1,0,1
 451 147 451 147 451 137 c 0,2,3
 451 126 451 126 451 102 c 1,4,5
 424 102 424 102 388 102 c 0,6,7
 353 102 353 102 314 102 c 0,8,9
 242 102 242 102 166 102 c 0,10,11
 91 102 91 102 41 102 c 1,12,13
 41 126 41 126 41 137 c 0,14,15
 41 147 41 147 41 171 c 1,16,17
 68 171 68 171 103 171 c 256,18,19
 138 171 138 171 177 171 c 0,20,21
 250 171 250 171 325 171 c 0,22,23
 401 171 401 171 451 171 c 1,0,1
EndSplineSet
Validated: 1
EndChar

StartChar: emdash
Encoding: 8212 8212 206
Width: 522
GlyphClass: 1
Flags: W
LayerCount: 2
Fore
SplineSet
521 171 m 1,0,1
 521 147 521 147 521 137 c 0,2,3
 521 126 521 126 521 102 c 1,4,5
 503 102 503 102 478 102 c 256,6,7
 453 102 453 102 423 102 c 0,8,9
 367 102 367 102 299 102 c 256,10,11
 231 102 231 102 168 102 c 0,12,13
 116 102 116 102 72 102 c 256,14,15
 28 102 28 102 1 102 c 1,16,17
 1 126 1 126 1 137 c 0,18,19
 1 139 1 139 1 142 c 0,20,21
 1 152 1 152 1 171 c 1,22,23
 28 171 28 171 72 171 c 256,24,25
 116 171 116 171 168 171 c 0,26,27
 231 171 231 171 299 171 c 256,28,29
 367 171 367 171 423 171 c 0,30,31
 453 171 453 171 478 171 c 256,32,33
 503 171 503 171 521 171 c 1,0,1
EndSplineSet
Validated: 1
EndChar

StartChar: quoteleft
Encoding: 8216 8216 207
Width: 368
GlyphClass: 1
Flags: W
LayerCount: 2
Fore
SplineSet
41 718 m 1,0,1
 68 718 68 718 149 718 c 1,2,3
 194 655 194 655 330 468 c 1,4,5
 303 468 303 468 222 468 c 1,6,7
 177 530 177 530 41 718 c 1,0,1
EndSplineSet
Validated: 1
EndChar

StartChar: quoteright
Encoding: 8217 8217 208
Width: 368
GlyphClass: 1
Flags: W
LayerCount: 2
Fore
SplineSet
149 468 m 1,0,1
 122 468 122 468 41 468 c 1,2,3
 86 530 86 530 222 718 c 1,4,5
 249 718 249 718 330 718 c 1,6,7
 285 655 285 655 149 468 c 1,0,1
EndSplineSet
Validated: 1
EndChar

StartChar: quotesinglbase
Encoding: 8218 8218 209
Width: 266
GlyphClass: 1
Flags: W
LayerCount: 2
Fore
SplineSet
43 -148 m 1,0,1
 16 -148 16 -148 -65 -148 c 1,2,3
 -20 -86 -20 -86 117 102 c 1,4,5
 144 102 144 102 225 102 c 1,6,7
 179 39 179 39 43 -148 c 1,0,1
EndSplineSet
Validated: 1
EndChar

StartChar: quotedblleft
Encoding: 8220 8220 210
Width: 553
GlyphClass: 1
Flags: W
LayerCount: 2
Fore
SplineSet
223 718 m 1,0,1
 250 718 250 718 331 718 c 1,2,3
 376 655 376 655 512 468 c 1,4,5
 485 468 485 468 404 468 c 1,6,7
 359 530 359 530 223 718 c 1,0,1
42 718 m 1,8,9
 69 718 69 718 150 718 c 1,10,11
 196 655 196 655 332 468 c 1,12,13
 305 468 305 468 224 468 c 1,14,15
 179 530 179 530 42 718 c 1,8,9
EndSplineSet
Validated: 1
EndChar

StartChar: quotedblright
Encoding: 8221 8221 211
Width: 553
GlyphClass: 1
Flags: W
LayerCount: 2
Fore
SplineSet
150 468 m 1,0,1
 123 468 123 468 42 468 c 1,2,3
 88 530 88 530 224 718 c 1,4,5
 251 718 251 718 332 718 c 1,6,7
 287 655 287 655 150 468 c 1,0,1
331 468 m 1,8,9
 304 468 304 468 223 468 c 1,10,11
 268 530 268 530 404 718 c 1,12,13
 431 718 431 718 512 718 c 1,14,15
 467 655 467 655 331 468 c 1,8,9
EndSplineSet
Validated: 1
EndChar

StartChar: quotedblbase
Encoding: 8222 8222 212
Width: 471
GlyphClass: 1
Flags: W
LayerCount: 2
Fore
SplineSet
67 -130 m 1,0,1
 40 -130 40 -130 -41 -130 c 1,2,3
 5 -68 5 -68 141 120 c 1,4,5
 168 120 168 120 249 120 c 1,6,7
 204 57 204 57 67 -130 c 1,0,1
248 -130 m 1,8,9
 221 -130 221 -130 140 -130 c 1,10,11
 185 -68 185 -68 321 120 c 1,12,13
 348 120 348 120 429 120 c 1,14,15
 384 57 384 57 248 -130 c 1,8,9
EndSplineSet
Validated: 1
EndChar

StartChar: dagger
Encoding: 8224 8224 213
Width: 430
GlyphClass: 1
Flags: W
LayerCount: 2
Fore
SplineSet
391 433 m 1,0,1
 358 433 358 433 261 433 c 1,2,3
 261 288 261 288 261 -146 c 1,4,5
 237 -146 237 -146 165 -146 c 1,6,7
 165 -1 165 -1 165 433 c 1,8,9
 134 433 134 433 39 433 c 1,10,11
 39 445 39 445 39 484 c 0,12,13
 39 491 39 491 39 514 c 1,14,15
 71 514 71 514 165 514 c 1,16,17
 165 565 165 565 165 717 c 1,18,19
 189 717 189 717 261 717 c 1,20,21
 261 666 261 666 261 514 c 1,22,23
 293 514 293 514 391 514 c 1,24,25
 391 494 391 494 391 433 c 1,0,1
EndSplineSet
Validated: 1
EndChar

StartChar: daggerdbl
Encoding: 8225 8225 214
Width: 430
GlyphClass: 1
Flags: W
LayerCount: 2
Fore
SplineSet
392 83 m 5,0,1
 392 59 392 59 392 42 c 4,2,3
 392 24 392 24 392 0 c 5,4,-1
 262 0 l 5,5,-1
 262 -148 l 5,6,7
 238 -148 238 -148 166 -148 c 5,8,-1
 166 0 l 5,9,-1
 38 0 l 5,10,11
 38 24 38 24 38 42 c 4,12,13
 38 59 38 59 38 83 c 5,14,-1
 166 83 l 5,15,-1
 166 431 l 5,16,17
 134 431 134 431 38 431 c 5,18,19
 38 451 38 451 38 512 c 5,20,21
 70 512 70 512 166 512 c 5,22,23
 166 563 166 563 166 717 c 5,24,25
 190 717 190 717 262 717 c 5,26,27
 262 666 262 666 262 512 c 5,28,29
 294 512 294 512 392 512 c 5,30,31
 392 491 392 491 392 431 c 5,32,33
 359 431 359 431 262 431 c 5,34,-1
 262 83 l 5,35,-1
 392 83 l 5,0,1
EndSplineSet
Validated: 1
EndChar

StartChar: bullet
Encoding: 8226 8226 215
Width: 246
GlyphClass: 1
Flags: W
LayerCount: 2
Fore
SplineSet
46 388 m 1,0,1
 60 406 60 406 105 463 c 1,2,3
 128 463 128 463 200 463 c 1,4,5
 200 429 200 429 200 327 c 1,6,7
 190 314 190 314 159 275 c 1,8,9
 130 275 130 275 46 275 c 1,10,11
 46 303 46 303 46 388 c 1,0,1
EndSplineSet
Validated: 1
EndChar

StartChar: ellipsis
Encoding: 8230 8230 216
Width: 553
GlyphClass: 1
Flags: W
LayerCount: 2
Fore
SplineSet
400 0 m 1,0,1
 400 16 400 16 400 42 c 0,2,3
 400 69 400 69 400 84 c 1,4,5
 420 84 420 84 453 84 c 256,6,7
 486 84 486 84 506 84 c 1,8,9
 506 69 506 69 506 42 c 0,10,11
 506 16 506 16 506 0 c 1,12,13
 486 0 486 0 453 0 c 256,14,15
 420 0 420 0 400 0 c 1,0,1
222 0 m 1,16,17
 222 16 222 16 222 42 c 0,18,19
 222 69 222 69 222 84 c 1,20,21
 242 84 242 84 275 84 c 256,22,23
 308 84 308 84 328 84 c 1,24,25
 328 69 328 69 328 42 c 0,26,27
 328 16 328 16 328 0 c 1,28,29
 308 0 308 0 275 0 c 256,30,31
 242 0 242 0 222 0 c 1,16,17
44 0 m 1,32,33
 44 16 44 16 44 42 c 0,34,35
 44 69 44 69 44 84 c 1,36,37
 64 84 64 84 97 84 c 256,38,39
 130 84 130 84 150 84 c 1,40,41
 150 69 150 69 150 42 c 0,42,43
 150 16 150 16 150 0 c 1,44,45
 130 0 130 0 97 0 c 256,46,47
 64 0 64 0 44 0 c 1,32,33
EndSplineSet
Validated: 1
EndChar

StartChar: guilsinglleft
Encoding: 8249 8249 217
Width: 368
GlyphClass: 1
Flags: W
LayerCount: 2
Fore
SplineSet
222 510 m 1,0,1
 250 510 250 510 332 510 c 1,2,3
 286 446 286 446 147 255 c 1,4,5
 193 191 193 191 332 0 c 1,6,7
 305 0 305 0 222 0 c 1,8,9
 176 64 176 64 37 255 c 1,10,11
 83 319 83 319 222 510 c 1,0,1
EndSplineSet
Validated: 1
EndChar

StartChar: guilsinglright
Encoding: 8250 8250 218
Width: 368
GlyphClass: 1
Flags: W
LayerCount: 2
Fore
SplineSet
331 255 m 1,0,1
 285 191 285 191 146 0 c 1,2,3
 119 0 119 0 36 0 c 1,4,5
 82 64 82 64 221 255 c 1,6,7
 175 319 175 319 36 510 c 1,8,9
 63 510 63 510 146 510 c 1,10,11
 192 446 192 446 331 255 c 1,0,1
EndSplineSet
Validated: 1
EndChar

StartChar: fraction
Encoding: 8260 8260 219
Width: 513
GlyphClass: 1
Flags: W
LayerCount: 2
Fore
SplineSet
479 717 m 1,0,1
 479 680 479 680 479 566 c 1,2,3
 370 425 370 425 42 0 c 1,4,5
 42 10 42 10 42 41 c 256,6,7
 42 72 42 72 42 164 c 1,8,9
 151 302 151 302 479 717 c 1,0,1
EndSplineSet
Validated: 1
EndChar

StartChar: franc
Encoding: 8355 8355 220
Width: 614
GlyphClass: 1
Flags: W
LayerCount: 2
Fore
SplineSet
258 116 m 1,0,-1
 258 0 l 1,1,2
 239 0 239 0 179 0 c 0,3,4
 173 0 173 0 152 0 c 1,5,-1
 152 116 l 1,6,-1
 46 116 l 1,7,8
 46 141 46 141 46 218 c 1,9,-1
 152 218 l 1,10,-1
 152 561 l 1,11,12
 183 600 183 600 276 717 c 1,13,14
 350 717 350 717 571 717 c 1,15,16
 571 695 571 695 571 629 c 1,17,18
 510 629 510 629 327 629 c 1,19,20
 310 608 310 608 258 543 c 1,21,22
 258 510 258 510 258 412 c 1,23,24
 337 412 337 412 571 412 c 1,25,26
 571 390 571 390 571 324 c 1,27,28
 493 324 493 324 258 324 c 1,29,-1
 258 218 l 1,30,-1
 380 218 l 1,31,32
 380 192 380 192 380 116 c 1,33,-1
 258 116 l 1,0,-1
EndSplineSet
Validated: 1
EndChar

StartChar: "+IKQA"
Encoding: 8356 8356 221
Width: 615
GlyphClass: 1
Flags: W
LayerCount: 2
Fore
SplineSet
570 0 m 1,0,1
 543 0 543 0 507 0 c 256,2,3
 471 0 471 0 431 0 c 0,4,5
 357 0 357 0 280 0 c 256,6,7
 203 0 203 0 152 0 c 1,8,9
 152 35 152 35 152 81 c 256,10,11
 152 127 152 127 152 178 c 1,12,13
 122 178 122 178 94 178 c 0,14,15
 67 178 67 178 46 178 c 1,16,17
 46 183 46 183 46 189 c 0,18,19
 46 206 46 206 46 229 c 0,20,21
 46 261 46 261 46 281 c 1,22,23
 67 281 67 281 94 281 c 0,24,25
 122 281 122 281 152 281 c 1,26,27
 152 309 152 309 152 336 c 0,28,29
 152 364 152 364 152 391 c 1,30,31
 122 391 122 391 94 391 c 0,32,33
 67 391 67 391 46 391 c 1,34,35
 46 410 46 410 46 442 c 256,36,37
 46 474 46 474 46 493 c 1,38,39
 67 493 67 493 94 493 c 0,40,41
 122 493 122 493 152 493 c 1,42,43
 152 512 152 512 152 529 c 256,44,45
 152 546 152 546 152 561 c 1,46,47
 175 590 175 590 214 639 c 256,48,49
 253 688 253 688 276 717 c 1,50,51
 295 717 295 717 320 717 c 0,52,53
 346 717 346 717 374 717 c 0,54,55
 426 717 426 717 480 717 c 256,56,57
 534 717 534 717 570 717 c 1,58,59
 570 701 570 701 570 674 c 0,60,61
 570 646 570 646 570 629 c 1,62,63
 554 629 554 629 534 629 c 0,64,65
 513 629 513 629 489 629 c 0,66,67
 446 629 446 629 401 629 c 256,68,69
 356 629 356 629 326 629 c 1,70,71
 314 613 314 613 292 586 c 0,72,73
 271 559 271 559 258 542 c 1,74,75
 258 532 258 532 258 519 c 0,76,77
 258 507 258 507 258 493 c 1,78,79
 308 493 308 493 355 493 c 0,80,81
 401 493 401 493 435 493 c 1,82,83
 435 474 435 474 435 442 c 256,84,85
 435 410 435 410 435 391 c 1,86,87
 401 391 401 391 355 391 c 0,88,89
 308 391 308 391 258 391 c 1,90,91
 258 364 258 364 258 336 c 256,92,93
 258 308 258 308 258 281 c 1,94,95
 308 281 308 281 355 281 c 0,96,97
 401 281 401 281 435 281 c 1,98,99
 435 261 435 261 435 229 c 256,100,101
 435 197 435 197 435 178 c 1,102,103
 401 178 401 178 355 178 c 0,104,105
 308 178 308 178 258 178 c 1,106,107
 258 153 258 153 258 130 c 256,108,109
 258 107 258 107 258 88 c 1,110,111
 278 88 278 88 305 88 c 256,112,113
 332 88 332 88 362 89 c 0,114,115
 418 89 418 89 475 89 c 256,116,117
 532 89 532 89 570 89 c 1,118,119
 570 72 570 72 570 44 c 0,120,121
 570 17 570 17 570 0 c 1,0,1
EndSplineSet
Validated: 513
EndChar

StartChar: "+IKcA"
Encoding: 8359 8359 222
Width: 1106
GlyphClass: 1
Flags: W
LayerCount: 2
Fore
SplineSet
686 215 m 1,0,1
 686 243 686 243 686 291 c 0,2,3
 686 338 686 338 686 367 c 1,4,5
 707 393 707 393 742 438 c 0,6,7
 778 483 778 483 799 510 c 1,8,9
 817 510 817 510 840 510 c 0,10,11
 862 510 862 510 888 510 c 0,12,13
 935 510 935 510 985 510 c 0,14,15
 1034 510 1034 510 1067 510 c 1,16,17
 1067 495 1067 495 1067 470 c 0,18,19
 1067 444 1067 444 1067 429 c 1,20,21
 1025 429 1025 429 956 429 c 128,-1,22
 887 429 887 429 845 429 c 1,23,24
 833 413 833 413 812 386 c 0,25,26
 792 360 792 360 780 344 c 1,27,28
 780 334 780 334 780 319 c 128,-1,29
 780 304 780 304 780 295 c 1,30,31
 798 295 798 295 823 295 c 128,-1,32
 848 295 848 295 875 295 c 0,33,34
 926 295 926 295 979 295 c 128,-1,35
 1032 295 1032 295 1067 295 c 1,36,37
 1067 267 1067 267 1067 219 c 0,38,39
 1067 172 1067 172 1067 144 c 1,40,41
 1045 117 1045 117 1010 72 c 0,42,43
 974 27 974 27 953 0 c 1,44,45
 920 0 920 0 871 0 c 128,-1,46
 822 0 822 0 775 0 c 0,47,48
 749 0 749 0 726 0 c 128,-1,49
 703 0 703 0 686 0 c 1,50,51
 686 15 686 15 686 40 c 128,-1,52
 686 65 686 65 686 81 c 1,53,54
 727 81 727 81 796 81 c 0,55,56
 866 81 866 81 907 81 c 1,57,58
 919 97 919 97 940 124 c 0,59,60
 960 150 960 150 973 166 c 1,61,62
 973 175 973 175 973 191 c 0,63,64
 973 206 973 206 973 215 c 1,65,66
 954 215 954 215 929 215 c 128,-1,67
 904 215 904 215 877 215 c 0,68,69
 826 215 826 215 773 215 c 0,70,71
 721 215 721 215 686 215 c 1,0,1
728 512 m 1,72,73
 728 496 728 496 728 471 c 128,-1,74
 728 446 728 446 728 431 c 1,75,76
 708 431 708 431 674 431 c 0,77,78
 641 431 641 431 621 431 c 1,79,80
 621 402 621 402 621 365 c 128,-1,81
 621 328 621 328 621 287 c 0,82,83
 621 211 621 211 621 132 c 0,84,85
 621 52 621 52 621 0 c 1,86,87
 603 0 603 0 573 0 c 128,-1,88
 543 0 543 0 525 0 c 1,89,90
 525 52 525 52 525 132 c 0,91,92
 525 211 525 211 525 287 c 0,93,94
 525 328 525 328 525 365 c 128,-1,95
 525 402 525 402 525 431 c 1,96,97
 513 431 513 431 492 431 c 128,-1,98
 471 431 471 431 459 431 c 1,99,100
 459 446 459 446 459 471 c 2,101,-1
 459 474 l 1,102,103
 435 443 435 443 395 393 c 128,-1,104
 355 343 355 343 332 313 c 1,105,106
 297 313 297 313 238 313 c 0,107,108
 180 313 180 313 145 313 c 1,109,110
 145 292 145 292 145 265 c 128,-1,111
 145 238 145 238 145 208 c 0,112,113
 145 153 145 153 145 95 c 0,114,115
 145 38 145 38 145 0 c 1,116,117
 125 0 125 0 92 0 c 128,-1,118
 59 0 59 0 39 0 c 1,119,120
 39 47 39 47 39 109 c 0,121,122
 39 170 39 170 39 239 c 0,123,124
 39 271 39 271 39 304 c 0,125,126
 39 400 39 400 39 498 c 0,127,128
 39 630 39 630 39 717 c 1,129,130
 67 717 67 717 103 718 c 0,131,132
 139 718 139 718 179 718 c 0,133,134
 253 718 253 718 330 718 c 0,135,136
 408 718 408 718 459 718 c 1,137,138
 459 702 459 702 459 681 c 128,-1,139
 459 660 459 660 459 636 c 0,140,141
 459 593 459 593 459 548 c 2,142,-1
 459 512 l 1,143,144
 471 512 471 512 492 512 c 128,-1,145
 513 512 513 512 525 512 c 1,146,147
 525 539 525 539 525 585 c 128,-1,148
 525 631 525 631 525 658 c 1,149,150
 543 658 543 658 573 658 c 128,-1,151
 603 658 603 658 621 658 c 1,152,153
 621 631 621 631 621 585 c 128,-1,154
 621 539 621 539 621 512 c 1,155,156
 641 512 641 512 674 512 c 0,157,158
 708 512 708 512 728 512 c 1,72,73
353 492 m 1,159,160
 353 518 353 518 353 561 c 128,-1,161
 353 604 353 604 353 629 c 1,162,163
 314 629 314 629 249 629 c 128,-1,164
 184 629 184 629 145 629 c 1,165,166
 145 614 145 614 145 595 c 0,167,168
 145 575 145 575 145 553 c 0,169,170
 145 513 145 513 145 471 c 0,171,172
 145 428 145 428 145 401 c 1,173,174
 171 401 171 401 213 401 c 0,175,176
 256 401 256 401 282 401 c 1,177,178
 295 418 295 418 317 446 c 0,179,180
 340 475 340 475 353 492 c 1,159,160
EndSplineSet
Validated: 513
EndChar

StartChar: "+IKwA"
Encoding: 8364 8364 223
Width: 614
GlyphClass: 1
Flags: W
LayerCount: 2
Fore
SplineSet
568 629 m 1,0,1
 530 629 530 629 473 629 c 256,2,3
 416 629 416 629 360 629 c 0,4,5
 330 629 330 629 303 629 c 0,6,7
 277 629 277 629 256 629 c 1,8,9
 256 610 256 610 256 587 c 0,10,11
 256 565 256 565 256 539 c 1,12,13
 306 539 306 539 353 539 c 0,14,15
 399 539 399 539 433 539 c 1,16,17
 433 520 433 520 433 488 c 256,18,19
 433 456 433 456 433 437 c 1,20,21
 399 437 399 437 353 437 c 0,22,23
 306 437 306 437 256 437 c 1,24,25
 256 409 256 409 256 381 c 0,26,27
 256 354 256 354 256 327 c 1,28,29
 306 327 306 327 353 327 c 0,30,31
 399 327 399 327 433 327 c 1,32,33
 433 307 433 307 433 275 c 256,34,35
 433 243 433 243 433 224 c 1,36,37
 399 224 399 224 353 224 c 0,38,39
 306 224 306 224 256 224 c 1,40,41
 256 211 256 211 256 198 c 0,42,43
 256 186 256 186 256 175 c 1,44,45
 269 159 269 159 290 132 c 0,46,47
 312 104 312 104 324 88 c 1,48,49
 354 88 354 88 399 88 c 256,50,51
 444 88 444 88 487 88 c 0,52,53
 511 88 511 88 532 88 c 256,54,55
 553 88 553 88 568 88 c 1,56,57
 568 72 568 72 568 44 c 0,58,59
 568 17 568 17 568 0 c 1,60,61
 549 0 549 0 524 0 c 256,62,63
 499 0 499 0 470 0 c 0,64,65
 418 0 418 0 364 0 c 256,66,67
 310 0 310 0 274 0 c 1,68,69
 251 29 251 29 212 78 c 256,70,71
 173 127 173 127 150 157 c 1,72,73
 150 171 150 171 150 189 c 0,74,75
 150 206 150 206 150 224 c 1,76,77
 120 224 120 224 92 224 c 0,78,79
 65 224 65 224 44 224 c 1,80,81
 44 229 44 229 44 235 c 0,82,83
 44 252 44 252 44 275 c 0,84,85
 44 307 44 307 44 327 c 1,86,87
 65 327 65 327 92 327 c 0,88,89
 120 327 120 327 150 327 c 1,90,91
 150 353 150 353 150 381 c 256,92,93
 150 409 150 409 150 437 c 1,94,95
 120 437 120 437 92 437 c 0,96,97
 65 437 65 437 44 437 c 1,98,99
 44 456 44 456 44 488 c 256,100,101
 44 520 44 520 44 539 c 1,102,103
 65 539 65 539 92 539 c 0,104,105
 120 539 120 539 150 539 c 1,106,107
 150 590 150 590 150 636 c 256,108,109
 150 682 150 682 150 717 c 1,110,111
 177 717 177 717 213 717 c 256,112,113
 249 717 249 717 289 717 c 0,114,115
 364 717 364 717 441 717 c 0,116,117
 517 717 517 717 568 717 c 1,118,119
 568 701 568 701 568 673 c 0,120,121
 568 646 568 646 568 629 c 1,0,1
EndSplineSet
Validated: 513
EndChar

StartChar: "+IRYA"
Encoding: 8470 8470 224
Width: 798
GlyphClass: 1
Flags: W
LayerCount: 2
Fore
SplineSet
483 130 m 1,0,1
 550 130 550 130 752 130 c 1,2,3
 752 117 752 117 752 79 c 1,4,5
 685 79 685 79 483 79 c 1,6,7
 483 92 483 92 483 130 c 1,0,1
482 374 m 1,8,9
 508 407 508 407 586 507 c 1,10,11
 629 507 629 507 756 507 c 1,12,13
 756 447 756 447 756 267 c 1,14,15
 738 243 738 243 683 173 c 1,16,17
 633 173 633 173 482 173 c 1,18,19
 482 224 482 224 482 374 c 1,8,9
543 225 m 1,20,21
 571 225 571 225 654 225 c 1,22,23
 664 238 664 238 695 277 c 1,24,25
 695 322 695 322 695 457 c 1,26,27
 675 457 675 457 616 457 c 1,28,29
 598 434 598 434 543 364 c 1,30,31
 543 329 543 329 543 225 c 1,20,21
151 0 m 1,32,33
 131 0 131 0 72 0 c 0,34,35
 65 0 65 0 45 0 c 1,36,37
 45 105 45 105 45 419 c 0,38,39
 45 493 45 493 45 717 c 1,40,41
 71 717 71 717 151 717 c 1,42,43
 151 678 151 678 151 560 c 1,44,45
 202 495 202 495 357 298 c 1,46,47
 357 403 357 403 357 717 c 1,48,49
 384 717 384 717 463 717 c 1,50,51
 463 538 463 538 463 0 c 1,52,53
 437 0 437 0 357 0 c 1,54,55
 357 33 357 33 357 133 c 1,56,57
 306 200 306 200 151 403 c 1,58,59
 151 302 151 302 151 0 c 1,32,33
EndSplineSet
Validated: 513
EndChar

StartChar: trademark
Encoding: 8482 8482 225
Width: 532
GlyphClass: 1
Flags: W
LayerCount: 2
Fore
SplineSet
198 717 m 1,0,1
 198 709 198 709 198 685 c 1,2,3
 183 685 183 685 138 685 c 1,4,5
 138 625 138 625 138 444 c 1,6,7
 128 444 128 444 98 444 c 1,8,9
 98 504 98 504 98 685 c 1,10,11
 83 685 83 685 38 685 c 1,12,13
 38 687 38 687 38 693 c 256,14,15
 38 699 38 699 38 717 c 1,16,17
 78 717 78 717 198 717 c 1,0,1
494 638 m 1,18,19
 494 590 494 590 494 444 c 1,20,21
 483 444 483 444 453 444 c 1,22,23
 453 490 453 490 453 630 c 1,24,25
 443 643 443 643 412 683 c 1,26,27
 402 683 402 683 375 683 c 1,28,29
 375 623 375 623 375 444 c 1,30,31
 365 444 365 444 334 444 c 1,32,33
 334 490 334 490 334 630 c 1,34,35
 324 643 324 643 293 683 c 1,36,37
 284 683 284 683 256 683 c 1,38,39
 256 623 256 623 256 444 c 1,40,41
 246 444 246 444 216 444 c 1,42,43
 216 512 216 512 216 717 c 1,44,45
 240 717 240 717 312 717 c 1,46,47
 318 710 318 710 334 688 c 1,48,49
 334 695 334 695 334 717 c 1,50,51
 358 717 358 717 431 717 c 1,52,53
 446 697 446 697 494 638 c 1,18,19
EndSplineSet
Validated: 1
EndChar

StartChar: partialdiff
Encoding: 8706 8706 226
Width: 492
GlyphClass: 1
Flags: W
LayerCount: 2
Fore
SplineSet
140 304 m 1,0,1
 140 274 140 274 140 183 c 1,2,3
 157 159 157 159 211 88 c 1,4,5
 246 88 246 88 351 88 c 1,6,7
 351 142 351 142 351 304 c 1,8,9
 298 304 298 304 140 304 c 1,0,1
454 0 m 1,10,11
 399 0 399 0 234 0 c 0,12,13
 216 0 216 0 161 0 c 1,14,15
 130 39 130 39 37 157 c 1,16,17
 37 194 37 194 37 305 c 0,18,19
 37 327 37 327 37 392 c 1,20,21
 115 392 115 392 351 392 c 1,22,23
 351 452 351 452 351 629 c 1,24,25
 272 629 272 629 37 629 c 1,26,27
 37 651 37 651 37 717 c 1,28,29
 141 717 141 717 454 717 c 1,30,31
 454 538 454 538 454 0 c 1,10,11
EndSplineSet
Validated: 1
EndChar

StartChar: Delta
Encoding: 8710 8710 227
Width: 614
GlyphClass: 1
Flags: W
LayerCount: 2
Fore
SplineSet
307 717 m 1,0,1
 399 478 399 478 581 0 c 1,2,3
 437 0 437 0 150 0 c 0,4,5
 111 0 111 0 34 0 c 1,6,7
 125 239 125 239 307 717 c 1,0,1
307 497 m 1,8,9
 255 361 255 361 151 88 c 1,10,11
 255 88 255 88 463 88 c 1,12,13
 411 224 411 224 307 497 c 1,8,9
EndSplineSet
Validated: 1
EndChar

StartChar: product
Encoding: 8719 8719 228
Width: 512
GlyphClass: 1
Flags: W
LayerCount: 2
Fore
SplineSet
466 0 m 1,0,1
 446 0 446 0 413 0 c 256,2,3
 380 0 380 0 360 0 c 1,4,5
 360 12 360 12 360 37 c 0,6,7
 360 61 360 61 360 94 c 0,8,9
 360 155 360 155 360 237 c 0,10,11
 360 318 360 318 360 397 c 0,12,13
 360 477 360 477 360 542 c 256,14,15
 360 607 360 607 360 630 c 1,16,17
 321 630 321 630 256 630 c 256,18,19
 191 630 191 630 152 630 c 1,20,21
 152 607 152 607 152 545 c 256,22,23
 152 483 152 483 152 405 c 0,24,25
 152 363 152 363 152 319 c 256,26,27
 152 275 152 275 152 233 c 0,28,29
 152 153 152 153 152 88 c 256,30,31
 152 23 152 23 152 0 c 1,32,33
 132 0 132 0 99 0 c 256,34,35
 66 0 66 0 46 0 c 1,36,37
 46 373 46 373 46 545 c 256,38,39
 46 717 46 717 46 717 c 1,40,41
 109 717 109 717 156 717 c 256,42,43
 203 717 203 717 237 717 c 0,44,45
 265 717 265 717 285 717 c 0,46,47
 306 717 306 717 321 717 c 0,48,49
 381 717 381 717 390 717 c 256,50,51
 399 717 399 717 466 717 c 1,52,53
 466 684 466 684 466 656 c 0,54,55
 466 629 466 629 466 605 c 0,56,57
 466 580 466 580 466 557 c 0,58,59
 466 535 466 535 466 512 c 0,60,61
 466 469 466 469 466 418 c 256,62,63
 466 367 466 367 466 288 c 0,64,65
 466 234 466 234 466 164 c 0,66,67
 466 93 466 93 466 0 c 1,0,1
EndSplineSet
Validated: 1
EndChar

StartChar: summation
Encoding: 8721 8721 229
Width: 512
GlyphClass: 1
Flags: W
LayerCount: 2
Fore
SplineSet
212 630 m 1,0,1
 254 563 254 563 379 359 c 1,2,3
 337 291 337 291 212 88 c 1,4,5
 275 88 275 88 464 88 c 1,6,7
 464 66 464 66 464 0 c 1,8,9
 386 0 386 0 150 0 c 0,10,11
 124 0 124 0 46 0 c 1,12,13
 103 90 103 90 275 359 c 1,14,15
 218 448 218 448 46 717 c 1,16,17
 150 717 150 717 464 717 c 1,18,19
 464 695 464 695 464 629 c 1,20,21
 401 630 401 630 212 630 c 1,0,1
EndSplineSet
Validated: 1
EndChar

StartChar: minus
Encoding: 8722 8722 230
Width: 492
GlyphClass: 1
Flags: W
LayerCount: 2
Fore
SplineSet
446 412 m 1,0,1
 446 388 446 388 446 371 c 256,2,3
 446 354 446 354 446 330 c 1,4,5
 419 330 419 330 384 330 c 256,6,7
 349 330 349 330 310 330 c 0,8,9
 237 330 237 330 162 330 c 0,10,11
 86 330 86 330 36 330 c 1,12,13
 36 354 36 354 36 371 c 256,14,15
 36 388 36 388 36 412 c 1,16,17
 63 412 63 412 99 412 c 0,18,19
 134 412 134 412 173 412 c 0,20,21
 245 412 245 412 321 412 c 0,22,23
 396 412 396 412 446 412 c 1,0,1
EndSplineSet
Validated: 1
EndChar

StartChar: radical
Encoding: 8730 8730 231
Width: 574
GlyphClass: 1
Flags: W
LayerCount: 2
Fore
SplineSet
426 857 m 1,0,1
 505 857 505 857 532 857 c 1,2,3
 532 214 532 214 532 0 c 1,4,5
 398 0 398 0 353 0 c 0,6,7
 303 0 303 0 278 0 c 1,8,9
 168 140 168 140 113 210 c 1,10,11
 62 210 62 210 37 210 c 1,12,13
 37 276 37 276 37 309 c 1,14,15
 116 309 116 309 155 309 c 1,16,17
 271 162 271 162 329 89 c 1,18,19
 393 89 393 89 426 89 c 1,20,21
 426 665 426 665 426 857 c 1,0,1
EndSplineSet
Validated: 1
EndChar

StartChar: infinity
Encoding: 8734 8734 232
Width: 491
GlyphClass: 1
Flags: W
LayerCount: 2
Fore
SplineSet
88 332 m 1,0,1
 106 332 106 332 160 332 c 1,2,3
 173 342 173 342 210 373 c 1,4,5
 210 392 210 392 210 451 c 1,6,7
 179 451 179 451 88 451 c 1,8,9
 88 421 88 421 88 332 c 1,0,1
397 451 m 1,10,11
 377 451 377 451 318 451 c 1,12,13
 305 440 305 440 266 410 c 1,14,15
 266 390 266 390 266 332 c 1,16,17
 299 332 299 332 397 332 c 1,18,19
 397 362 397 362 397 451 c 1,10,11
180 272 m 1,20,21
 146 272 146 272 41 272 c 1,22,23
 41 310 41 310 41 422 c 0,24,25
 41 445 41 445 41 512 c 1,26,27
 98 512 98 512 270 512 c 1,28,29
 270 504 270 504 270 479 c 1,30,31
 280 487 280 487 311 512 c 1,32,33
 346 512 346 512 450 512 c 1,34,35
 450 452 450 452 450 272 c 1,36,37
 393 272 393 272 219 272 c 1,38,39
 219 280 219 280 219 304 c 1,40,41
 210 296 210 296 180 272 c 1,20,21
EndSplineSet
Validated: 1
EndChar

StartChar: integral
Encoding: 8747 8747 233
Width: 389
GlyphClass: 1
Flags: W
LayerCount: 2
Fore
SplineSet
245 751 m 1,0,1
 245 188 245 188 245 0 c 1,2,3
 131 0 131 0 93 0 c 128,-1,4
 55 0 55 0 42 0 c 1,5,6
 42 59 42 59 42 79 c 128,-1,7
 42 99 42 99 42 106 c 1,8,9
 115 106 115 106 139 106 c 1,10,11
 139 669 139 669 139 857 c 1,12,13
 292 857 292 857 343 857 c 1,14,15
 343 777 343 777 343 751 c 1,16,17
 270 751 270 751 245 751 c 1,0,1
EndSplineSet
Validated: 1
EndChar

StartChar: approxequal
Encoding: 8776 8776 234
Width: 512
GlyphClass: 1
Flags: W
LayerCount: 2
Fore
SplineSet
466 173 m 1,0,1
 402 173 402 173 208 173 c 1,2,3
 208 190 208 190 208 241 c 1,4,5
 167 241 167 241 44 241 c 1,6,7
 44 258 44 258 44 309 c 1,8,9
 109 309 109 309 302 309 c 1,10,11
 302 292 302 292 302 241 c 1,12,13
 343 241 343 241 466 241 c 1,14,15
 466 224 466 224 466 173 c 1,0,1
466 373 m 1,16,17
 402 373 402 373 208 373 c 1,18,19
 208 390 208 390 208 441 c 1,20,21
 167 441 167 441 44 441 c 1,22,23
 44 458 44 458 44 509 c 1,24,25
 109 509 109 509 302 509 c 1,26,27
 302 492 302 492 302 441 c 1,28,29
 343 441 343 441 466 441 c 1,30,31
 466 424 466 424 466 373 c 1,16,17
EndSplineSet
Validated: 1
EndChar

StartChar: lessequal
Encoding: 8804 8804 235
Width: 471
GlyphClass: 1
Flags: W
LayerCount: 2
Fore
SplineSet
39 163 m 1,0,1
 136 163 136 163 428 163 c 1,2,3
 428 143 428 143 428 82 c 1,4,5
 331 82 331 82 39 82 c 1,6,7
 39 102 39 102 39 163 c 1,0,1
286 717 m 1,8,9
 314 717 314 717 397 717 c 1,10,11
 350 653 350 653 211 461 c 1,12,13
 257 397 257 397 397 205 c 1,14,15
 369 205 369 205 286 205 c 1,16,17
 240 269 240 269 100 461 c 1,18,19
 147 525 147 525 286 717 c 1,8,9
EndSplineSet
Validated: 1
EndChar

StartChar: greaterequal
Encoding: 8805 8805 236
Width: 471
GlyphClass: 1
Flags: W
LayerCount: 2
Fore
SplineSet
41 164 m 1,0,1
 138 164 138 164 430 164 c 1,2,3
 430 144 430 144 430 83 c 1,4,5
 333 83 333 83 41 83 c 1,6,7
 41 103 41 103 41 164 c 1,0,1
399 462 m 1,8,9
 352 398 352 398 213 206 c 1,10,11
 185 206 185 206 102 206 c 1,12,13
 149 270 149 270 288 462 c 1,14,15
 242 526 242 526 102 718 c 1,16,17
 130 718 130 718 213 718 c 1,18,19
 259 654 259 654 399 462 c 1,8,9
EndSplineSet
Validated: 1
EndChar

